<svg xmlns="http://www.w3.org/2000/svg" id="Layer_2" x="0" y="0" version="1.1" viewBox="0 0 1920 1920" xml:space="preserve"><defs/><style>.st3{fill:#fdb714}.st4{fill:#f6861f}.st5{fill:#ed1c24}</style><path fill="#bf2127" d="M-3.3 1080h1922.2v555.6H-3.3z"/><path fill="#da6e27" d="M-1 535.6h1919.9V1080H-1z"/><path fill="#e2a30f" d="M-3.3-2.2h1922.2v537.8H-3.3z"/><path d="M89.8 531.2h-7.2c-36.9 0-66.9-30-66.9-66.9v-7.2c0-4 3.3-7.3 7.3-7.3h7.2c36.9 0 66.9 30 66.9 66.9v7.2c0 4-3.2 7.3-7.3 7.3zM117.7 531.2h7.2c36.9 0 66.9-30 66.9-66.9v-7.2c0-4-3.3-7.3-7.3-7.3h-7.2c-36.9 0-66.9 30-66.9 66.9v7.2c0 4 3.2 7.3 7.3 7.3zM83.4 440.9h-7.2c-36.9 0-66.9-30-66.9-66.9v-7.2c0-4 3.3-7.3 7.3-7.3h7.2c36.9 0 66.9 30 66.9 66.9v7.2c0 4-3.3 7.3-7.3 7.3zM111.2 440.9h7.2c36.9 0 66.9-30 66.9-66.9v-7.2c0-4-3.3-7.3-7.3-7.3h-7.2c-36.9 0-66.9 30-66.9 66.9v7.2c.1 4 3.3 7.3 7.3 7.3zM90.4 356.9h-7.2c-36.9 0-66.9-30-66.9-66.9v-7.2c0-4 3.3-7.3 7.3-7.3h7.2c36.9 0 66.9 30 66.9 66.9v7.2c0 4.1-3.2 7.3-7.3 7.3zM118.3 356.9h7.2c36.9 0 66.9-30 66.9-66.9v-7.2c0-4-3.3-7.3-7.3-7.3h-7.2c-36.9 0-66.9 30-66.9 66.9v7.2c0 4.1 3.2 7.3 7.3 7.3zM89.3 264.6h-7.2c-36.9 0-66.9-30-66.9-66.9v-7.2c0-4 3.3-7.3 7.3-7.3h7.2c36.9 0 66.9 30 66.9 66.9v7.2c0 4-3.3 7.3-7.3 7.3zM117.1 264.6h7.2c36.9 0 66.9-30 66.9-66.9v-7.2c0-4-3.3-7.3-7.3-7.3h-7.2c-36.9 0-66.9 30-66.9 66.9v7.2c0 4 3.3 7.3 7.3 7.3zM89.3 179.5h-7.2c-36.9 0-66.9-30-66.9-66.9v-7.2c0-4 3.3-7.3 7.3-7.3h7.2c36.9 0 66.9 30 66.9 66.9v7.2c0 4-3.3 7.3-7.3 7.3zM117.1 179.5h7.2c36.9 0 66.9-30 66.9-66.9v-7.2c0-4-3.3-7.3-7.3-7.3h-7.2c-36.9 0-66.9 30-66.9 66.9v7.2c0 4 3.3 7.3 7.3 7.3zM86.5 94.4h-7.2c-36.9 0-66.9-30-66.9-66.9v-7.2c0-4 3.3-7.3 7.3-7.3h7.2c36.9 0 66.9 30 66.9 66.9v7.2c0 4-3.3 7.3-7.3 7.3zM114.3 94.4h7.2c36.9 0 66.9-30 66.9-66.9v-7.2c0-4-3.3-7.3-7.3-7.3h-7.2C137 13 107 43 107 79.9v7.2c0 4 3.3 7.3 7.3 7.3zM281.1 531.2h-7.2c-36.9 0-66.9-30-66.9-66.9v-7.2c0-4 3.3-7.3 7.3-7.3h7.2c36.9 0 66.9 30 66.9 66.9v7.2c0 4-3.2 7.3-7.3 7.3zM308.9 531.2h7.2c36.9 0 66.9-30 66.9-66.9v-7.2c0-4-3.3-7.3-7.3-7.3h-7.2c-36.9 0-66.9 30-66.9 66.9v7.2c.1 4 3.3 7.3 7.3 7.3zM274.7 440.9h-7.2c-36.9 0-66.9-30-66.9-66.9v-7.2c0-4 3.3-7.3 7.3-7.3h7.2c36.9 0 66.9 30 66.9 66.9v7.2c0 4-3.3 7.3-7.3 7.3zM302.5 440.9h7.2c36.9 0 66.9-30 66.9-66.9v-7.2c0-4-3.3-7.3-7.3-7.3h-7.2c-36.9 0-66.9 30-66.9 66.9v7.2c0 4 3.3 7.3 7.3 7.3zM281.7 356.9h-7.2c-36.9 0-66.9-30-66.9-66.9v-7.2c0-4 3.3-7.3 7.3-7.3h7.2c36.9 0 66.9 30 66.9 66.9v7.2c0 4.1-3.2 7.3-7.3 7.3zM309.6 356.9h7.2c36.9 0 66.9-30 66.9-66.9v-7.2c0-4-3.3-7.3-7.3-7.3h-7.2c-36.9 0-66.9 30-66.9 66.9v7.2c0 4.1 3.2 7.3 7.3 7.3zM280.6 264.6h-7.2c-36.9 0-66.9-30-66.9-66.9v-7.2c0-4 3.3-7.3 7.3-7.3h7.2c36.9 0 66.9 30 66.9 66.9v7.2c0 4-3.3 7.3-7.3 7.3zM308.4 264.6h7.2c36.9 0 66.9-30 66.9-66.9v-7.2c0-4-3.3-7.3-7.3-7.3H368c-36.9 0-66.9 30-66.9 66.9v7.2c0 4 3.3 7.3 7.3 7.3zM280.6 179.5h-7.2c-36.9 0-66.9-30-66.9-66.9v-7.2c0-4 3.3-7.3 7.3-7.3h7.2c36.9 0 66.9 30 66.9 66.9v7.2c0 4-3.3 7.3-7.3 7.3zM308.4 179.5h7.2c36.9 0 66.9-30 66.9-66.9v-7.2c0-4-3.3-7.3-7.3-7.3H368c-36.9 0-66.9 30-66.9 66.9v7.2c0 4 3.3 7.3 7.3 7.3zM277.8 94.4h-7.2c-36.9 0-66.9-30-66.9-66.9v-7.2c0-4 3.3-7.3 7.3-7.3h7.2c36.9 0 66.9 30 66.9 66.9v7.2c-.1 4-3.3 7.3-7.3 7.3zM305.6 94.4h7.2c36.9 0 66.9-30 66.9-66.9v-7.2c0-4-3.3-7.3-7.3-7.3h-7.2c-36.9 0-66.9 30-66.9 66.9v7.2c0 4 3.2 7.3 7.3 7.3zM472.4 531.2h-7.2c-36.9 0-66.9-30-66.9-66.9v-7.2c0-4 3.3-7.3 7.3-7.3h7.2c36.9 0 66.9 30 66.9 66.9v7.2c0 4-3.3 7.3-7.3 7.3zM500.2 531.2h7.2c36.9 0 66.9-30 66.9-66.9v-7.2c0-4-3.3-7.3-7.3-7.3h-7.2c-36.9 0-66.9 30-66.9 66.9v7.2c0 4 3.3 7.3 7.3 7.3zM466 440.9h-7.2c-36.9 0-66.9-30-66.9-66.9v-7.2c0-4 3.3-7.3 7.3-7.3h7.2c36.9 0 66.9 30 66.9 66.9v7.2c0 4-3.3 7.3-7.3 7.3zM493.8 440.9h7.2c36.9 0 66.9-30 66.9-66.9v-7.2c0-4-3.3-7.3-7.3-7.3h-7.2c-36.9 0-66.9 30-66.9 66.9v7.2c0 4 3.3 7.3 7.3 7.3zM473 356.9h-7.2c-36.9 0-66.9-30-66.9-66.9v-7.2c0-4 3.3-7.3 7.3-7.3h7.2c36.9 0 66.9 30 66.9 66.9v7.2c0 4.1-3.2 7.3-7.3 7.3zM500.8 356.9h7.2c36.9 0 66.9-30 66.9-66.9v-7.2c0-4-3.3-7.3-7.3-7.3h-7.2c-36.9 0-66.9 30-66.9 66.9v7.2c.1 4.1 3.3 7.3 7.3 7.3z" class="st3"/><g><path d="M471.9 264.6h-7.2c-36.9 0-66.9-30-66.9-66.9v-7.2c0-4 3.3-7.3 7.3-7.3h7.2c36.9 0 66.9 30 66.9 66.9v7.2c0 4-3.3 7.3-7.3 7.3zM499.7 264.6h7.2c36.9 0 66.9-30 66.9-66.9v-7.2c0-4-3.3-7.3-7.3-7.3h-7.2c-36.9 0-66.9 30-66.9 66.9v7.2c0 4 3.3 7.3 7.3 7.3z" class="st3"/></g><g><path d="M471.9 179.5h-7.2c-36.9 0-66.9-30-66.9-66.9v-7.2c0-4 3.3-7.3 7.3-7.3h7.2c36.9 0 66.9 30 66.9 66.9v7.2c0 4-3.3 7.3-7.3 7.3zM499.7 179.5h7.2c36.9 0 66.9-30 66.9-66.9v-7.2c0-4-3.3-7.3-7.3-7.3h-7.2c-36.9 0-66.9 30-66.9 66.9v7.2c0 4 3.3 7.3 7.3 7.3z" class="st3"/></g><g><path d="M469 94.4h-7.2c-36.9 0-66.9-30-66.9-66.9v-7.2c0-4 3.3-7.3 7.3-7.3h7.2c36.9 0 66.9 30 66.9 66.9v7.2c0 4-3.2 7.3-7.3 7.3zM496.9 94.4h7.2c36.9 0 66.9-30 66.9-66.9v-7.2c0-4-3.3-7.3-7.3-7.3h-7.2c-36.9 0-66.9 30-66.9 66.9v7.2c0 4 3.2 7.3 7.3 7.3z" class="st3"/></g><g><path d="M663.7 531.2h-7.2c-36.9 0-66.9-30-66.9-66.9v-7.2c0-4 3.3-7.3 7.3-7.3h7.2c36.9 0 66.9 30 66.9 66.9v7.2c0 4-3.3 7.3-7.3 7.3zM691.5 531.2h7.2c36.9 0 66.9-30 66.9-66.9v-7.2c0-4-3.3-7.3-7.3-7.3h-7.2c-36.9 0-66.9 30-66.9 66.9v7.2c0 4 3.3 7.3 7.3 7.3zM657.3 440.9h-7.2c-36.9 0-66.9-30-66.9-66.9v-7.2c0-4 3.3-7.3 7.3-7.3h7.2c36.9 0 66.9 30 66.9 66.9v7.2c0 4-3.3 7.3-7.3 7.3zM685.1 440.9h7.2c36.9 0 66.9-30 66.9-66.9v-7.2c0-4-3.3-7.3-7.3-7.3h-7.2c-36.9 0-66.9 30-66.9 66.9v7.2c0 4 3.3 7.3 7.3 7.3zM664.3 356.9h-7.2c-36.9 0-66.9-30-66.9-66.9v-7.2c0-4 3.3-7.3 7.3-7.3h7.2c36.9 0 66.9 30 66.9 66.9v7.2c0 4.1-3.3 7.3-7.3 7.3zM692.1 356.9h7.2c36.9 0 66.9-30 66.9-66.9v-7.2c0-4-3.3-7.3-7.3-7.3h-7.2c-36.9 0-66.9 30-66.9 66.9v7.2c0 4.1 3.3 7.3 7.3 7.3z" class="st3"/><g><path d="M663.2 264.6H656c-36.9 0-66.9-30-66.9-66.9v-7.2c0-4 3.3-7.3 7.3-7.3h7.2c36.9 0 66.9 30 66.9 66.9v7.2c0 4-3.3 7.3-7.3 7.3zM691 264.6h7.2c36.9 0 66.9-30 66.9-66.9v-7.2c0-4-3.3-7.3-7.3-7.3h-7.2c-36.9 0-66.9 30-66.9 66.9v7.2c0 4 3.3 7.3 7.3 7.3z" class="st3"/></g><g><path d="M663.2 179.5H656c-36.9 0-66.9-30-66.9-66.9v-7.2c0-4 3.3-7.3 7.3-7.3h7.2c36.9 0 66.9 30 66.9 66.9v7.2c0 4-3.3 7.3-7.3 7.3zM691 179.5h7.2c36.9 0 66.9-30 66.9-66.9v-7.2c0-4-3.3-7.3-7.3-7.3h-7.2c-36.9 0-66.9 30-66.9 66.9v7.2c0 4 3.3 7.3 7.3 7.3z" class="st3"/></g><g><path d="M660.3 94.4h-7.2c-36.9 0-66.9-30-66.9-66.9v-7.2c0-4 3.3-7.3 7.3-7.3h7.2c36.9 0 66.9 30 66.9 66.9v7.2c0 4-3.2 7.3-7.3 7.3zM688.2 94.4h7.2c36.9 0 66.9-30 66.9-66.9v-7.2c0-4-3.3-7.3-7.3-7.3h-7.2c-36.9 0-66.9 30-66.9 66.9v7.2c0 4 3.2 7.3 7.3 7.3z" class="st3"/></g></g><g><path d="M855 531.2h-7.2c-36.9 0-66.9-30-66.9-66.9v-7.2c0-4 3.3-7.3 7.3-7.3h7.2c36.9 0 66.9 30 66.9 66.9v7.2c0 4-3.3 7.3-7.3 7.3zM882.8 531.2h7.2c36.9 0 66.9-30 66.9-66.9v-7.2c0-4-3.3-7.3-7.3-7.3h-7.2c-36.9 0-66.9 30-66.9 66.9v7.2c0 4 3.3 7.3 7.3 7.3zM848.6 440.9h-7.2c-36.9 0-66.9-30-66.9-66.9v-7.2c0-4 3.3-7.3 7.3-7.3h7.2c36.9 0 66.9 30 66.9 66.9v7.2c0 4-3.3 7.3-7.3 7.3zM876.4 440.9h7.2c36.9 0 66.9-30 66.9-66.9v-7.2c0-4-3.3-7.3-7.3-7.3H936c-36.9 0-66.9 30-66.9 66.9v7.2c0 4 3.3 7.3 7.3 7.3zM855.6 356.9h-7.2c-36.9 0-66.9-30-66.9-66.9v-7.2c0-4 3.3-7.3 7.3-7.3h7.2c36.9 0 66.9 30 66.9 66.9v7.2c0 4.1-3.3 7.3-7.3 7.3zM883.4 356.9h7.2c36.9 0 66.9-30 66.9-66.9v-7.2c0-4-3.3-7.3-7.3-7.3H943c-36.9 0-66.9 30-66.9 66.9v7.2c0 4.1 3.3 7.3 7.3 7.3z" class="st3"/><g><path d="M854.5 264.6h-7.2c-36.9 0-66.9-30-66.9-66.9v-7.2c0-4 3.3-7.3 7.3-7.3h7.2c36.9 0 66.9 30 66.9 66.9v7.2c-.1 4-3.3 7.3-7.3 7.3zM882.3 264.6h7.2c36.9 0 66.9-30 66.9-66.9v-7.2c0-4-3.3-7.3-7.3-7.3h-7.2c-36.9 0-66.9 30-66.9 66.9v7.2c0 4 3.2 7.3 7.3 7.3z" class="st3"/></g><g><path d="M854.5 179.5h-7.2c-36.9 0-66.9-30-66.9-66.9v-7.2c0-4 3.3-7.3 7.3-7.3h7.2c36.9 0 66.9 30 66.9 66.9v7.2c-.1 4-3.3 7.3-7.3 7.3zM882.3 179.5h7.2c36.9 0 66.9-30 66.9-66.9v-7.2c0-4-3.3-7.3-7.3-7.3h-7.2c-36.9 0-66.9 30-66.9 66.9v7.2c0 4 3.2 7.3 7.3 7.3z" class="st3"/></g><g><path d="M851.6 94.4h-7.2c-36.9 0-66.9-30-66.9-66.9v-7.2c0-4 3.3-7.3 7.3-7.3h7.2c36.9 0 66.9 30 66.9 66.9v7.2c0 4-3.2 7.3-7.3 7.3zM879.4 94.4h7.2c36.9 0 66.9-30 66.9-66.9v-7.2c0-4-3.3-7.3-7.3-7.3H939c-36.9 0-66.9 30-66.9 66.9v7.2c.1 4 3.3 7.3 7.3 7.3z" class="st3"/></g></g><g><path d="M1046.3 531.2h-7.2c-36.9 0-66.9-30-66.9-66.9v-7.2c0-4 3.3-7.3 7.3-7.3h7.2c36.9 0 66.9 30 66.9 66.9v7.2c0 4-3.3 7.3-7.3 7.3zM1074.1 531.2h7.2c36.9 0 66.9-30 66.9-66.9v-7.2c0-4-3.3-7.3-7.3-7.3h-7.2c-36.9 0-66.9 30-66.9 66.9v7.2c0 4 3.3 7.3 7.3 7.3zM1039.9 440.9h-7.2c-36.9 0-66.9-30-66.9-66.9v-7.2c0-4 3.3-7.3 7.3-7.3h7.2c36.9 0 66.9 30 66.9 66.9v7.2c0 4-3.3 7.3-7.3 7.3zM1067.7 440.9h7.2c36.9 0 66.9-30 66.9-66.9v-7.2c0-4-3.3-7.3-7.3-7.3h-7.2c-36.9 0-66.9 30-66.9 66.9v7.2c0 4 3.3 7.3 7.3 7.3zM1046.9 356.9h-7.2c-36.9 0-66.9-30-66.9-66.9v-7.2c0-4 3.3-7.3 7.3-7.3h7.2c36.9 0 66.9 30 66.9 66.9v7.2c0 4.1-3.3 7.3-7.3 7.3zM1074.7 356.9h7.2c36.9 0 66.9-30 66.9-66.9v-7.2c0-4-3.3-7.3-7.3-7.3h-7.2c-36.9 0-66.9 30-66.9 66.9v7.2c0 4.1 3.3 7.3 7.3 7.3z" class="st3"/><g><path d="M1045.7 264.6h-7.2c-36.9 0-66.9-30-66.9-66.9v-7.2c0-4 3.3-7.3 7.3-7.3h7.2c36.9 0 66.9 30 66.9 66.9v7.2c0 4-3.2 7.3-7.3 7.3zM1073.6 264.6h7.2c36.9 0 66.9-30 66.9-66.9v-7.2c0-4-3.3-7.3-7.3-7.3h-7.2c-36.9 0-66.9 30-66.9 66.9v7.2c0 4 3.2 7.3 7.3 7.3z" class="st3"/></g><g><path d="M1045.7 179.5h-7.2c-36.9 0-66.9-30-66.9-66.9v-7.2c0-4 3.3-7.3 7.3-7.3h7.2c36.9 0 66.9 30 66.9 66.9v7.2c0 4-3.2 7.3-7.3 7.3zM1073.6 179.5h7.2c36.9 0 66.9-30 66.9-66.9v-7.2c0-4-3.3-7.3-7.3-7.3h-7.2c-36.9 0-66.9 30-66.9 66.9v7.2c0 4 3.2 7.3 7.3 7.3z" class="st3"/></g><g><path d="M1042.9 94.4h-7.2c-36.9 0-66.9-30-66.9-66.9v-7.2c0-4 3.3-7.3 7.3-7.3h7.2c36.9 0 66.9 30 66.9 66.9v7.2c0 4-3.3 7.3-7.3 7.3zM1070.7 94.4h7.2c36.9 0 66.9-30 66.9-66.9v-7.2c0-4-3.3-7.3-7.3-7.3h-7.2c-36.9 0-66.9 30-66.9 66.9v7.2c0 4 3.3 7.3 7.3 7.3z" class="st3"/></g></g><g><path d="M1620.2 531.2h-7.2c-36.9 0-66.9-30-66.9-66.9v-7.2c0-4 3.3-7.3 7.3-7.3h7.2c36.9 0 66.9 30 66.9 66.9v7.2c0 4-3.3 7.3-7.3 7.3zM1648 531.2h7.2c36.9 0 66.9-30 66.9-66.9v-7.2c0-4-3.3-7.3-7.3-7.3h-7.2c-36.9 0-66.9 30-66.9 66.9v7.2c0 4 3.3 7.3 7.3 7.3zM1613.7 440.9h-7.2c-36.9 0-66.9-30-66.9-66.9v-7.2c0-4 3.3-7.3 7.3-7.3h7.2c36.9 0 66.9 30 66.9 66.9v7.2c0 4-3.2 7.3-7.3 7.3zM1641.6 440.9h7.2c36.9 0 66.9-30 66.9-66.9v-7.2c0-4-3.3-7.3-7.3-7.3h-7.2c-36.9 0-66.9 30-66.9 66.9v7.2c0 4 3.2 7.3 7.3 7.3zM1620.8 356.9h-7.2c-36.9 0-66.9-30-66.9-66.9v-7.2c0-4 3.3-7.3 7.3-7.3h7.2c36.9 0 66.9 30 66.9 66.9v7.2c0 4.1-3.3 7.3-7.3 7.3zM1648.6 356.9h7.2c36.9 0 66.9-30 66.9-66.9v-7.2c0-4-3.3-7.3-7.3-7.3h-7.2c-36.9 0-66.9 30-66.9 66.9v7.2c0 4.1 3.3 7.3 7.3 7.3z" class="st3"/><g><path d="M1619.6 264.6h-7.2c-36.9 0-66.9-30-66.9-66.9v-7.2c0-4 3.3-7.3 7.3-7.3h7.2c36.9 0 66.9 30 66.9 66.9v7.2c0 4-3.3 7.3-7.3 7.3zM1647.4 264.6h7.2c36.9 0 66.9-30 66.9-66.9v-7.2c0-4-3.3-7.3-7.3-7.3h-7.2c-36.9 0-66.9 30-66.9 66.9v7.2c0 4 3.3 7.3 7.3 7.3z" class="st3"/></g><g><path d="M1619.6 179.5h-7.2c-36.9 0-66.9-30-66.9-66.9v-7.2c0-4 3.3-7.3 7.3-7.3h7.2c36.9 0 66.9 30 66.9 66.9v7.2c0 4-3.3 7.3-7.3 7.3zM1647.4 179.5h7.2c36.9 0 66.9-30 66.9-66.9v-7.2c0-4-3.3-7.3-7.3-7.3h-7.2c-36.9 0-66.9 30-66.9 66.9v7.2c0 4 3.3 7.3 7.3 7.3z" class="st3"/></g><g><path d="M1616.8 94.4h-7.2c-36.9 0-66.9-30-66.9-66.9v-7.2c0-4 3.3-7.3 7.3-7.3h7.2c36.9 0 66.9 30 66.9 66.9v7.2c0 4-3.3 7.3-7.3 7.3zM1644.6 94.4h7.2c36.9 0 66.9-30 66.9-66.9v-7.2c0-4-3.3-7.3-7.3-7.3h-7.2c-36.9 0-66.9 30-66.9 66.9v7.2c0 4 3.3 7.3 7.3 7.3z" class="st3"/></g></g><g><path d="M1811.5 531.2h-7.2c-36.9 0-66.9-30-66.9-66.9v-7.2c0-4 3.3-7.3 7.3-7.3h7.2c36.9 0 66.9 30 66.9 66.9v7.2c-.1 4-3.3 7.3-7.3 7.3zM1839.3 531.2h7.2c36.9 0 66.9-30 66.9-66.9v-7.2c0-4-3.3-7.3-7.3-7.3h-7.2c-36.9 0-66.9 30-66.9 66.9v7.2c0 4 3.2 7.3 7.3 7.3zM1805 440.9h-7.2c-36.9 0-66.9-30-66.9-66.9v-7.2c0-4 3.3-7.3 7.3-7.3h7.2c36.9 0 66.9 30 66.9 66.9v7.2c0 4-3.2 7.3-7.3 7.3zM1832.9 440.9h7.2c36.9 0 66.9-30 66.9-66.9v-7.2c0-4-3.3-7.3-7.3-7.3h-7.2c-36.9 0-66.9 30-66.9 66.9v7.2c0 4 3.2 7.3 7.3 7.3zM1812.1 356.9h-7.2c-36.9 0-66.9-30-66.9-66.9v-7.2c0-4 3.3-7.3 7.3-7.3h7.2c36.9 0 66.9 30 66.9 66.9v7.2c-.1 4.1-3.3 7.3-7.3 7.3zM1839.9 356.9h7.2c36.9 0 66.9-30 66.9-66.9v-7.2c0-4-3.3-7.3-7.3-7.3h-7.2c-36.9 0-66.9 30-66.9 66.9v7.2c0 4.1 3.3 7.3 7.3 7.3z" class="st3"/><g><path d="M1810.9 264.6h-7.2c-36.9 0-66.9-30-66.9-66.9v-7.2c0-4 3.3-7.3 7.3-7.3h7.2c36.9 0 66.9 30 66.9 66.9v7.2c0 4-3.3 7.3-7.3 7.3zM1838.7 264.6h7.2c36.9 0 66.9-30 66.9-66.9v-7.2c0-4-3.3-7.3-7.3-7.3h-7.2c-36.9 0-66.9 30-66.9 66.9v7.2c0 4 3.3 7.3 7.3 7.3z" class="st3"/></g><g><path d="M1810.9 179.5h-7.2c-36.9 0-66.9-30-66.9-66.9v-7.2c0-4 3.3-7.3 7.3-7.3h7.2c36.9 0 66.9 30 66.9 66.9v7.2c0 4-3.3 7.3-7.3 7.3zM1838.7 179.5h7.2c36.9 0 66.9-30 66.9-66.9v-7.2c0-4-3.3-7.3-7.3-7.3h-7.2c-36.9 0-66.9 30-66.9 66.9v7.2c0 4 3.3 7.3 7.3 7.3z" class="st3"/></g><g><path d="M1808.1 94.4h-7.2c-36.9 0-66.9-30-66.9-66.9v-7.2c0-4 3.3-7.3 7.3-7.3h7.2c36.9 0 66.9 30 66.9 66.9v7.2c0 4-3.3 7.3-7.3 7.3zM1835.9 94.4h7.2c36.9 0 66.9-30 66.9-66.9v-7.2c0-4-3.3-7.3-7.3-7.3h-7.2c-36.9 0-66.9 30-66.9 66.9v7.2c0 4 3.3 7.3 7.3 7.3z" class="st3"/></g></g><g><path d="M1237.6 531.2h-7.2c-36.9 0-66.9-30-66.9-66.9v-7.2c0-4 3.3-7.3 7.3-7.3h7.2c36.9 0 66.9 30 66.9 66.9v7.2c0 4-3.3 7.3-7.3 7.3zM1265.4 531.2h7.2c36.9 0 66.9-30 66.9-66.9v-7.2c0-4-3.3-7.3-7.3-7.3h-7.2c-36.9 0-66.9 30-66.9 66.9v7.2c0 4 3.3 7.3 7.3 7.3zM1231.2 440.9h-7.2c-36.9 0-66.9-30-66.9-66.9v-7.2c0-4 3.3-7.3 7.3-7.3h7.2c36.9 0 66.9 30 66.9 66.9v7.2c0 4-3.3 7.3-7.3 7.3zM1259 440.9h7.2c36.9 0 66.9-30 66.9-66.9v-7.2c0-4-3.3-7.3-7.3-7.3h-7.2c-36.9 0-66.9 30-66.9 66.9v7.2c0 4 3.3 7.3 7.3 7.3zM1238.2 356.9h-7.2c-36.9 0-66.9-30-66.9-66.9v-7.2c0-4 3.3-7.3 7.3-7.3h7.2c36.9 0 66.9 30 66.9 66.9v7.2c0 4.1-3.3 7.3-7.3 7.3zM1266 356.9h7.2c36.9 0 66.9-30 66.9-66.9v-7.2c0-4-3.3-7.3-7.3-7.3h-7.2c-36.9 0-66.9 30-66.9 66.9v7.2c0 4.1 3.3 7.3 7.3 7.3z" class="st3"/><g><path d="M1237 264.6h-7.2c-36.9 0-66.9-30-66.9-66.9v-7.2c0-4 3.3-7.3 7.3-7.3h7.2c36.9 0 66.9 30 66.9 66.9v7.2c0 4-3.2 7.3-7.3 7.3zM1264.9 264.6h7.2c36.9 0 66.9-30 66.9-66.9v-7.2c0-4-3.3-7.3-7.3-7.3h-7.2c-36.9 0-66.9 30-66.9 66.9v7.2c0 4 3.2 7.3 7.3 7.3z" class="st3"/></g><g><path d="M1237 179.5h-7.2c-36.9 0-66.9-30-66.9-66.9v-7.2c0-4 3.3-7.3 7.3-7.3h7.2c36.9 0 66.9 30 66.9 66.9v7.2c0 4-3.2 7.3-7.3 7.3zM1264.9 179.5h7.2c36.9 0 66.9-30 66.9-66.9v-7.2c0-4-3.3-7.3-7.3-7.3h-7.2c-36.9 0-66.9 30-66.9 66.9v7.2c0 4 3.2 7.3 7.3 7.3z" class="st3"/></g><g><path d="M1234.2 94.4h-7.2c-36.9 0-66.9-30-66.9-66.9v-7.2c0-4 3.3-7.3 7.3-7.3h7.2c36.9 0 66.9 30 66.9 66.9v7.2c0 4-3.3 7.3-7.3 7.3zM1262 94.4h7.2c36.9 0 66.9-30 66.9-66.9v-7.2c0-4-3.3-7.3-7.3-7.3h-7.2c-36.9 0-66.9 30-66.9 66.9v7.2c0 4 3.3 7.3 7.3 7.3z" class="st3"/></g></g><g><path d="M1428.9 531.2h-7.2c-36.9 0-66.9-30-66.9-66.9v-7.2c0-4 3.3-7.3 7.3-7.3h7.2c36.9 0 66.9 30 66.9 66.9v7.2c0 4-3.3 7.3-7.3 7.3zM1456.7 531.2h7.2c36.9 0 66.9-30 66.9-66.9v-7.2c0-4-3.3-7.3-7.3-7.3h-7.2c-36.9 0-66.9 30-66.9 66.9v7.2c0 4 3.3 7.3 7.3 7.3zM1422.5 440.9h-7.2c-36.9 0-66.9-30-66.9-66.9v-7.2c0-4 3.3-7.3 7.3-7.3h7.2c36.9 0 66.9 30 66.9 66.9v7.2c-.1 4-3.3 7.3-7.3 7.3zM1450.3 440.9h7.2c36.9 0 66.9-30 66.9-66.9v-7.2c0-4-3.3-7.3-7.3-7.3h-7.2c-36.9 0-66.9 30-66.9 66.9v7.2c0 4 3.3 7.3 7.3 7.3zM1429.5 356.9h-7.2c-36.9 0-66.9-30-66.9-66.9v-7.2c0-4 3.3-7.3 7.3-7.3h7.2c36.9 0 66.9 30 66.9 66.9v7.2c0 4.1-3.3 7.3-7.3 7.3zM1457.3 356.9h7.2c36.9 0 66.9-30 66.9-66.9v-7.2c0-4-3.3-7.3-7.3-7.3h-7.2c-36.9 0-66.9 30-66.9 66.9v7.2c0 4.1 3.3 7.3 7.3 7.3z" class="st3"/><g><path d="M1428.3 264.6h-7.2c-36.9 0-66.9-30-66.9-66.9v-7.2c0-4 3.3-7.3 7.3-7.3h7.2c36.9 0 66.9 30 66.9 66.9v7.2c0 4-3.2 7.3-7.3 7.3zM1456.1 264.6h7.2c36.9 0 66.9-30 66.9-66.9v-7.2c0-4-3.3-7.3-7.3-7.3h-7.2c-36.9 0-66.9 30-66.9 66.9v7.2c.1 4 3.3 7.3 7.3 7.3z" class="st3"/></g><g><path d="M1428.3 179.5h-7.2c-36.9 0-66.9-30-66.9-66.9v-7.2c0-4 3.3-7.3 7.3-7.3h7.2c36.9 0 66.9 30 66.9 66.9v7.2c0 4-3.2 7.3-7.3 7.3zM1456.1 179.5h7.2c36.9 0 66.9-30 66.9-66.9v-7.2c0-4-3.3-7.3-7.3-7.3h-7.2c-36.9 0-66.9 30-66.9 66.9v7.2c.1 4 3.3 7.3 7.3 7.3z" class="st3"/></g><g><path d="M1425.5 94.4h-7.2c-36.9 0-66.9-30-66.9-66.9v-7.2c0-4 3.3-7.3 7.3-7.3h7.2c36.9 0 66.9 30 66.9 66.9v7.2c0 4-3.3 7.3-7.3 7.3zM1453.3 94.4h7.2c36.9 0 66.9-30 66.9-66.9v-7.2c0-4-3.3-7.3-7.3-7.3h-7.2c-36.9 0-66.9 30-66.9 66.9v7.2c0 4 3.3 7.3 7.3 7.3z" class="st3"/></g></g><g><path d="M82 1067.7h-7.2c-36.9 0-66.9-30-66.9-66.9v-7.2c0-4 3.3-7.3 7.3-7.3h7.2c36.9 0 66.9 30 66.9 66.9v7.2c0 4.1-3.3 7.3-7.3 7.3zM109.8 1067.7h7.2c36.9 0 66.9-30 66.9-66.9v-7.2c0-4-3.3-7.3-7.3-7.3h-7.2c-36.9 0-66.9 30-66.9 66.9v7.2c0 4.1 3.3 7.3 7.3 7.3zM75.6 977.4h-7.2c-36.9 0-66.9-30-66.9-66.9v-7.2c0-4 3.3-7.3 7.3-7.3H16c36.9 0 66.9 30 66.9 66.9v7.2c0 4-3.3 7.3-7.3 7.3zM103.4 977.4h7.2c36.9 0 66.9-30 66.9-66.9v-7.2c0-4-3.3-7.3-7.3-7.3H163c-36.9 0-66.9 30-66.9 66.9v7.2c0 4 3.3 7.3 7.3 7.3zM82.6 893.5h-7.2c-36.9 0-66.9-30-66.9-66.9v-7.2c0-4 3.3-7.3 7.3-7.3H23c36.9 0 66.9 30 66.9 66.9v7.2c0 4-3.3 7.3-7.3 7.3zM110.4 893.5h7.2c36.9 0 66.9-30 66.9-66.9v-7.2c0-4-3.3-7.3-7.3-7.3H170c-36.9 0-66.9 30-66.9 66.9v7.2c0 4 3.3 7.3 7.3 7.3z" class="st4"/><g><path d="M81.4 801.1h-7.2c-36.9 0-66.9-30-66.9-66.9V727c0-4 3.3-7.3 7.3-7.3h7.2c36.9 0 66.9 30 66.9 66.9v7.2c0 4.1-3.2 7.3-7.3 7.3zM109.3 801.1h7.2c36.9 0 66.9-30 66.9-66.9V727c0-4-3.3-7.3-7.3-7.3h-7.2c-36.9 0-66.9 30-66.9 66.9v7.2c0 4.1 3.2 7.3 7.3 7.3z" class="st4"/></g><g><path d="M81.4 716h-7.2c-36.9 0-66.9-30-66.9-66.9v-7.2c0-4 3.3-7.3 7.3-7.3h7.2c36.9 0 66.9 30 66.9 66.9v7.2c0 4.1-3.2 7.3-7.3 7.3zM109.3 716h7.2c36.9 0 66.9-30 66.9-66.9v-7.2c0-4-3.3-7.3-7.3-7.3h-7.2c-36.9 0-66.9 30-66.9 66.9v7.2c0 4.1 3.2 7.3 7.3 7.3z" class="st4"/></g><g><path d="M78.6 630.9h-7.2c-36.9 0-66.9-30-66.9-66.9v-7.2c0-4 3.3-7.3 7.3-7.3H19c36.9 0 66.9 30 66.9 66.9v7.2c0 4.1-3.3 7.3-7.3 7.3zM106.4 630.9h7.2c36.9 0 66.9-30 66.9-66.9v-7.2c0-4-3.3-7.3-7.3-7.3H166c-36.9 0-66.9 30-66.9 66.9v7.2c0 4.1 3.3 7.3 7.3 7.3z" class="st4"/></g></g><g><path d="M273.3 1067.7h-7.2c-36.9 0-66.9-30-66.9-66.9v-7.2c0-4 3.3-7.3 7.3-7.3h7.2c36.9 0 66.9 30 66.9 66.9v7.2c0 4.1-3.3 7.3-7.3 7.3zM301.1 1067.7h7.2c36.9 0 66.9-30 66.9-66.9v-7.2c0-4-3.3-7.3-7.3-7.3h-7.2c-36.9 0-66.9 30-66.9 66.9v7.2c0 4.1 3.3 7.3 7.3 7.3zM266.9 977.4h-7.2c-36.9 0-66.9-30-66.9-66.9v-7.2c0-4 3.3-7.3 7.3-7.3h7.2c36.9 0 66.9 30 66.9 66.9v7.2c0 4-3.3 7.3-7.3 7.3zM294.7 977.4h7.2c36.9 0 66.9-30 66.9-66.9v-7.2c0-4-3.3-7.3-7.3-7.3h-7.2c-36.9 0-66.9 30-66.9 66.9v7.2c0 4 3.3 7.3 7.3 7.3zM273.9 893.5h-7.2c-36.9 0-66.9-30-66.9-66.9v-7.2c0-4 3.3-7.3 7.3-7.3h7.2c36.9 0 66.9 30 66.9 66.9v7.2c0 4-3.3 7.3-7.3 7.3zM301.7 893.5h7.2c36.9 0 66.9-30 66.9-66.9v-7.2c0-4-3.3-7.3-7.3-7.3h-7.2c-36.9 0-66.9 30-66.9 66.9v7.2c0 4 3.3 7.3 7.3 7.3z" class="st4"/><g><path d="M272.7 801.1h-7.2c-36.9 0-66.9-30-66.9-66.9V727c0-4 3.3-7.3 7.3-7.3h7.2c36.9 0 66.9 30 66.9 66.9v7.2c0 4.1-3.2 7.3-7.3 7.3zM300.6 801.1h7.2c36.9 0 66.9-30 66.9-66.9V727c0-4-3.3-7.3-7.3-7.3h-7.2c-36.9 0-66.9 30-66.9 66.9v7.2c0 4.1 3.2 7.3 7.3 7.3z" class="st4"/></g><g><path d="M272.7 716h-7.2c-36.9 0-66.9-30-66.9-66.9v-7.2c0-4 3.3-7.3 7.3-7.3h7.2c36.9 0 66.9 30 66.9 66.9v7.2c0 4.1-3.2 7.3-7.3 7.3zM300.6 716h7.2c36.9 0 66.9-30 66.9-66.9v-7.2c0-4-3.3-7.3-7.3-7.3h-7.2c-36.9 0-66.9 30-66.9 66.9v7.2c0 4.1 3.2 7.3 7.3 7.3z" class="st4"/></g><g><path d="M269.9 630.9h-7.2c-36.9 0-66.9-30-66.9-66.9v-7.2c0-4 3.3-7.3 7.3-7.3h7.2c36.9 0 66.9 30 66.9 66.9v7.2c0 4.1-3.3 7.3-7.3 7.3zM297.7 630.9h7.2c36.9 0 66.9-30 66.9-66.9v-7.2c0-4-3.3-7.3-7.3-7.3h-7.2c-36.9 0-66.9 30-66.9 66.9v7.2c0 4.1 3.3 7.3 7.3 7.3z" class="st4"/></g></g><g><path d="M464.6 1067.7h-7.2c-36.9 0-66.9-30-66.9-66.9v-7.2c0-4 3.3-7.3 7.3-7.3h7.2c36.9 0 66.9 30 66.9 66.9v7.2c0 4.1-3.3 7.3-7.3 7.3zM492.4 1067.7h7.2c36.9 0 66.9-30 66.9-66.9v-7.2c0-4-3.3-7.3-7.3-7.3H552c-36.9 0-66.9 30-66.9 66.9v7.2c0 4.1 3.3 7.3 7.3 7.3zM458.2 977.4H451c-36.9 0-66.9-30-66.9-66.9v-7.2c0-4 3.3-7.3 7.3-7.3h7.2c36.9 0 66.9 30 66.9 66.9v7.2c-.1 4-3.3 7.3-7.3 7.3zM486 977.4h7.2c36.9 0 66.9-30 66.9-66.9v-7.2c0-4-3.3-7.3-7.3-7.3h-7.2c-36.9 0-66.9 30-66.9 66.9v7.2c0 4 3.2 7.3 7.3 7.3zM465.2 893.5H458c-36.9 0-66.9-30-66.9-66.9v-7.2c0-4 3.3-7.3 7.3-7.3h7.2c36.9 0 66.9 30 66.9 66.9v7.2c0 4-3.3 7.3-7.3 7.3zM493 893.5h7.2c36.9 0 66.9-30 66.9-66.9v-7.2c0-4-3.3-7.3-7.3-7.3h-7.2c-36.9 0-66.9 30-66.9 66.9v7.2c0 4 3.3 7.3 7.3 7.3z" class="st4"/><g><path d="M464 801.1h-7.2c-36.9 0-66.9-30-66.9-66.9V727c0-4 3.3-7.3 7.3-7.3h7.2c36.9 0 66.9 30 66.9 66.9v7.2c0 4.1-3.3 7.3-7.3 7.3zM491.8 801.1h7.2c36.9 0 66.9-30 66.9-66.9V727c0-4-3.3-7.3-7.3-7.3h-7.2c-36.9 0-66.9 30-66.9 66.9v7.2c.1 4.1 3.3 7.3 7.3 7.3z" class="st4"/></g><g><path d="M464 716h-7.2c-36.9 0-66.9-30-66.9-66.9v-7.2c0-4 3.3-7.3 7.3-7.3h7.2c36.9 0 66.9 30 66.9 66.9v7.2c0 4.1-3.3 7.3-7.3 7.3zM491.8 716h7.2c36.9 0 66.9-30 66.9-66.9v-7.2c0-4-3.3-7.3-7.3-7.3h-7.2c-36.9 0-66.9 30-66.9 66.9v7.2c.1 4.1 3.3 7.3 7.3 7.3z" class="st4"/></g><g><path d="M461.2 630.9H454c-36.9 0-66.9-30-66.9-66.9v-7.2c0-4 3.3-7.3 7.3-7.3h7.2c36.9 0 66.9 30 66.9 66.9v7.2c0 4.1-3.3 7.3-7.3 7.3zM489 630.9h7.2c36.9 0 66.9-30 66.9-66.9v-7.2c0-4-3.3-7.3-7.3-7.3h-7.2c-36.9 0-66.9 30-66.9 66.9v7.2c0 4.1 3.3 7.3 7.3 7.3z" class="st4"/></g></g><g><path d="M655.9 1067.7h-7.2c-36.9 0-66.9-30-66.9-66.9v-7.2c0-4 3.3-7.3 7.3-7.3h7.2c36.9 0 66.9 30 66.9 66.9v7.2c-.1 4.1-3.3 7.3-7.3 7.3zM683.7 1067.7h7.2c36.9 0 66.9-30 66.9-66.9v-7.2c0-4-3.3-7.3-7.3-7.3h-7.2c-36.9 0-66.9 30-66.9 66.9v7.2c0 4.1 3.3 7.3 7.3 7.3zM649.4 977.4h-7.2c-36.9 0-66.9-30-66.9-66.9v-7.2c0-4 3.3-7.3 7.3-7.3h7.2c36.9 0 66.9 30 66.9 66.9v7.2c0 4-3.2 7.3-7.3 7.3zM677.3 977.4h7.2c36.9 0 66.9-30 66.9-66.9v-7.2c0-4-3.3-7.3-7.3-7.3h-7.2c-36.9 0-66.9 30-66.9 66.9v7.2c0 4 3.2 7.3 7.3 7.3zM656.5 893.5h-7.2c-36.9 0-66.9-30-66.9-66.9v-7.2c0-4 3.3-7.3 7.3-7.3h7.2c36.9 0 66.9 30 66.9 66.9v7.2c0 4-3.3 7.3-7.3 7.3zM684.3 893.5h7.2c36.9 0 66.9-30 66.9-66.9v-7.2c0-4-3.3-7.3-7.3-7.3h-7.2c-36.9 0-66.9 30-66.9 66.9v7.2c0 4 3.3 7.3 7.3 7.3z" class="st4"/><g><path d="M655.3 801.1h-7.2c-36.9 0-66.9-30-66.9-66.9V727c0-4 3.3-7.3 7.3-7.3h7.2c36.9 0 66.9 30 66.9 66.9v7.2c0 4.1-3.3 7.3-7.3 7.3zM683.1 801.1h7.2c36.9 0 66.9-30 66.9-66.9V727c0-4-3.3-7.3-7.3-7.3h-7.2c-36.9 0-66.9 30-66.9 66.9v7.2c0 4.1 3.3 7.3 7.3 7.3z" class="st4"/></g><g><path d="M655.3 716h-7.2c-36.9 0-66.9-30-66.9-66.9v-7.2c0-4 3.3-7.3 7.3-7.3h7.2c36.9 0 66.9 30 66.9 66.9v7.2c0 4.1-3.3 7.3-7.3 7.3zM683.1 716h7.2c36.9 0 66.9-30 66.9-66.9v-7.2c0-4-3.3-7.3-7.3-7.3h-7.2c-36.9 0-66.9 30-66.9 66.9v7.2c0 4.1 3.3 7.3 7.3 7.3z" class="st4"/></g><g><path d="M652.5 630.9h-7.2c-36.9 0-66.9-30-66.9-66.9v-7.2c0-4 3.3-7.3 7.3-7.3h7.2c36.9 0 66.9 30 66.9 66.9v7.2c0 4.1-3.3 7.3-7.3 7.3zM680.3 630.9h7.2c36.9 0 66.9-30 66.9-66.9v-7.2c0-4-3.3-7.3-7.3-7.3h-7.2c-36.9 0-66.9 30-66.9 66.9v7.2c0 4.1 3.3 7.3 7.3 7.3z" class="st4"/></g></g><g><path d="M847.2 1067.7H840c-36.9 0-66.9-30-66.9-66.9v-7.2c0-4 3.3-7.3 7.3-7.3h7.2c36.9 0 66.9 30 66.9 66.9v7.2c-.1 4.1-3.3 7.3-7.3 7.3zM875 1067.7h7.2c36.9 0 66.9-30 66.9-66.9v-7.2c0-4-3.3-7.3-7.3-7.3h-7.2c-36.9 0-66.9 30-66.9 66.9v7.2c0 4.1 3.2 7.3 7.3 7.3zM840.7 977.4h-7.2c-36.9 0-66.9-30-66.9-66.9v-7.2c0-4 3.3-7.3 7.3-7.3h7.2c36.9 0 66.9 30 66.9 66.9v7.2c0 4-3.2 7.3-7.3 7.3zM868.6 977.4h7.2c36.9 0 66.9-30 66.9-66.9v-7.2c0-4-3.3-7.3-7.3-7.3h-7.2c-36.9 0-66.9 30-66.9 66.9v7.2c0 4 3.2 7.3 7.3 7.3zM847.8 893.5h-7.2c-36.9 0-66.9-30-66.9-66.9v-7.2c0-4 3.3-7.3 7.3-7.3h7.2c36.9 0 66.9 30 66.9 66.9v7.2c-.1 4-3.3 7.3-7.3 7.3zM875.6 893.5h7.2c36.9 0 66.9-30 66.9-66.9v-7.2c0-4-3.3-7.3-7.3-7.3h-7.2c-36.9 0-66.9 30-66.9 66.9v7.2c0 4 3.3 7.3 7.3 7.3z" class="st4"/><g><path d="M846.6 801.1h-7.2c-36.9 0-66.9-30-66.9-66.9V727c0-4 3.3-7.3 7.3-7.3h7.2c36.9 0 66.9 30 66.9 66.9v7.2c0 4.1-3.3 7.3-7.3 7.3zM874.4 801.1h7.2c36.9 0 66.9-30 66.9-66.9V727c0-4-3.3-7.3-7.3-7.3H934c-36.9 0-66.9 30-66.9 66.9v7.2c0 4.1 3.3 7.3 7.3 7.3z" class="st4"/></g><g><path d="M846.6 716h-7.2c-36.9 0-66.9-30-66.9-66.9v-7.2c0-4 3.3-7.3 7.3-7.3h7.2c36.9 0 66.9 30 66.9 66.9v7.2c0 4.1-3.3 7.3-7.3 7.3zM874.4 716h7.2c36.9 0 66.9-30 66.9-66.9v-7.2c0-4-3.3-7.3-7.3-7.3H934c-36.9 0-66.9 30-66.9 66.9v7.2c0 4.1 3.3 7.3 7.3 7.3z" class="st4"/></g><g><path d="M843.8 630.9h-7.2c-36.9 0-66.9-30-66.9-66.9v-7.2c0-4 3.3-7.3 7.3-7.3h7.2c36.9 0 66.9 30 66.9 66.9v7.2c0 4.1-3.3 7.3-7.3 7.3zM871.6 630.9h7.2c36.9 0 66.9-30 66.9-66.9v-7.2c0-4-3.3-7.3-7.3-7.3h-7.2c-36.9 0-66.9 30-66.9 66.9v7.2c0 4.1 3.3 7.3 7.3 7.3z" class="st4"/></g></g><g><path d="M1038.4 1067.7h-7.2c-36.9 0-66.9-30-66.9-66.9v-7.2c0-4 3.3-7.3 7.3-7.3h7.2c36.9 0 66.9 30 66.9 66.9v7.2c0 4.1-3.2 7.3-7.3 7.3zM1066.3 1067.7h7.2c36.9 0 66.9-30 66.9-66.9v-7.2c0-4-3.3-7.3-7.3-7.3h-7.2c-36.9 0-66.9 30-66.9 66.9v7.2c0 4.1 3.2 7.3 7.3 7.3zM1032 977.4h-7.2c-36.9 0-66.9-30-66.9-66.9v-7.2c0-4 3.3-7.3 7.3-7.3h7.2c36.9 0 66.9 30 66.9 66.9v7.2c0 4-3.2 7.3-7.3 7.3zM1059.8 977.4h7.2c36.9 0 66.9-30 66.9-66.9v-7.2c0-4-3.3-7.3-7.3-7.3h-7.2c-36.9 0-66.9 30-66.9 66.9v7.2c.1 4 3.3 7.3 7.3 7.3zM1039 893.5h-7.2c-36.9 0-66.9-30-66.9-66.9v-7.2c0-4 3.3-7.3 7.3-7.3h7.2c36.9 0 66.9 30 66.9 66.9v7.2c0 4-3.2 7.3-7.3 7.3zM1066.9 893.5h7.2c36.9 0 66.9-30 66.9-66.9v-7.2c0-4-3.3-7.3-7.3-7.3h-7.2c-36.9 0-66.9 30-66.9 66.9v7.2c0 4 3.2 7.3 7.3 7.3z" class="st4"/><g><path d="M1037.9 801.1h-7.2c-36.9 0-66.9-30-66.9-66.9V727c0-4 3.3-7.3 7.3-7.3h7.2c36.9 0 66.9 30 66.9 66.9v7.2c0 4.1-3.3 7.3-7.3 7.3zM1065.7 801.1h7.2c36.9 0 66.9-30 66.9-66.9V727c0-4-3.3-7.3-7.3-7.3h-7.2c-36.9 0-66.9 30-66.9 66.9v7.2c0 4.1 3.3 7.3 7.3 7.3z" class="st4"/></g><g><path d="M1037.9 716h-7.2c-36.9 0-66.9-30-66.9-66.9v-7.2c0-4 3.3-7.3 7.3-7.3h7.2c36.9 0 66.9 30 66.9 66.9v7.2c0 4.1-3.3 7.3-7.3 7.3zM1065.7 716h7.2c36.9 0 66.9-30 66.9-66.9v-7.2c0-4-3.3-7.3-7.3-7.3h-7.2c-36.9 0-66.9 30-66.9 66.9v7.2c0 4.1 3.3 7.3 7.3 7.3z" class="st4"/></g><g><path d="M1035.1 630.9h-7.2c-36.9 0-66.9-30-66.9-66.9v-7.2c0-4 3.3-7.3 7.3-7.3h7.2c36.9 0 66.9 30 66.9 66.9v7.2c0 4.1-3.3 7.3-7.3 7.3zM1062.9 630.9h7.2c36.9 0 66.9-30 66.9-66.9v-7.2c0-4-3.3-7.3-7.3-7.3h-7.2c-36.9 0-66.9 30-66.9 66.9v7.2c0 4.1 3.3 7.3 7.3 7.3z" class="st4"/></g></g><g><path d="M1612.3 1067.7h-7.2c-36.9 0-66.9-30-66.9-66.9v-7.2c0-4 3.3-7.3 7.3-7.3h7.2c36.9 0 66.9 30 66.9 66.9v7.2c0 4.1-3.3 7.3-7.3 7.3zM1640.1 1067.7h7.2c36.9 0 66.9-30 66.9-66.9v-7.2c0-4-3.3-7.3-7.3-7.3h-7.2c-36.9 0-66.9 30-66.9 66.9v7.2c0 4.1 3.3 7.3 7.3 7.3zM1605.9 977.4h-7.2c-36.9 0-66.9-30-66.9-66.9v-7.2c0-4 3.3-7.3 7.3-7.3h7.2c36.9 0 66.9 30 66.9 66.9v7.2c0 4-3.3 7.3-7.3 7.3zM1633.7 977.4h7.2c36.9 0 66.9-30 66.9-66.9v-7.2c0-4-3.3-7.3-7.3-7.3h-7.2c-36.9 0-66.9 30-66.9 66.9v7.2c0 4 3.3 7.3 7.3 7.3zM1612.9 893.5h-7.2c-36.9 0-66.9-30-66.9-66.9v-7.2c0-4 3.3-7.3 7.3-7.3h7.2c36.9 0 66.9 30 66.9 66.9v7.2c0 4-3.3 7.3-7.3 7.3zM1640.7 893.5h7.2c36.9 0 66.9-30 66.9-66.9v-7.2c0-4-3.3-7.3-7.3-7.3h-7.2c-36.9 0-66.9 30-66.9 66.9v7.2c0 4 3.3 7.3 7.3 7.3z" class="st4"/><g><path d="M1611.8 801.1h-7.2c-36.9 0-66.9-30-66.9-66.9V727c0-4 3.3-7.3 7.3-7.3h7.2c36.9 0 66.9 30 66.9 66.9v7.2c0 4.1-3.3 7.3-7.3 7.3zM1639.6 801.1h7.2c36.9 0 66.9-30 66.9-66.9V727c0-4-3.3-7.3-7.3-7.3h-7.2c-36.9 0-66.9 30-66.9 66.9v7.2c0 4.1 3.3 7.3 7.3 7.3z" class="st4"/></g><g><path d="M1611.8 716h-7.2c-36.9 0-66.9-30-66.9-66.9v-7.2c0-4 3.3-7.3 7.3-7.3h7.2c36.9 0 66.9 30 66.9 66.9v7.2c0 4.1-3.3 7.3-7.3 7.3zM1639.6 716h7.2c36.9 0 66.9-30 66.9-66.9v-7.2c0-4-3.3-7.3-7.3-7.3h-7.2c-36.9 0-66.9 30-66.9 66.9v7.2c0 4.1 3.3 7.3 7.3 7.3z" class="st4"/></g><g><path d="M1608.9 630.9h-7.2c-36.9 0-66.9-30-66.9-66.9v-7.2c0-4 3.3-7.3 7.3-7.3h7.2c36.9 0 66.9 30 66.9 66.9v7.2c0 4.1-3.2 7.3-7.3 7.3zM1636.8 630.9h7.2c36.9 0 66.9-30 66.9-66.9v-7.2c0-4-3.3-7.3-7.3-7.3h-7.2c-36.9 0-66.9 30-66.9 66.9v7.2c0 4.1 3.2 7.3 7.3 7.3z" class="st4"/></g></g><g><path d="M1803.6 1067.7h-7.2c-36.9 0-66.9-30-66.9-66.9v-7.2c0-4 3.3-7.3 7.3-7.3h7.2c36.9 0 66.9 30 66.9 66.9v7.2c0 4.1-3.3 7.3-7.3 7.3zM1831.4 1067.7h7.2c36.9 0 66.9-30 66.9-66.9v-7.2c0-4-3.3-7.3-7.3-7.3h-7.2c-36.9 0-66.9 30-66.9 66.9v7.2c0 4.1 3.3 7.3 7.3 7.3zM1797.2 977.4h-7.2c-36.9 0-66.9-30-66.9-66.9v-7.2c0-4 3.3-7.3 7.3-7.3h7.2c36.9 0 66.9 30 66.9 66.9v7.2c0 4-3.3 7.3-7.3 7.3zM1825 977.4h7.2c36.9 0 66.9-30 66.9-66.9v-7.2c0-4-3.3-7.3-7.3-7.3h-7.2c-36.9 0-66.9 30-66.9 66.9v7.2c0 4 3.3 7.3 7.3 7.3zM1804.2 893.5h-7.2c-36.9 0-66.9-30-66.9-66.9v-7.2c0-4 3.3-7.3 7.3-7.3h7.2c36.9 0 66.9 30 66.9 66.9v7.2c0 4-3.3 7.3-7.3 7.3zM1832 893.5h7.2c36.9 0 66.9-30 66.9-66.9v-7.2c0-4-3.3-7.3-7.3-7.3h-7.2c-36.9 0-66.9 30-66.9 66.9v7.2c0 4 3.3 7.3 7.3 7.3z" class="st4"/><g><path d="M1803.1 801.1h-7.2c-36.9 0-66.9-30-66.9-66.9V727c0-4 3.3-7.3 7.3-7.3h7.2c36.9 0 66.9 30 66.9 66.9v7.2c-.1 4.1-3.3 7.3-7.3 7.3zM1830.9 801.1h7.2c36.9 0 66.9-30 66.9-66.9V727c0-4-3.3-7.3-7.3-7.3h-7.2c-36.9 0-66.9 30-66.9 66.9v7.2c0 4.1 3.3 7.3 7.3 7.3z" class="st4"/></g><g><path d="M1803.1 716h-7.2c-36.9 0-66.9-30-66.9-66.9v-7.2c0-4 3.3-7.3 7.3-7.3h7.2c36.9 0 66.9 30 66.9 66.9v7.2c-.1 4.1-3.3 7.3-7.3 7.3zM1830.9 716h7.2c36.9 0 66.9-30 66.9-66.9v-7.2c0-4-3.3-7.3-7.3-7.3h-7.2c-36.9 0-66.9 30-66.9 66.9v7.2c0 4.1 3.3 7.3 7.3 7.3z" class="st4"/></g><g><path d="M1800.2 630.9h-7.2c-36.9 0-66.9-30-66.9-66.9v-7.2c0-4 3.3-7.3 7.3-7.3h7.2c36.9 0 66.9 30 66.9 66.9v7.2c0 4.1-3.2 7.3-7.3 7.3zM1828 630.9h7.2c36.9 0 66.9-30 66.9-66.9v-7.2c0-4-3.3-7.3-7.3-7.3h-7.2c-36.9 0-66.9 30-66.9 66.9v7.2c.1 4.1 3.3 7.3 7.3 7.3z" class="st4"/></g></g><g><path d="M1229.7 1067.7h-7.2c-36.9 0-66.9-30-66.9-66.9v-7.2c0-4 3.3-7.3 7.3-7.3h7.2c36.9 0 66.9 30 66.9 66.9v7.2c0 4.1-3.2 7.3-7.3 7.3zM1257.6 1067.7h7.2c36.9 0 66.9-30 66.9-66.9v-7.2c0-4-3.3-7.3-7.3-7.3h-7.2c-36.9 0-66.9 30-66.9 66.9v7.2c0 4.1 3.2 7.3 7.3 7.3zM1223.3 977.4h-7.2c-36.9 0-66.9-30-66.9-66.9v-7.2c0-4 3.3-7.3 7.3-7.3h7.2c36.9 0 66.9 30 66.9 66.9v7.2c0 4-3.3 7.3-7.3 7.3zM1251.1 977.4h7.2c36.9 0 66.9-30 66.9-66.9v-7.2c0-4-3.3-7.3-7.3-7.3h-7.2c-36.9 0-66.9 30-66.9 66.9v7.2c0 4 3.3 7.3 7.3 7.3zM1230.3 893.5h-7.2c-36.9 0-66.9-30-66.9-66.9v-7.2c0-4 3.3-7.3 7.3-7.3h7.2c36.9 0 66.9 30 66.9 66.9v7.2c0 4-3.2 7.3-7.3 7.3zM1258.2 893.5h7.2c36.9 0 66.9-30 66.9-66.9v-7.2c0-4-3.3-7.3-7.3-7.3h-7.2c-36.9 0-66.9 30-66.9 66.9v7.2c0 4 3.2 7.3 7.3 7.3z" class="st4"/><g><path d="M1229.2 801.1h-7.2c-36.9 0-66.9-30-66.9-66.9V727c0-4 3.3-7.3 7.3-7.3h7.2c36.9 0 66.9 30 66.9 66.9v7.2c0 4.1-3.3 7.3-7.3 7.3zM1257 801.1h7.2c36.9 0 66.9-30 66.9-66.9V727c0-4-3.3-7.3-7.3-7.3h-7.2c-36.9 0-66.9 30-66.9 66.9v7.2c0 4.1 3.3 7.3 7.3 7.3z" class="st4"/></g><g><path d="M1229.2 716h-7.2c-36.9 0-66.9-30-66.9-66.9v-7.2c0-4 3.3-7.3 7.3-7.3h7.2c36.9 0 66.9 30 66.9 66.9v7.2c0 4.1-3.3 7.3-7.3 7.3zM1257 716h7.2c36.9 0 66.9-30 66.9-66.9v-7.2c0-4-3.3-7.3-7.3-7.3h-7.2c-36.9 0-66.9 30-66.9 66.9v7.2c0 4.1 3.3 7.3 7.3 7.3z" class="st4"/></g><g><path d="M1226.4 630.9h-7.2c-36.9 0-66.9-30-66.9-66.9v-7.2c0-4 3.3-7.3 7.3-7.3h7.2c36.9 0 66.9 30 66.9 66.9v7.2c-.1 4.1-3.3 7.3-7.3 7.3zM1254.2 630.9h7.2c36.9 0 66.9-30 66.9-66.9v-7.2c0-4-3.3-7.3-7.3-7.3h-7.2c-36.9 0-66.9 30-66.9 66.9v7.2c0 4.1 3.3 7.3 7.3 7.3z" class="st4"/></g></g><g><path d="M1421 1067.7h-7.2c-36.9 0-66.9-30-66.9-66.9v-7.2c0-4 3.3-7.3 7.3-7.3h7.2c36.9 0 66.9 30 66.9 66.9v7.2c0 4.1-3.3 7.3-7.3 7.3zM1448.8 1067.7h7.2c36.9 0 66.9-30 66.9-66.9v-7.2c0-4-3.3-7.3-7.3-7.3h-7.2c-36.9 0-66.9 30-66.9 66.9v7.2c.1 4.1 3.3 7.3 7.3 7.3zM1414.6 977.4h-7.2c-36.9 0-66.9-30-66.9-66.9v-7.2c0-4 3.3-7.3 7.3-7.3h7.2c36.9 0 66.9 30 66.9 66.9v7.2c0 4-3.3 7.3-7.3 7.3zM1442.4 977.4h7.2c36.9 0 66.9-30 66.9-66.9v-7.2c0-4-3.3-7.3-7.3-7.3h-7.2c-36.9 0-66.9 30-66.9 66.9v7.2c0 4 3.3 7.3 7.3 7.3zM1421.6 893.5h-7.2c-36.9 0-66.9-30-66.9-66.9v-7.2c0-4 3.3-7.3 7.3-7.3h7.2c36.9 0 66.9 30 66.9 66.9v7.2c0 4-3.2 7.3-7.3 7.3zM1449.4 893.5h7.2c36.9 0 66.9-30 66.9-66.9v-7.2c0-4-3.3-7.3-7.3-7.3h-7.2c-36.9 0-66.9 30-66.9 66.9v7.2c.1 4 3.3 7.3 7.3 7.3z" class="st4"/><g><path d="M1420.5 801.1h-7.2c-36.9 0-66.9-30-66.9-66.9V727c0-4 3.3-7.3 7.3-7.3h7.2c36.9 0 66.9 30 66.9 66.9v7.2c0 4.1-3.3 7.3-7.3 7.3zM1448.3 801.1h7.2c36.9 0 66.9-30 66.9-66.9V727c0-4-3.3-7.3-7.3-7.3h-7.2c-36.9 0-66.9 30-66.9 66.9v7.2c0 4.1 3.3 7.3 7.3 7.3z" class="st4"/></g><g><path d="M1420.5 716h-7.2c-36.9 0-66.9-30-66.9-66.9v-7.2c0-4 3.3-7.3 7.3-7.3h7.2c36.9 0 66.9 30 66.9 66.9v7.2c0 4.1-3.3 7.3-7.3 7.3zM1448.3 716h7.2c36.9 0 66.9-30 66.9-66.9v-7.2c0-4-3.3-7.3-7.3-7.3h-7.2c-36.9 0-66.9 30-66.9 66.9v7.2c0 4.1 3.3 7.3 7.3 7.3z" class="st4"/></g><g><path d="M1417.6 630.9h-7.2c-36.9 0-66.9-30-66.9-66.9v-7.2c0-4 3.3-7.3 7.3-7.3h7.2c36.9 0 66.9 30 66.9 66.9v7.2c0 4.1-3.2 7.3-7.3 7.3zM1445.5 630.9h7.2c36.9 0 66.9-30 66.9-66.9v-7.2c0-4-3.3-7.3-7.3-7.3h-7.2c-36.9 0-66.9 30-66.9 66.9v7.2c0 4.1 3.2 7.3 7.3 7.3z" class="st4"/></g></g><g><path d="M90.6 1616.3h-7.2c-36.9 0-66.9-30-66.9-66.9v-7.2c0-4 3.3-7.3 7.3-7.3H31c36.9 0 66.9 30 66.9 66.9v7.2c0 4-3.2 7.3-7.3 7.3zM118.4 1616.3h7.2c36.9 0 66.9-30 66.9-66.9v-7.2c0-4-3.3-7.3-7.3-7.3H178c-36.9 0-66.9 30-66.9 66.9v7.2c.1 4 3.3 7.3 7.3 7.3zM84.2 1525.9H77c-36.9 0-66.9-30-66.9-66.9v-7.2c0-4 3.3-7.3 7.3-7.3h7.2c36.9 0 66.9 30 66.9 66.9v7.2c0 4.1-3.3 7.3-7.3 7.3zM112 1525.9h7.2c36.9 0 66.9-30 66.9-66.9v-7.2c0-4-3.3-7.3-7.3-7.3h-7.2c-36.9 0-66.9 30-66.9 66.9v7.2c0 4.1 3.3 7.3 7.3 7.3zM91.2 1442H84c-36.9 0-66.9-30-66.9-66.9v-7.2c0-4 3.3-7.3 7.3-7.3h7.2c36.9 0 66.9 30 66.9 66.9v7.2c0 4.1-3.2 7.3-7.3 7.3zM119.1 1442h7.2c36.9 0 66.9-30 66.9-66.9v-7.2c0-4-3.3-7.3-7.3-7.3h-7.2c-36.9 0-66.9 30-66.9 66.9v7.2c0 4.1 3.2 7.3 7.3 7.3z" class="st5"/><g><path d="M90.1 1349.7h-7.2c-36.9 0-66.9-30-66.9-66.9v-7.2c0-4 3.3-7.3 7.3-7.3h7.2c36.9 0 66.9 30 66.9 66.9v7.2c0 4-3.3 7.3-7.3 7.3zM117.9 1349.7h7.2c36.9 0 66.9-30 66.9-66.9v-7.2c0-4-3.3-7.3-7.3-7.3h-7.2c-36.9 0-66.9 30-66.9 66.9v7.2c0 4 3.3 7.3 7.3 7.3z" class="st5"/></g><g><path d="M90.1 1264.6h-7.2c-36.9 0-66.9-30-66.9-66.9v-7.2c0-4 3.3-7.3 7.3-7.3h7.2c36.9 0 66.9 30 66.9 66.9v7.2c0 4-3.3 7.3-7.3 7.3zM117.9 1264.6h7.2c36.9 0 66.9-30 66.9-66.9v-7.2c0-4-3.3-7.3-7.3-7.3h-7.2c-36.9 0-66.9 30-66.9 66.9v7.2c0 4 3.3 7.3 7.3 7.3z" class="st5"/></g><g><path d="M87.3 1179.5H80c-36.9 0-66.9-30-66.9-66.9v-7.2c0-4 3.3-7.3 7.3-7.3h7.2c36.9 0 66.9 30 66.9 66.9v7.2c0 4-3.2 7.3-7.2 7.3zM115.1 1179.5h7.2c36.9 0 66.9-30 66.9-66.9v-7.2c0-4-3.3-7.3-7.3-7.3h-7.2c-36.9 0-66.9 30-66.9 66.9v7.2c0 4 3.2 7.3 7.3 7.3z" class="st5"/></g></g><g><path d="M281.9 1616.3h-7.2c-36.9 0-66.9-30-66.9-66.9v-7.2c0-4 3.3-7.3 7.3-7.3h7.2c36.9 0 66.9 30 66.9 66.9v7.2c0 4-3.3 7.3-7.3 7.3zM309.7 1616.3h7.2c36.9 0 66.9-30 66.9-66.9v-7.2c0-4-3.3-7.3-7.3-7.3h-7.2c-36.9 0-66.9 30-66.9 66.9v7.2c0 4 3.3 7.3 7.3 7.3zM275.5 1525.9h-7.2c-36.9 0-66.9-30-66.9-66.9v-7.2c0-4 3.3-7.3 7.3-7.3h7.2c36.9 0 66.9 30 66.9 66.9v7.2c0 4.1-3.3 7.3-7.3 7.3zM303.3 1525.9h7.2c36.9 0 66.9-30 66.9-66.9v-7.2c0-4-3.3-7.3-7.3-7.3h-7.2c-36.9 0-66.9 30-66.9 66.9v7.2c0 4.1 3.3 7.3 7.3 7.3zM282.5 1442h-7.2c-36.9 0-66.9-30-66.9-66.9v-7.2c0-4 3.3-7.3 7.3-7.3h7.2c36.9 0 66.9 30 66.9 66.9v7.2c0 4.1-3.2 7.3-7.3 7.3zM310.3 1442h7.2c36.9 0 66.9-30 66.9-66.9v-7.2c0-4-3.3-7.3-7.3-7.3H370c-36.9 0-66.9 30-66.9 66.9v7.2c0 4.1 3.2 7.3 7.2 7.3z" class="st5"/><g><path d="M281.4 1349.7h-7.2c-36.9 0-66.9-30-66.9-66.9v-7.2c0-4 3.3-7.3 7.3-7.3h7.2c36.9 0 66.9 30 66.9 66.9v7.2c0 4-3.3 7.3-7.3 7.3zM309.2 1349.7h7.2c36.9 0 66.9-30 66.9-66.9v-7.2c0-4-3.3-7.3-7.3-7.3h-7.2c-36.9 0-66.9 30-66.9 66.9v7.2c0 4 3.3 7.3 7.3 7.3z" class="st5"/></g><g><path d="M281.4 1264.6h-7.2c-36.9 0-66.9-30-66.9-66.9v-7.2c0-4 3.3-7.3 7.3-7.3h7.2c36.9 0 66.9 30 66.9 66.9v7.2c0 4-3.3 7.3-7.3 7.3zM309.2 1264.6h7.2c36.9 0 66.9-30 66.9-66.9v-7.2c0-4-3.3-7.3-7.3-7.3h-7.2c-36.9 0-66.9 30-66.9 66.9v7.2c0 4 3.3 7.3 7.3 7.3z" class="st5"/></g><g><path d="M278.5 1179.5h-7.2c-36.9 0-66.9-30-66.9-66.9v-7.2c0-4 3.3-7.3 7.3-7.3h7.2c36.9 0 66.9 30 66.9 66.9v7.2c0 4-3.2 7.3-7.3 7.3zM306.4 1179.5h7.2c36.9 0 66.9-30 66.9-66.9v-7.2c0-4-3.3-7.3-7.3-7.3H366c-36.9 0-66.9 30-66.9 66.9v7.2c0 4 3.2 7.3 7.3 7.3z" class="st5"/></g></g><g><path d="M473.2 1616.3H466c-36.9 0-66.9-30-66.9-66.9v-7.2c0-4 3.3-7.3 7.3-7.3h7.2c36.9 0 66.9 30 66.9 66.9v7.2c0 4-3.3 7.3-7.3 7.3zM501 1616.3h7.2c36.9 0 66.9-30 66.9-66.9v-7.2c0-4-3.3-7.3-7.3-7.3h-7.2c-36.9 0-66.9 30-66.9 66.9v7.2c0 4 3.3 7.3 7.3 7.3zM466.8 1525.9h-7.2c-36.9 0-66.9-30-66.9-66.9v-7.2c0-4 3.3-7.3 7.3-7.3h7.2c36.9 0 66.9 30 66.9 66.9v7.2c0 4.1-3.3 7.3-7.3 7.3zM494.6 1525.9h7.2c36.9 0 66.9-30 66.9-66.9v-7.2c0-4-3.3-7.3-7.3-7.3h-7.2c-36.9 0-66.9 30-66.9 66.9v7.2c0 4.1 3.3 7.3 7.3 7.3zM473.8 1442h-7.2c-36.9 0-66.9-30-66.9-66.9v-7.2c0-4 3.3-7.3 7.3-7.3h7.2c36.9 0 66.9 30 66.9 66.9v7.2c0 4.1-3.3 7.3-7.3 7.3zM501.6 1442h7.2c36.9 0 66.9-30 66.9-66.9v-7.2c0-4-3.3-7.3-7.3-7.3h-7.2c-36.9 0-66.9 30-66.9 66.9v7.2c0 4.1 3.3 7.3 7.3 7.3z" class="st5"/><g><path d="M472.7 1349.7h-7.2c-36.9 0-66.9-30-66.9-66.9v-7.2c0-4 3.3-7.3 7.3-7.3h7.2c36.9 0 66.9 30 66.9 66.9v7.2c0 4-3.3 7.3-7.3 7.3zM500.5 1349.7h7.2c36.9 0 66.9-30 66.9-66.9v-7.2c0-4-3.3-7.3-7.3-7.3h-7.2c-36.9 0-66.9 30-66.9 66.9v7.2c0 4 3.3 7.3 7.3 7.3z" class="st5"/></g><g><path d="M472.7 1264.6h-7.2c-36.9 0-66.9-30-66.9-66.9v-7.2c0-4 3.3-7.3 7.3-7.3h7.2c36.9 0 66.9 30 66.9 66.9v7.2c0 4-3.3 7.3-7.3 7.3zM500.5 1264.6h7.2c36.9 0 66.9-30 66.9-66.9v-7.2c0-4-3.3-7.3-7.3-7.3h-7.2c-36.9 0-66.9 30-66.9 66.9v7.2c0 4 3.3 7.3 7.3 7.3z" class="st5"/></g><g><path d="M469.8 1179.5h-7.2c-36.9 0-66.9-30-66.9-66.9v-7.2c0-4 3.3-7.3 7.3-7.3h7.2c36.9 0 66.9 30 66.9 66.9v7.2c0 4-3.2 7.3-7.3 7.3zM497.7 1179.5h7.2c36.9 0 66.9-30 66.9-66.9v-7.2c0-4-3.3-7.3-7.3-7.3h-7.2c-36.9 0-66.9 30-66.9 66.9v7.2c0 4 3.2 7.3 7.3 7.3z" class="st5"/></g></g><g><path d="M664.5 1616.3h-7.2c-36.9 0-66.9-30-66.9-66.9v-7.2c0-4 3.3-7.3 7.3-7.3h7.2c36.9 0 66.9 30 66.9 66.9v7.2c0 4-3.3 7.3-7.3 7.3zM692.3 1616.3h7.2c36.9 0 66.9-30 66.9-66.9v-7.2c0-4-3.3-7.3-7.3-7.3h-7.2c-36.9 0-66.9 30-66.9 66.9v7.2c0 4 3.3 7.3 7.3 7.3zM658.1 1525.9h-7.2c-36.9 0-66.9-30-66.9-66.9v-7.2c0-4 3.3-7.3 7.3-7.3h7.2c36.9 0 66.9 30 66.9 66.9v7.2c0 4.1-3.3 7.3-7.3 7.3zM685.9 1525.9h7.2c36.9 0 66.9-30 66.9-66.9v-7.2c0-4-3.3-7.3-7.3-7.3h-7.2c-36.9 0-66.9 30-66.9 66.9v7.2c0 4.1 3.3 7.3 7.3 7.3zM665.1 1442h-7.2c-36.9 0-66.9-30-66.9-66.9v-7.2c0-4 3.3-7.3 7.3-7.3h7.2c36.9 0 66.9 30 66.9 66.9v7.2c0 4.1-3.3 7.3-7.3 7.3zM692.9 1442h7.2c36.9 0 66.9-30 66.9-66.9v-7.2c0-4-3.3-7.3-7.3-7.3h-7.2c-36.9 0-66.9 30-66.9 66.9v7.2c0 4.1 3.3 7.3 7.3 7.3z" class="st5"/><g><path d="M664 1349.7h-7.2c-36.9 0-66.9-30-66.9-66.9v-7.2c0-4 3.3-7.3 7.3-7.3h7.2c36.9 0 66.9 30 66.9 66.9v7.2c-.1 4-3.3 7.3-7.3 7.3zM691.8 1349.7h7.2c36.9 0 66.9-30 66.9-66.9v-7.2c0-4-3.3-7.3-7.3-7.3h-7.2c-36.9 0-66.9 30-66.9 66.9v7.2c0 4 3.2 7.3 7.3 7.3z" class="st5"/></g><g><path d="M664 1264.6h-7.2c-36.9 0-66.9-30-66.9-66.9v-7.2c0-4 3.3-7.3 7.3-7.3h7.2c36.9 0 66.9 30 66.9 66.9v7.2c-.1 4-3.3 7.3-7.3 7.3zM691.8 1264.6h7.2c36.9 0 66.9-30 66.9-66.9v-7.2c0-4-3.3-7.3-7.3-7.3h-7.2c-36.9 0-66.9 30-66.9 66.9v7.2c0 4 3.2 7.3 7.3 7.3z" class="st5"/></g><g><path d="M661.1 1179.5h-7.2c-36.9 0-66.9-30-66.9-66.9v-7.2c0-4 3.3-7.3 7.3-7.3h7.2c36.9 0 66.9 30 66.9 66.9v7.2c0 4-3.2 7.3-7.3 7.3zM688.9 1179.5h7.2c36.9 0 66.9-30 66.9-66.9v-7.2c0-4-3.3-7.3-7.3-7.3h-7.2c-36.9 0-66.9 30-66.9 66.9v7.2c.1 4 3.3 7.3 7.3 7.3z" class="st5"/></g></g><g><path d="M855.8 1616.3h-7.2c-36.9 0-66.9-30-66.9-66.9v-7.2c0-4 3.3-7.3 7.3-7.3h7.2c36.9 0 66.9 30 66.9 66.9v7.2c0 4-3.3 7.3-7.3 7.3zM883.6 1616.3h7.2c36.9 0 66.9-30 66.9-66.9v-7.2c0-4-3.3-7.3-7.3-7.3h-7.2c-36.9 0-66.9 30-66.9 66.9v7.2c0 4 3.3 7.3 7.3 7.3zM849.4 1525.9h-7.2c-36.9 0-66.9-30-66.9-66.9v-7.2c0-4 3.3-7.3 7.3-7.3h7.2c36.9 0 66.9 30 66.9 66.9v7.2c0 4.1-3.3 7.3-7.3 7.3zM877.2 1525.9h7.2c36.9 0 66.9-30 66.9-66.9v-7.2c0-4-3.3-7.3-7.3-7.3h-7.2c-36.9 0-66.9 30-66.9 66.9v7.2c0 4.1 3.3 7.3 7.3 7.3zM856.4 1442h-7.2c-36.9 0-66.9-30-66.9-66.9v-7.2c0-4 3.3-7.3 7.3-7.3h7.2c36.9 0 66.9 30 66.9 66.9v7.2c0 4.1-3.3 7.3-7.3 7.3zM884.2 1442h7.2c36.9 0 66.9-30 66.9-66.9v-7.2c0-4-3.3-7.3-7.3-7.3h-7.2c-36.9 0-66.9 30-66.9 66.9v7.2c0 4.1 3.3 7.3 7.3 7.3z" class="st5"/><g><path d="M855.2 1349.7H848c-36.9 0-66.9-30-66.9-66.9v-7.2c0-4 3.3-7.3 7.3-7.3h7.2c36.9 0 66.9 30 66.9 66.9v7.2c0 4-3.2 7.3-7.3 7.3zM883.1 1349.7h7.2c36.9 0 66.9-30 66.9-66.9v-7.2c0-4-3.3-7.3-7.3-7.3h-7.2c-36.9 0-66.9 30-66.9 66.9v7.2c0 4 3.2 7.3 7.3 7.3z" class="st5"/></g><g><path d="M855.2 1264.6H848c-36.9 0-66.9-30-66.9-66.9v-7.2c0-4 3.3-7.3 7.3-7.3h7.2c36.9 0 66.9 30 66.9 66.9v7.2c0 4-3.2 7.3-7.3 7.3zM883.1 1264.6h7.2c36.9 0 66.9-30 66.9-66.9v-7.2c0-4-3.3-7.3-7.3-7.3h-7.2c-36.9 0-66.9 30-66.9 66.9v7.2c0 4 3.2 7.3 7.3 7.3z" class="st5"/></g><g><path d="M852.4 1179.5h-7.2c-36.9 0-66.9-30-66.9-66.9v-7.2c0-4 3.3-7.3 7.3-7.3h7.2c36.9 0 66.9 30 66.9 66.9v7.2c0 4-3.3 7.3-7.3 7.3zM880.2 1179.5h7.2c36.9 0 66.9-30 66.9-66.9v-7.2c0-4-3.3-7.3-7.3-7.3h-7.2c-36.9 0-66.9 30-66.9 66.9v7.2c0 4 3.3 7.3 7.3 7.3z" class="st5"/></g></g><g><path d="M1047.1 1616.3h-7.2c-36.9 0-66.9-30-66.9-66.9v-7.2c0-4 3.3-7.3 7.3-7.3h7.2c36.9 0 66.9 30 66.9 66.9v7.2c0 4-3.3 7.3-7.3 7.3zM1074.9 1616.3h7.2c36.9 0 66.9-30 66.9-66.9v-7.2c0-4-3.3-7.3-7.3-7.3h-7.2c-36.9 0-66.9 30-66.9 66.9v7.2c0 4 3.3 7.3 7.3 7.3zM1040.7 1525.9h-7.2c-36.9 0-66.9-30-66.9-66.9v-7.2c0-4 3.3-7.3 7.3-7.3h7.2c36.9 0 66.9 30 66.9 66.9v7.2c0 4.1-3.3 7.3-7.3 7.3zM1068.5 1525.9h7.2c36.9 0 66.9-30 66.9-66.9v-7.2c0-4-3.3-7.3-7.3-7.3h-7.2c-36.9 0-66.9 30-66.9 66.9v7.2c0 4.1 3.3 7.3 7.3 7.3zM1047.7 1442h-7.2c-36.9 0-66.9-30-66.9-66.9v-7.2c0-4 3.3-7.3 7.3-7.3h7.2c36.9 0 66.9 30 66.9 66.9v7.2c0 4.1-3.3 7.3-7.3 7.3zM1075.5 1442h7.2c36.9 0 66.9-30 66.9-66.9v-7.2c0-4-3.3-7.3-7.3-7.3h-7.2c-36.9 0-66.9 30-66.9 66.9v7.2c0 4.1 3.3 7.3 7.3 7.3z" class="st5"/><g><path d="M1046.5 1349.7h-7.2c-36.9 0-66.9-30-66.9-66.9v-7.2c0-4 3.3-7.3 7.3-7.3h7.2c36.9 0 66.9 30 66.9 66.9v7.2c0 4-3.2 7.3-7.3 7.3zM1074.4 1349.7h7.2c36.9 0 66.9-30 66.9-66.9v-7.2c0-4-3.3-7.3-7.3-7.3h-7.2c-36.9 0-66.9 30-66.9 66.9v7.2c0 4 3.2 7.3 7.3 7.3z" class="st5"/></g><g><path d="M1046.5 1264.6h-7.2c-36.9 0-66.9-30-66.9-66.9v-7.2c0-4 3.3-7.3 7.3-7.3h7.2c36.9 0 66.9 30 66.9 66.9v7.2c0 4-3.2 7.3-7.3 7.3zM1074.4 1264.6h7.2c36.9 0 66.9-30 66.9-66.9v-7.2c0-4-3.3-7.3-7.3-7.3h-7.2c-36.9 0-66.9 30-66.9 66.9v7.2c0 4 3.2 7.3 7.3 7.3z" class="st5"/></g><g><path d="M1043.7 1179.5h-7.2c-36.9 0-66.9-30-66.9-66.9v-7.2c0-4 3.3-7.3 7.3-7.3h7.2c36.9 0 66.9 30 66.9 66.9v7.2c0 4-3.3 7.3-7.3 7.3zM1071.5 1179.5h7.2c36.9 0 66.9-30 66.9-66.9v-7.2c0-4-3.3-7.3-7.3-7.3h-7.2c-36.9 0-66.9 30-66.9 66.9v7.2c0 4 3.3 7.3 7.3 7.3z" class="st5"/></g></g><g><path d="M1621 1616.3h-7.2c-36.9 0-66.9-30-66.9-66.9v-7.2c0-4 3.3-7.3 7.3-7.3h7.2c36.9 0 66.9 30 66.9 66.9v7.2c-.1 4-3.3 7.3-7.3 7.3zM1648.8 1616.3h7.2c36.9 0 66.9-30 66.9-66.9v-7.2c0-4-3.3-7.3-7.3-7.3h-7.2c-36.9 0-66.9 30-66.9 66.9v7.2c0 4 3.2 7.3 7.3 7.3zM1614.5 1525.9h-7.2c-36.9 0-66.9-30-66.9-66.9v-7.2c0-4 3.3-7.3 7.3-7.3h7.2c36.9 0 66.9 30 66.9 66.9v7.2c0 4.1-3.2 7.3-7.3 7.3zM1642.4 1525.9h7.2c36.9 0 66.9-30 66.9-66.9v-7.2c0-4-3.3-7.3-7.3-7.3h-7.2c-36.9 0-66.9 30-66.9 66.9v7.2c0 4.1 3.2 7.3 7.3 7.3zM1621.6 1442h-7.2c-36.9 0-66.9-30-66.9-66.9v-7.2c0-4 3.3-7.3 7.3-7.3h7.2c36.9 0 66.9 30 66.9 66.9v7.2c-.1 4.1-3.3 7.3-7.3 7.3zM1649.4 1442h7.2c36.9 0 66.9-30 66.9-66.9v-7.2c0-4-3.3-7.3-7.3-7.3h-7.2c-36.9 0-66.9 30-66.9 66.9v7.2c0 4.1 3.3 7.3 7.3 7.3z" class="st5"/><g><path d="M1620.4 1349.7h-7.2c-36.9 0-66.9-30-66.9-66.9v-7.2c0-4 3.3-7.3 7.3-7.3h7.2c36.9 0 66.9 30 66.9 66.9v7.2c0 4-3.3 7.3-7.3 7.3zM1648.2 1349.7h7.2c36.9 0 66.9-30 66.9-66.9v-7.2c0-4-3.3-7.3-7.3-7.3h-7.2c-36.9 0-66.9 30-66.9 66.9v7.2c0 4 3.3 7.3 7.3 7.3z" class="st5"/></g><g><path d="M1620.4 1264.6h-7.2c-36.9 0-66.9-30-66.9-66.9v-7.2c0-4 3.3-7.3 7.3-7.3h7.2c36.9 0 66.9 30 66.9 66.9v7.2c0 4-3.3 7.3-7.3 7.3zM1648.2 1264.6h7.2c36.9 0 66.9-30 66.9-66.9v-7.2c0-4-3.3-7.3-7.3-7.3h-7.2c-36.9 0-66.9 30-66.9 66.9v7.2c0 4 3.3 7.3 7.3 7.3z" class="st5"/></g><g><path d="M1617.6 1179.5h-7.2c-36.9 0-66.9-30-66.9-66.9v-7.2c0-4 3.3-7.3 7.3-7.3h7.2c36.9 0 66.9 30 66.9 66.9v7.2c0 4-3.3 7.3-7.3 7.3zM1645.4 1179.5h7.2c36.9 0 66.9-30 66.9-66.9v-7.2c0-4-3.3-7.3-7.3-7.3h-7.2c-36.9 0-66.9 30-66.9 66.9v7.2c0 4 3.3 7.3 7.3 7.3z" class="st5"/></g></g><g><path d="M1812.2 1616.3h-7.2c-36.9 0-66.9-30-66.9-66.9v-7.2c0-4 3.3-7.3 7.3-7.3h7.2c36.9 0 66.9 30 66.9 66.9v7.2c0 4-3.2 7.3-7.3 7.3zM1840.1 1616.3h7.2c36.9 0 66.9-30 66.9-66.9v-7.2c0-4-3.3-7.3-7.3-7.3h-7.2c-36.9 0-66.9 30-66.9 66.9v7.2c0 4 3.2 7.3 7.3 7.3zM1805.8 1525.9h-7.2c-36.9 0-66.9-30-66.9-66.9v-7.2c0-4 3.3-7.3 7.3-7.3h7.2c36.9 0 66.9 30 66.9 66.9v7.2c0 4.1-3.2 7.3-7.3 7.3zM1833.6 1525.9h7.2c36.9 0 66.9-30 66.9-66.9v-7.2c0-4-3.3-7.3-7.3-7.3h-7.2c-36.9 0-66.9 30-66.9 66.9v7.2c.1 4.1 3.3 7.3 7.3 7.3zM1812.8 1442h-7.2c-36.9 0-66.9-30-66.9-66.9v-7.2c0-4 3.3-7.3 7.3-7.3h7.2c36.9 0 66.9 30 66.9 66.9v7.2c0 4.1-3.2 7.3-7.3 7.3zM1840.7 1442h7.2c36.9 0 66.9-30 66.9-66.9v-7.2c0-4-3.3-7.3-7.3-7.3h-7.2c-36.9 0-66.9 30-66.9 66.9v7.2c0 4.1 3.2 7.3 7.3 7.3z" class="st5"/><g><path d="M1811.7 1349.7h-7.2c-36.9 0-66.9-30-66.9-66.9v-7.2c0-4 3.3-7.3 7.3-7.3h7.2c36.9 0 66.9 30 66.9 66.9v7.2c0 4-3.3 7.3-7.3 7.3zM1839.5 1349.7h7.2c36.9 0 66.9-30 66.9-66.9v-7.2c0-4-3.3-7.3-7.3-7.3h-7.2c-36.9 0-66.9 30-66.9 66.9v7.2c0 4 3.3 7.3 7.3 7.3z" class="st5"/></g><g><path d="M1811.7 1264.6h-7.2c-36.9 0-66.9-30-66.9-66.9v-7.2c0-4 3.3-7.3 7.3-7.3h7.2c36.9 0 66.9 30 66.9 66.9v7.2c0 4-3.3 7.3-7.3 7.3zM1839.5 1264.6h7.2c36.9 0 66.9-30 66.9-66.9v-7.2c0-4-3.3-7.3-7.3-7.3h-7.2c-36.9 0-66.9 30-66.9 66.9v7.2c0 4 3.3 7.3 7.3 7.3z" class="st5"/></g><g><path d="M1808.9 1179.5h-7.2c-36.9 0-66.9-30-66.9-66.9v-7.2c0-4 3.3-7.3 7.3-7.3h7.2c36.9 0 66.9 30 66.9 66.9v7.2c0 4-3.3 7.3-7.3 7.3zM1836.7 1179.5h7.2c36.9 0 66.9-30 66.9-66.9v-7.2c0-4-3.3-7.3-7.3-7.3h-7.2c-36.9 0-66.9 30-66.9 66.9v7.2c0 4 3.3 7.3 7.3 7.3z" class="st5"/></g></g><g><path d="M1238.4 1616.3h-7.2c-36.9 0-66.9-30-66.9-66.9v-7.2c0-4 3.3-7.3 7.3-7.3h7.2c36.9 0 66.9 30 66.9 66.9v7.2c0 4-3.3 7.3-7.3 7.3zM1266.2 1616.3h7.2c36.9 0 66.9-30 66.9-66.9v-7.2c0-4-3.3-7.3-7.3-7.3h-7.2c-36.9 0-66.9 30-66.9 66.9v7.2c0 4 3.3 7.3 7.3 7.3zM1232 1525.9h-7.2c-36.9 0-66.9-30-66.9-66.9v-7.2c0-4 3.3-7.3 7.3-7.3h7.2c36.9 0 66.9 30 66.9 66.9v7.2c-.1 4.1-3.3 7.3-7.3 7.3zM1259.8 1525.9h7.2c36.9 0 66.9-30 66.9-66.9v-7.2c0-4-3.3-7.3-7.3-7.3h-7.2c-36.9 0-66.9 30-66.9 66.9v7.2c0 4.1 3.3 7.3 7.3 7.3zM1239 1442h-7.2c-36.9 0-66.9-30-66.9-66.9v-7.2c0-4 3.3-7.3 7.3-7.3h7.2c36.9 0 66.9 30 66.9 66.9v7.2c0 4.1-3.3 7.3-7.3 7.3zM1266.8 1442h7.2c36.9 0 66.9-30 66.9-66.9v-7.2c0-4-3.3-7.3-7.3-7.3h-7.2c-36.9 0-66.9 30-66.9 66.9v7.2c0 4.1 3.3 7.3 7.3 7.3z" class="st5"/><g><path d="M1237.8 1349.7h-7.2c-36.9 0-66.9-30-66.9-66.9v-7.2c0-4 3.3-7.3 7.3-7.3h7.2c36.9 0 66.9 30 66.9 66.9v7.2c0 4-3.2 7.3-7.3 7.3zM1265.6 1349.7h7.2c36.9 0 66.9-30 66.9-66.9v-7.2c0-4-3.3-7.3-7.3-7.3h-7.2c-36.9 0-66.9 30-66.9 66.9v7.2c.1 4 3.3 7.3 7.3 7.3z" class="st5"/></g><g><path d="M1237.8 1264.6h-7.2c-36.9 0-66.9-30-66.9-66.9v-7.2c0-4 3.3-7.3 7.3-7.3h7.2c36.9 0 66.9 30 66.9 66.9v7.2c0 4-3.2 7.3-7.3 7.3zM1265.6 1264.6h7.2c36.9 0 66.9-30 66.9-66.9v-7.2c0-4-3.3-7.3-7.3-7.3h-7.2c-36.9 0-66.9 30-66.9 66.9v7.2c.1 4 3.3 7.3 7.3 7.3z" class="st5"/></g><g><path d="M1235 1179.5h-7.2c-36.9 0-66.9-30-66.9-66.9v-7.2c0-4 3.3-7.3 7.3-7.3h7.2c36.9 0 66.9 30 66.9 66.9v7.2c0 4-3.3 7.3-7.3 7.3zM1262.8 1179.5h7.2c36.9 0 66.9-30 66.9-66.9v-7.2c0-4-3.3-7.3-7.3-7.3h-7.2c-36.9 0-66.9 30-66.9 66.9v7.2c0 4 3.3 7.3 7.3 7.3z" class="st5"/></g></g><g><path d="M1429.7 1616.3h-7.2c-36.9 0-66.9-30-66.9-66.9v-7.2c0-4 3.3-7.3 7.3-7.3h7.2c36.9 0 66.9 30 66.9 66.9v7.2c0 4-3.3 7.3-7.3 7.3zM1457.5 1616.3h7.2c36.9 0 66.9-30 66.9-66.9v-7.2c0-4-3.3-7.3-7.3-7.3h-7.2c-36.9 0-66.9 30-66.9 66.9v7.2c0 4 3.3 7.3 7.3 7.3zM1423.2 1525.9h-7.2c-36.9 0-66.9-30-66.9-66.9v-7.2c0-4 3.3-7.3 7.3-7.3h7.2c36.9 0 66.9 30 66.9 66.9v7.2c0 4.1-3.2 7.3-7.3 7.3zM1451.1 1525.9h7.2c36.9 0 66.9-30 66.9-66.9v-7.2c0-4-3.3-7.3-7.3-7.3h-7.2c-36.9 0-66.9 30-66.9 66.9v7.2c0 4.1 3.2 7.3 7.3 7.3zM1430.3 1442h-7.2c-36.9 0-66.9-30-66.9-66.9v-7.2c0-4 3.3-7.3 7.3-7.3h7.2c36.9 0 66.9 30 66.9 66.9v7.2c0 4.1-3.3 7.3-7.3 7.3zM1458.1 1442h7.2c36.9 0 66.9-30 66.9-66.9v-7.2c0-4-3.3-7.3-7.3-7.3h-7.2c-36.9 0-66.9 30-66.9 66.9v7.2c0 4.1 3.3 7.3 7.3 7.3z" class="st5"/><g><path d="M1429.1 1349.7h-7.2c-36.9 0-66.9-30-66.9-66.9v-7.2c0-4 3.3-7.3 7.3-7.3h7.2c36.9 0 66.9 30 66.9 66.9v7.2c0 4-3.3 7.3-7.3 7.3zM1456.9 1349.7h7.2c36.9 0 66.9-30 66.9-66.9v-7.2c0-4-3.3-7.3-7.3-7.3h-7.2c-36.9 0-66.9 30-66.9 66.9v7.2c0 4 3.3 7.3 7.3 7.3z" class="st5"/></g><g><path d="M1429.1 1264.6h-7.2c-36.9 0-66.9-30-66.9-66.9v-7.2c0-4 3.3-7.3 7.3-7.3h7.2c36.9 0 66.9 30 66.9 66.9v7.2c0 4-3.3 7.3-7.3 7.3zM1456.9 1264.6h7.2c36.9 0 66.9-30 66.9-66.9v-7.2c0-4-3.3-7.3-7.3-7.3h-7.2c-36.9 0-66.9 30-66.9 66.9v7.2c0 4 3.3 7.3 7.3 7.3z" class="st5"/></g><g><path d="M1426.3 1179.5h-7.2c-36.9 0-66.9-30-66.9-66.9v-7.2c0-4 3.3-7.3 7.3-7.3h7.2c36.9 0 66.9 30 66.9 66.9v7.2c0 4-3.3 7.3-7.3 7.3zM1454.1 1179.5h7.2c36.9 0 66.9-30 66.9-66.9v-7.2c0-4-3.3-7.3-7.3-7.3h-7.2c-36.9 0-66.9 30-66.9 66.9v7.2c0 4 3.3 7.3 7.3 7.3z" class="st5"/></g></g></svg>