<svg xmlns="http://www.w3.org/2000/svg" id="Layer_1" x="0" y="0" version="1.1" xml:space="preserve" viewBox="0 0 300 250"><defs/><style>.st0{fill:#ffe800}.st1{fill:#f18a00}.st2{fill:#e1251b}.st4{fill:#634e42}</style><path d="M291.08 174.78c-2.12-.89-4.32-1.44-6.66-.88-.98.24-1.96.46-2.94.66-3.69.75-7.31 1.67-10.65 3.48-3.41 1.85-6.85 3.66-10.24 5.56-1.55.87-2.99 1.92-4.57 2.94-.14-.41-.22-.65-.3-.9-.69-2.07-1.68-2.78-3.85-2.77-2.61 0-4.28 1.11-5.21 3.6-.44 1.17-.68 2.41-.97 3.48-1.14.25-2.16.48-3.29.73-4.16-2.82-6.64-3.06-11.68-1.13-.5.19-1.12.08-1.45.1-2.41-4.82-5.06-9.25-5.85-14.46 1.49-1.05 3.09-1.94 4.4-3.16 1.74-1.63 3.43-3.38 4.8-5.32 1.05-1.49 1.82-3.3.93-5.28-.13-.29 0-.8.18-1.11.36-.63.81-1.22 1.26-1.79 4-5.04 6.95-10.59 8.32-16.91.28-1.28.55-2.57.84-3.92 1.14 0 2.14-.05 3.13.01 1.02.06 1.6-.41 1.58-1.36-.04-1.5.82-1.94 2.09-2.08.46-.05.91-.22 1.38-.27 5.9-.68 11.21-3.05 16.46-5.62 1.26-.61 2.39-1.83 3.66-1.95 1.27-.13 2.66.73 3.98 1.2 3.51 1.24 7.06-1.55 6.41-5.67-.22-1.42-.82-2.78-1.27-4.23 1.74-8.02 1.09-15.73-4.25-22.6 1.34-1.56 1.42-3.62 2.77-5.12.79-.88.33-1.97-.35-2.93-.73-1.03-1.38-2.12-1.9-3.27-.42-.94-.59-2-.85-2.92.67-1.14 1.4-2.19 1.93-3.33 2.74-5.95 3.29-12.13 2.14-18.56-1.04-5.86-9.08-9.74-13.35-5.85-.12.11-.36.11-.53.15-2.49-3.58-6.18-5.6-10.4-2.51-1.9-1.13-3.69-2.29-5.56-3.29-1.64-.87-3.21-.58-4.66.63-3.01 2.54-4.77 5.69-5.09 9.64-.2 2.52.32 4.9 1.23 7.31-1.92 2.29-2.49 5.12-2.9 8.07-.28-.2-.41-.25-.49-.35-.33-.42-.67-.84-.95-1.29-5.33-8.35-12.59-14.89-20.26-20.98-3.13-2.49-6.67-4.45-10.03-6.66-2.97-1.96-6.05-3.69-9.48-4.74-2.05-.62-4.09-1.27-6.11-1.97-9.47-3.28-19.23-4.73-29.24-4.32-3.41.14-6.82.45-10.22.82-1.9.2-3.77.69-5.7 1.05-.21-.91-.39-1.68-.58-2.5.43-.22.86-.4 1.24-.64 1.96-1.25 2.75-3.7 1.72-5.79-1.29-2.62-2.41-3.05-4.98-2.29-.05.01-.12-.02-.04-.01-.2-1-.16-2.07-.62-2.86-.91-1.6-3.41-2.26-5.18-1.59-.39.15-.74.36-1.22.6.34-2.93.05-4.06-1.47-4.79-2.73-1.31-5.19-.78-7.23 1.42-3.89-2.99-7.09-2.25-8.05 1.88-2.15-1.63-4.44-2-6.69-.4-1.73 1.23-2.36 2.98-1.66 4.73-1.22 1.03-2.38 1.81-3.29 2.81-1.07 1.18-.64 2.58-.08 3.64-1.38.27-2.81.22-3.88.82-2.38 1.33-2.68 5.33-.78 7.3.26.27.37.68.66 1.25-1.97-.03-3.16.53-3.55 2.31-.37 1.64.24 2.94 1.24 4.19-1.42 1.04-1.95 2.47-2.19 4.01-.53 3.38 1.79 5.74 5.22 5.31.84-.1 1.66-.3 2.78-.5-.51 1.73-.8 3.31.22 4.75 1.04 1.48 2.63 1.87 4.45 2.06-.34.59-.62 1.04-.87 1.5-1.46 2.7-3.07 5.32-4.32 8.11-2.08 4.64-3.39 9.55-4.29 14.54-.49 2.75-1.18 5.56-1.07 8.31.15 3.7.98 7.38 1.53 11.06.07.49.2.98.3 1.45-4.39-.54-8.63-1.07-12.83-1.59-.93-.84-1.8-1.92-2.91-2.56-2.82-1.62-5.5-.07-5.67 3.15-.02.46-.07.96.06 1.39.32 1.06-.23 2-.83 2.51-2.42 2.01-3.89 4.75-5.84 7.11-.64.77-1.2 1.47-2.4 1.59-.79.08-1.67.64-2.23 1.24-2.04 2.2-4.02 4.46-5.92 6.78-.9 1.1-.92 2.47-.42 3.81.16.42.34.83.39.96-1.46 2.39-2.82 4.53-4.09 6.72-2.17 3.71-3.59 7.73-5.07 11.73-.85 2.29-1.23 4.62-1.22 7.04.01 3.16 1.02 4.49 4.2 5.07 1.01.19 1.57.6 1.88 1.51.23.69.47 1.4.81 2.04 1.02 1.92 2.39 3.38 4.79 3.44 1.05.02 2.09.11 3.23.17.18.54.35 1.18.62 1.78.66 1.47 1.41 2.89 2.8 3.83 3.49 2.34 9.75 1.25 12.14-2.24 1.92-2.8 3.69-5.72 3.96-9.11 1.68-.57 3.31-.97 4.82-1.65 2.7-1.22 3.52-3.36 2.4-6.08-1.06-2.57-1.19-5.16-.55-7.83.34-1.42.63-2.87.82-4.32.19-1.49-.34-2.71-1.55-3.69-1.45-1.17-3.06-1.9-4.9-2.12-1.4-.17-2.82-.21-4.19-.5-1.22-.26-2.51-.58-3.55-1.22-.45-.28-.83-.68-1.19-1.11.31 0 .59-.04.83-.12 1.62-.32 2.93-1.53 3.68-3.82.85-2.6 2.29-5.3-.12-7.77 1.83-1.78 2.13-4.3 3.33-6.34 3.45.54 10.28 3.55 18.61 8.2.34 2.1.67 4.19 1.03 6.27 1.06 6.09-.16 11.87-2.89 17.25-1.68 3.3-4.05 6.26-6.19 9.33-1.57 2.24-3.32 4.35-4.88 6.6-2.37 3.42-3.08 7.05-.97 10.89.26.47.5.95.77 1.4 1.03 1.69 2.07 3.38 3.13 5.11-.73.27-1.41.52-2.08.79-.66.27-1.32.56-1.93.81-2.53-3.27-4.78-3.57-7.7-.96-.91.82-1.64.85-2.7.46a92.48 92.48 0 00-6.3-2.04c-2.92-.83-2.88-1.23-5.13 2.1-.07.11-.15.22-.21.34-1.04 1.99-.48 3.29 1.75 3.9 2.36.65 4.76.72 7.18.24.84-.17 1.69-.28 2.47-.4 2.72 5.52 8.16 6.2 11.71 1.58 3.24.36 6.4.22 9.28-1.64.29-.19.8-.06 1.34-.09-1.9 2.87-4.96 4.93-8.51 5.98-4.93 1.46-9.95 2.06-15.09 1.97-5.4-.1-10.17-1.51-13.8-5.76-2.55-2.98-5.93-4.01-9.73-3.85-1.73.07-3.46.32-5.28.5-.59-1.49-1.6-2.53-3.33-2.39-.28-.65-.44-1.24-.75-1.74-1.01-1.65-2.6-2.21-4.48-1.71-1.26.34-2.36.91-3.28 1.84-.35.36-.79.64-1.19.96-.67-.55-1.26-.99-1.79-1.5-2.13-2-4.61-3.44-7.26-4.6-.63-.28-1.39-.35-2.1-.37-1.95-.04-3.01 1.26-3.85 2.75-1.54 2.72-.7 4.63 2.3 5.39 2.21.56 4.43 1.05 6.62 1.66 1.65.46 3.34.84 4.55 2.3.41.49 1.3.78 1.99.81 2.03.12 3.64.87 5.06 2.34.5.51 1.6.73 2.36.63 1.02-.14 1.98-.75 2.98-1.09 1.12-.38 2.24-.79 3.39-1.01.84-.16 1.74-.06 2.61-.04 1.69.03 3.13.61 4.25 1.92 3.82 4.47 8.75 7.44 13.98 9.93 4.01 1.91 8.3 2.84 12.72 2.07 6.07-1.05 11.7-3.35 16.91-6.64.35-.22.71-.41 1.3-.74-1.63 3.71-4.02 6.12-7.8 6.68-3.17.47-5.69 1.87-7.45 4.48-.97 1.42-1.84 2.94-2.53 4.51-1.83 4.14-3.72 8.3-4.38 12.82-.35 2.43-.66 4.92-.5 7.35.27 4.24 4.3 6.51 8.18 4.8.97-.43 1.9-1.02 2.7-1.71 2.38-2.07 4.47-4.41 6.09-7.14.24-.41.71-.75 1.16-.95 5.28-2.42 9.6-5.98 13.19-10.69 1.61.79 3.24.48 4.7-.71 1.44-1.18 1.69-2.94 2.13-4.69 1.89.36 3.37-.06 4.05-2.18.74.78 1.3 1.33 1.83 1.93 1.68 1.9 3.23 3.94 5.04 5.7 3.57 3.47 7.92 5.16 12.95 4.84.9-.06 1.89-.36 2.64-.86 3.34-2.24 6.59-4.61 9.35-7.56 1.55-1.66 3.17-3.26 4.75-4.9 1.28-1.34 2.55-2.69 3.96-4.19 2.63 1.43 4.27-.46 5.74-2.35 2.85 1.35 5.63 1.74 8.6 1.27 1.13-.18 2.25-.4 3.38-.51 2.74-.26 5.2-1.19 7.37-2.89 1.58-1.24 3.24-2.37 4.84-3.59 1.17-.89 2.3-1.84 3.43-2.78.81-.67 1.59-1.37 2.39-2.07 4.41 3.9 10.09 5.24 14.71 8.39-.78 1.5-1.53 2.91-2.23 4.33-.78 1.58-.59 3.13.37 4.56 1.42 2.12 3.29 3.68 5.79 4.41.64.18 1.28.32 1.93.49-.21.94-.78 1.05-1.54.94-2.05-.31-4.11-.56-6.16-.89-1.63-.26-3.23-.56-4.36 1.3-2.82-1.02-5.59-2-8.34-3.03-1.51-.57-2.19-.31-2.77 1.23-.85 2.26-.23 3.77 1.99 4.68.67.27 1.41.42 2.13.55 2.14.37 4.23 0 6.3-.7.95 2.8 3 3.8 5.64 3.79 1.54-.01 3.08-.17 4.61-.31 2.63-.25 5.18-.74 7.17-2.71.05-.05.24.04.41.07.09 3.68.98 7.23 1.94 10.77.43 1.59 1.12 3.09 2.39 4.09 1.29 1.01 2.8 1.79 4.31 2.44 1.14.49 2.22-.09 3.12-.89.09-.08.25-.11.38-.1 1.2.07 1.76-.79 2.4-1.57 1.37-1.64 2.71-3.31 4.16-4.89 2.95-3.2 6.04-6.27 8.93-9.51 7.13-7.97 14.17-16.01 22.23-23.13 4.54-4.01 8.32-8.87 12.83-12.97.75-.69 1.33-1.7 1.68-2.67.53-1.49-.06-2.83-1.54-3.44zm-150.94 12.78c2.03 3.52 4.84 5.98 8.62 7.51-.93 1.9-1.86 3.78-2.84 5.78-3.19-3.16-7.57-2.1-11.31-3.19.06-.94.47-2.04.09-2.67-.66-1.1-1.71-2.05-2.77-2.82-1.73-1.26-3.75-1.7-6.46-1.72l-.59-1.43c5.2.1 10.29.12 15.26-1.46zM255.81 84.74c.68 1.7 1.18 3.11 1.81 4.47.76 1.65 1.44 3.3 1.26 5.17-.16 1.61.64 2.67 2.04 3.34.78.37 1.59.83 2.42.94 1.37.17 1.9 1.01 2.33 2.13 1.26 3.29 1.69 6.68 1.73 10.12-.09.63-.21 1.26-.34 1.88-4.36 1.07-8.59 2.43-13.21 2.47.18-.48.28-.85.44-1.19 1.04-2.25 1.31-4.64.9-7.03-.38-2.22-.82-4.49-1.64-6.57-2.05-5.2-4.3-10.32-6.52-15.45-.52-1.21-1.22-2.35-2.01-3.86 4.12.67 7.34 3.05 10.79 3.58z" class="st0"/><path d="M65.84 205.27c-3.31-3.95-7.33-4.49-12.02-2.29-.36-3.08-2.5-4.09-4.91-4.81-1.88-.56-3.72-.28-5.52.29-3.42 1.07-5.26 3.58-5.33 7.14-.01.46 0 .92 0 1.51-4.06.32-6.9 2.5-7.65 5.73-.76 3.26.52 5.64 4.31 7.97.4 4.17 2.45 7.25 6.69 8.45 4.08 1.15 7.7.36 10.33-3.21.29.06.5.07.66.15 3.66 1.86 7.13 1.26 10.48-.8 2.04-1.26 3.19-3.18 4.01-5.34.65-1.71-.36-3.09-.96-4.55-.05-.12-.07-.26-.1-.39 1.59-3.27 2.78-6.54.01-9.85zM25.48 186.61c-2.77-2.17-5.9-1.82-8.87.96-1.23-.12-2.22-.3-3.21-.3-2.39 0-4.32 1.99-3.82 4.3.29 1.34-.04 2.24-.68 3.28-1.27 2.09-1.1 4.19.19 6.23 1.73 2.74 4.75 3.15 7.15.99l.1-.1c.29-.05.61-.21.98-.51.55.16 1.07.32 1.6.41 2.39.41 4.31-.46 5.95-2.16 1.47-1.53 1.47-3.19.53-4.89 2.47-4.03 2.48-6.33.08-8.21zM29.79 200.37c.65.36 1.18-.01 1.39-.63.15-.45.1-.97.14-1.42-.91-.4-1.42-.09-1.8.53-.35.58-.35 1.18.27 1.52zM75.09 218.92c-.17.24-.19.79-.03 1.04.44.7 1.04.55 2.03-.4-1.04-1.1-1.54-1.28-2-.64zM28.54 204.62c-.05.07.35.44.66.82.32-.4.66-.66.73-.97.04-.19-.32-.47-.51-.71-.3.28-.65.53-.88.86z" class="st0"/><path d="M134.43 116.45c-.31.1-.67.37-.92.29-2.75-.88-5.51-1.74-8.2-2.77-.88-.34-1.61-1.13-2.35-1.79-.91-.81-1.88-1.29-3.16-1.38-1.5-.1-2.99-.47-4.47-.8-.74-.16-.76-.83-.78-1.45.51-.61.91-1.36 1.53-1.8 2.12-1.47 4.48-2.44 7.07-2.61 1.07-.07 1.92-.4 2.76-1.01 1.73-1.26 3.42-2.61 5.28-3.65 1.24-.69 2.82-1.43 4.11-1.23 1.69.26 2.62-.38 3.72-1.31 2.4-2.03 4.9-3.94 7.8-5.27 1.77-.81 3.62-1.19 5.48-.65 1.38.4 2.33.15 3.18-.91.29-.36.66-.67 1-.99 3.63-3.41 7.78-5.13 12.85-3.89.72.18 1.39.13 2.08-.38 2.21-1.61 4.42-3.24 6.77-4.65 2.72-1.63 5.64-3.12 8.92-2.48 2.12.42 3.78-.18 5.48-1.14.58-.33 1.18-.64 1.76-.97 3.02-1.77 6.15-2.94 9.76-2.03 1.66.42 3.19-.05 4.56-1.03 1.09-.78 2.16-1.58 3.23-2.39 1.16-.89 2.47-1.43 3.92-1.28 1.65.17 3.31.45 4.92.86.87.23 1.56.21 2.26-.3 2.03-1.5 4.31-2.11 6.82-1.82.85.21 1.99-.09 2.16 1.28.02.13.27.25.43.33 1.81.88 2.91 2.44 3.94 4.07 2.86 4.51 5.88 8.92 8.54 13.54 2.29 3.98 4.2 8.17 6.2 12.31.74 1.52 1.03 3.11.32 4.83-.33.81-.25 1.84-.15 2.75.15 1.31.57 2.58.71 3.88.19 1.68-.41 3.14-1.58 4.36-.41.43-.92.78-1.29 1.25-.74.95-1.54 1.68-3.04.94.15 4.17.28 8.09.45 12 .01.25.35.49.69.92.15-3.23 1.24-6.28-.82-9.07 1.17-3.02 3.02-3.79 5.33-2.11.52-1.22 1.69-1.38 2.8-1.57 3.69-.64 7.38-1.25 11.07-1.84.84-.13 1.03-.72 1.19-1.39 1.06-4.27 1.36-8.55.05-12.83-.12-.38-.32-.77-.31-1.15 0-.5.02-1.27.31-1.44.41-.24 1.08-.06 1.64-.01.18.02.34.18.54.28 1.77-1.25 3.14-3.78 5.8-2.52 2.82 1.34 3.18 2.32 2.88 5.1.52.67 1.22 1.21 1.42 1.89.77 2.69 1.45 5.4 2.03 8.14.53 2.52.17 5.05-.26 7.55-.16.92-.23 1.76.17 2.71.67 1.56.2 3.06-.95 3.98-1.13.9-2.7.97-4.13.06-.78-.49-1.46-1.14-2.13-1.68-1.78 1.02-3.6 1.99-5.33 3.09-2.49 1.58-5.32 2.02-8.11 2.62-.26.06-.59.15-.79.05-1.57-.78-2.83.07-4.14.71-1.47.73-2.94 1.25-4.61.49-.41-.18-1.01.01-1.51.09-.56.09-1.11.25-1.61.37-.15 1.19-.24 2.37-.44 3.54-.23 1.35-1.08 1.87-2.32 1.26-1.87-.92-3.83-.99-5.84-1.18-4.54-.43-9.05-1.1-13.58-1.62-1.12-.13-2.26-.08-3.38-.12-3.01-.05-6.02-.11-9.03-.16-4.3-.11-8.61-.21-12.91-.32l-8.58.03c-1.62-.04-3.31-.63-4.88.62.32 1.47.6 2.96.98 4.43.09.34.46.61.7.92.6 1.68 1.19 3.37 1.79 5.05.43.89.81 1.81 1.28 2.67 1.62 2.97 3.28 5.9 4.89 8.88.74 1.38.05 2.41-1.58 2.54-.49.04-1.02.13-1.43.37-2.48 1.42-4.92 2.69-7.65.49-.3-.24-.88-.25-1.32-.22-.72.05-1.43.21-2.15.33-.41.03-.82.07-1.23.1-.55-.47-1.05-.83-1.93-.77-2.07.14-2.92-.91-2.54-2.99.45-2.4 1.47-4.58 3.02-6.45.59-.72.67-1.33.59-2.17-.24-2.52-.42-5.04-.59-7.57-.07-1.04.17-2.12-.74-2.99-.21-.2-.21-.79-.09-1.12.51-1.43 1.08-2.85 1.67-4.25.2-.48.44-1.21.82-1.32 1.58-.49 2.24-2.07 3.6-2.77 3.8-1.96 7.56-4.01 11.44-5.8 2.23-1.03 4.59-1.74 6.79-2.93 3.7-2.01 7.84-2.62 11.96-3.25 5.02-.76 10.16-.75 15.04-2.4.69-.23 1.45-.27 2.18-.34 2.29-.24 4.57.11 6.87.06 1.25-.03 2.5.41 3.77.57.36.04.75-.18 1.38-.35-2.19-1.12-4.15-1.63-5.85-1.5-3.14.24-6.28.51-9.42.79-8.29.73-16.49 2-24.57 4.03-1.46.37-2.94.67-4.37 1.12-.88.28-1.68.81-2.54 1.19-4.62 2.06-9.29 4.05-13.62 6.7-.87.54-1.54 1.18-2.17 1.99-.67.86-1.65 1.49-2.49 2.22-.5-.16-1-.39-1.52-.46-2.03-.29-3.84.36-5.45 1.53-1 .73-1.86 1-3.09.4-1.87-.91-3.78-.74-5.78.04-2.4.94-4.54 2.23-6.39 3.94-1.13 1.04-2.15 1.05-3.44.44-2.51-1.17-5.06-1.05-7.54.11-1.27.59-2.47 1.31-3.73 1.92-.38.19-.85.2-1.28.29.41-.57.76-1.2 1.24-1.7.74-.76 1.59-1.42 2.36-2.16.27-.26.62-.62.63-.95.07-3.18.52-6.37-.17-9.53-.34-1.56-.77-3.11-.92-4.69-.11-1.11-.64-1.76-1.56-2.06-.93-.29-1.94-.48-2.91-.47-1.74.02-3.36.96-5.15.76-.04 0-.09.09-.13.15-.04 0 .01-.02.01-.02zm110.86-3.89c.19.74.38 1.44.56 2.13.12.01.24.03.36.04.3-.68.6-1.35.97-2.17h-1.89z" class="st1"/><path d="M229.78 67.62c-2.52-.28-4.79.32-6.82 1.82-.7.52-1.39.53-2.26.3-1.61-.42-3.26-.69-4.92-.86-1.45-.15-2.76.39-3.92 1.28-1.06.81-2.14 1.6-3.23 2.39-1.37.99-2.9 1.45-4.56 1.03-3.6-.91-6.74.26-9.76 2.03-.58.34-1.17.65-1.76.97-1.7.96-3.36 1.56-5.48 1.14-3.28-.64-6.2.85-8.92 2.48-2.34 1.41-4.56 3.03-6.77 4.65-.69.5-1.36.55-2.08.38-5.07-1.24-9.21.48-12.85 3.89-.34.32-.71.63-1 .99-.85 1.06-1.81 1.31-3.18.91-1.85-.54-3.7-.16-5.48.65-2.9 1.33-5.39 3.24-7.8 5.27-1.1.93-2.03 1.57-3.72 1.31-1.29-.19-2.87.54-4.11 1.23-1.86 1.04-3.55 2.39-5.28 3.65-.84.61-1.68.94-2.76 1.01-2.59.17-4.95 1.14-7.07 2.61-.63.44-1.03 1.19-1.53 1.8-1.15.59-2.31 1.29-3.32-.25-.08-.13-.36-.19-.55-.19-2.67-.01-3.29-2.02-3.68-3.98-.44-2.21-.6-4.48-.76-6.74-.57-7.93 1.18-15.47 4.1-22.79.34-.85.77-1.59.38-2.64-.21-.56.19-1.41.45-2.08 1.34-3.36 3.17-6.46 5.27-9.4 1.94-2.71 3.93-5.38 5.9-8.07l-.03.03c1.56-1.3 2.85-2.8 3.55-4.74.43-.43.86-.87 1.29-1.3 2.12-.32 2.45-.67 2.13-2.28-.95-1.16-1.23-2.51-1.1-3.96.27-.84.53-1.68.8-2.51.86-1.14 1.73-2.27 2.68-3.54.68.33 1.5.73 2.32 1.12.58 1.53 1.17 3.05 1.78 4.64 1.57-.36 3.38-.78 5.19-1.2 3.38-.79 6.75-1.66 10.15-2.37a44.196 44.196 0 0115.39-.49c3.78.54 7.62.59 11.41 1.04 3.12.37 6.26.79 9.29 1.58 3.61.95 7.22 2.08 10.63 3.57 4.59 2 9.04 4.36 13.46 6.72 1.39.74 2.63 1.88 3.69 3.05 1.3 1.43 2.83 2.43 4.5 3.29.95.49 1.93.94 2.85 1.49 1.31.79 2.21 1.81 2.29 3.51.04.9.27 1.95 1.31 2.5.38.2.6.69.92 1.01.35.34.7.73 1.13.94 1.68.79 1.95 1.21 1.84 3.11z" class="st0"/><path d="M140.99 137.12c.43-.09.9-.1 1.28-.29 1.26-.61 2.46-1.33 3.73-1.92 2.48-1.16 5.03-1.28 7.54-.11 1.29.6 2.31.6 3.44-.44 1.86-1.71 3.99-3 6.39-3.94 2-.78 3.9-.95 5.78-.04 1.23.59 2.08.33 3.09-.4 1.6-1.16 3.42-1.81 5.45-1.53.52.07 1.01.3 1.52.46.73 1.65.65 3.11-.91 3.97 0 1.56.07 2.89-.02 4.2-.1 1.39-.38 2.76-.52 4.15-.08.78-.16 1.58-.04 2.35.75 4.7-.27 8.93-3.13 12.77-.65.87-1.02 1.95-1.53 2.93l.03-.03c-.14.15-.29.3-.43.44l.04-.03c-1.74 2-3.49 4-5.23 6.01-1.75 2.02-3.51 3.97-6.01 5.2-1.23.61-2.23 1.69-3.27 2.62-5.69 5.1-12.5 8.13-19.69 10.44-1.25.4-2.55.75-3.94.27-.5-.17-1.16.1-1.75.2-1.84.31-3.71 1.01-5.51.87-2.41-.19-4.94-.17-7.22-1.33-.45-.23-1.03-.21-1.55-.28-1.98-.28-3.97-.54-5.95-.82-.26-.04-.56-.2-.76-.12-2.45 1.1-4.71.14-7.01-.54-.32-.09-.65-.12-.98-.18-.09-.08-.18-.15-.26-.23l.09.41c.03 1.22-.59 1.96-1.69 2.44-2.66 1.15-5.35 2.11-8.38 1.57-3.71 3.06-4.86 2.87-7.16-1.3-2.87.21-5.79.44-8.71.62-.53.03-1.08-.04-1.59-.17-1.06-.28-2.28-.74-2.31-1.9-.02-.95.67-1.93 1.11-2.86.09-.2.51-.47.64-.41 1 .47 2.06-.08 3.02.18 2.76.75 5.5 1.61 8.19 2.4.98-.62 1.97-1.38 3.07-1.88 1.86-.85 2.83-.35 3.46 1.62.14.44.24.89.4 1.48.37-.18.75-.23.89-.45.63-.93 1.63-1.13 2.6-1.36 1.54-.37 3.09-.68 4.83-1.05-.94-.76-1.78-1.39-2.56-2.09-1.47-1.31-2.3-2.89-2.19-4.93.03-.63-.14-1.31-.37-1.9-.68-1.75-.65-3.47-.12-5.27 1.71-5.74 5.4-10.16 9.48-14.36.92-.94 1.6-2.12 2.34-3.22.16-.23.19-.64.11-.93-.56-2.02.26-3.49 1.81-4.71.24-.19.38-.52.57-.79 1.12-.58 2.24-1.16 3.35-1.75 1.62-.86 3.22-.64 4.76.17.81.43 1.54.99 2.35 1.52 1.42-1.42 3.12-1.24 4.79-1.16 1.23.87 2.33 2.26 4.07.94 3.18-.37 5.82-1.92 8.31-3.78l2.19-1.2c.03-.16.06-.33.08-.49l-.01-.04z" class="st2"/><path d="M230.95 162.75c1.21.82 1.38 1.19.66 2.15-2.14 2.86-4.83 5.16-7.77 7.17-.73.49-1.47.53-2.24-.03-.39-.29-.89-.44-1.57-.75.09.73.11 1.18.21 1.61 1.19 5.15 3.27 9.99 5.29 14.85.22.52.75.92 1.13 1.38.62.75.9 1.49.01 2.25-1.06.9-2.05 1.89-3.18 2.69-1.08.77-2.28 1.4-3.46 2.03-1.51.8-2.97.45-3.73-1.07-.71-1.41-1.77-2.2-3.16-2.82-2.83-1.26-5.44-2.88-7.76-4.95-.1-.09-.19-.2-.31-.25-2.37-.88-3.32-2.92-4.21-5.02-.07-.17-.23-.31-.45-.59-.4.39-.76.73-1.13 1.08-.9.27-1.79.53-2.69.8-.84-.33-1.68-.66-2.51-.99-1.63.57-3.24 1.19-4.89 1.68-.6.18-1.37.2-1.95-.01-1.59-.59-2.98-.32-4.32.59-.28.19-.56.36-.85.52-2.45 1.38-3.55 1.04-4.66-1.46-2.25-.51-2.45-.88-1.95-3.13.48-2.13.84-4.29 1.33-6.42.31-1.34.76-2.65 1.14-3.97l-.01.05.39-1.08c.16-.34.32-.69.48-1.03.46-.95.93-1.9 1.39-2.86.38-.8.79-1.53 1.79-1.74.37-.08.68-.4 1.02-.59.63-.36 1.27-.97 1.91-.99.69-.01 1.4.54 2.22.91 2.09-1.83 4.82-2.56 7.55-3.24 1.56-.39 3.26-.77 4.71.05.84.47 1.43.42 2.23.22 2.99-.76 5.96-1.02 8.55.51 1.2-.24 2.17-.56 3.16-.62 4.26-.27 5.33 1.04 4.39 5.2-.04.19-.22.41-.17.56.15.46.38.89.69 1.56.77-2.23.77-2.14 2.73-1.99 2.42.19 4.75-.36 6.98-1.3l-.05.03c.19-.09.37-.18.56-.27.82-.27 1.66-.5 2.5-.72zM126.35 141.71c-1.67-.07-3.37-.25-4.79 1.16-.81-.53-1.54-1.09-2.35-1.52-1.54-.81-3.14-1.03-4.76-.17-1.11.59-2.23 1.17-3.35 1.75-.09-.23-.33-.52-.26-.69 1.38-3.8 1.22-7.68.63-11.58-.16-1.05-.38-2.09-.62-3.13-.56-2.48-.56-2.5 1.48-4.39-.59-.26-1.12-.49-1.64-.72-4.6-1.99-9.2-3.97-13.78-6-.63-.28-1.13-.85-1.7-1.27-.31-.23-.63-.53-.98-.6-1.49-.33-3-.59-4.57-.88-.96 1.99-1.89 3.89-2.81 5.8-.77 1.61-1.5 1.81-2.82.55-.68-.65-1.37-.25-2.05-.37l.04.03c-.56-.88-1.49-.74-2.33-.8-2.25-.18-2.8-1.07-1.68-2.94.75-1.25 1.55-2.53 2.56-3.57 1.93-1.98 3.17-4.28 3.8-6.91.33-1.36 1.15-2.2 2.35-2.8.93-.46 1.87-.52 2.62.2 1.62 1.55 3.51 2.01 5.73 2.25 5.63.59 11.04 2.11 16.2 4.48 1.39.64 2.91 1 4.37 1.46 5.77 1.79 11.37 3.99 16.78 6.92.65-.49 1.33-1 2-1.51l-.05.03c1.78-.53 3.53-.35 5.33.03 1.85.4 2.98 1.49 3.46 3.23.52 1.85.95 3.72 1.35 5.6.14.64.14 1.32.12 1.99-.07 3.7-1.72 6.65-4.46 9.05-.78.68-1.46 1.37-1.44 2.49-2.49 1.86-5.13 3.41-8.31 3.78-1.76.05-2.92-.7-3.41-2.43-.2-.72-.61-1.31-1.5-1.32l-.4-.4c-.16-.46-.32-.91-.48-1.37-.4.77-.32 1.28.51 1.33.14.13.27.27.41.4.28.43.57.85.83 1.29.31.51.58 1.04-.03 1.55zm-2.44-8.9c.81-1.64 2.41-1.55 4.16-1.7-.85-.62-1.39-1-1.91-1.4-2.45-1.93-5.41-2.88-8.19-4.19-.49-.23-1-.42-1.51-.62.17.42.44.61.73.76 1.67.86 3.33 1.73 5.01 2.54 1.83.88 1.85.88 1.71 2.85-.04.59 0 1.17 0 1.76zm-9.15-8.47c.06-.02.12-.04.17-.06-.06-.03-.11-.08-.17-.08s-.12.04-.18.06c.06.02.12.05.18.08zm1.04.33c-.04-.04-.08-.1-.12-.1s-.09.05-.13.08c.04.04.08.1.12.1.04.01.08-.05.13-.08z" class="st1"/><path fill="#f0f0f0" d="M230.95 162.75c-.84.23-1.67.45-2.51.68-.19.09-.37.18-.56.27l.05-.03c-1.98-.06-3.97-.11-5.95-.2-1.82-.08-3.24-1.45-3.46-3.29-.05-.44-.07-.89-.1-1.36-1.19-.41-2.28-.72-3.32-1.16-.95-.41-1.73-.35-2.62.23-1.2.78-2.47 1.83-3.92.33-.07-.08-.26-.05-.39-.08-1.56-.28-3.12-.57-4.71-.86-.98 2.07-1.91 2.23-3.65.56-.14-.14-.29-.28-.42-.43-2.64-3.12-4.62-6.66-6.56-10.23a1.8 1.8 0 01-.21-.56c-.24-1.39-1.1-2.19-2.41-2.58-.6-1.68-1.19-3.37-1.79-5.05-.03-.72-.05-1.44-.09-2.16-.2-3.36-.19-3.38 3.29-3.81l8.58-.03c3.32.21 6.64.46 9.97.62.97.04 1.96-.19 2.94-.3 3.01.05 6.02.11 9.03.16.37.19.72.46 1.12.57 1.8.48 3.62.91 5.43 1.36.45.11.88.36 1.33.4 3.39.3 6.79.6 10.19.82 1.51.1 2.3.63 2.23 2.17-.07 1.51-.2 3.12-.79 4.48-1.53 3.55-3.31 6.98-5.02 10.45-.2.41-.46.86-.82 1.12-1.6 1.17-2.25 2.86-2.92 4.62-.46 1.19-1.29 2.21-1.94 3.29zm2.96-21.59c-.46-.06-.65-.12-.83-.09-.23.03-.44.13-.88.26.41.38.66.62.91.85.23-.3.46-.59.8-1.02z"/><path d="M80.81 133.13c.14.51.43 1.03.4 1.53-.12 1.84 1.01 2.5 2.51 3.05 1.35.49 2.62.86 4.09.56 1.04-.21 2.14-.09 3.21-.16 2.04-.15 3.46.9 4.53 2.44.33.47.37 1.28.26 1.88-.41 2.29-.72 4.64-1.49 6.82-.85 2.43-.23 4.56.63 6.72.79 1.98.7 2.48-1.23 3.46-1.7.86-3.21 2.26-5.32 1.96-.04.12-.09.18-.08.24.38 4.57-2.41 7.23-5.84 9.48-1.27.83-2.75 1.53-4.17.91-1.49-.64-2.83-1.71-4.07-2.78-.88-.77-1.48-1.87-2.3-2.94-.67.11-1.38.27-2.1.35-1.4.17-1.78-.24-2.52-1.4-1.16-1.83-2.72-3.42-2.93-5.73-.02-.18-.37-.35-.59-.49-.89-.58-1.79-1.14-2.85-1.81-.3.31-.61.75-1.03 1.01-.35.22-.91.42-1.23.29-.34-.14-.75-.71-.71-1.05.3-2.7-.16-5.48.97-8.09 2.84-6.53 5.34-13.23 9.56-19.09.72-1 1.43-1.33 2.68-1.2 2.2.24 4.01 1.37 5.96 2.2l-.01-.02c.19.13.38.27.57.4 1.05.49 2.08.97 3.1 1.46zM259.25 83.86c-.94-.29-1.92-.48-2.8-.91-1.09-.53-2.07-1.22-3.4-.73-.32.12-.8-.04-1.16-.18-.92-.35-1.78-.98-2.73-1.13-3.04-.46-4.5-3.06-6.67-4.68-.29-.22-.32-.84-.39-1.28-.44-3.04.5-5.81 1.81-8.47.67-1.36 1.2-1.46 2.59-.84.78.35 1.54.75 2.35 1.02.27.09.65-.16 1.05-.28-1.17-.68-2.19-1.29-3.22-1.87-.22-.12-.48-.2-.72-.24-1.77-.28-2.11-.55-1.96-2.23.39-4.31 1.43-8.39 4.55-11.67.69-.73 1.42-.6 2.2-.28 1.35.55 2.74 1.04 4.04 1.7.86.44 1.6 1.12 2.51 1.78.82-.39 1.86-.95 2.96-1.37.46-.17 1.15-.24 1.53-.01 1.94 1.13 3.81 2.37 5.64 3.53 1.36-.48 2.73-.94 4.08-1.46 2.24-.85 2.44-.78 3.46 1.35 2.34-.74 2.84-.24 3.73 2.33 2.14 6.2 2.01 12.46-1.18 18.4-.42.78-1.19 1.39-1.81 2.06-.22.24-.66.38-.72.64-.52 2.34-2.41 3.21-4.31 4.07-.69.05-1.37.1-2.06.16-1.34-.13-2.67-.27-4.01-.4-1.9-.23-3.88-.96-5.36.99zm-6.21-16.99c1.73.68 3.47 1.21 5.19.41-1.56-1.19-3.43-.04-5.19-.41z" class="st1"/><path d="M258.91 205.31c1.26-.88 2.12-1.99 2.19-3.6.01-.26.12-.52.21-.77 1.95-5.38 3.88-10.76 5.88-16.12.34-.93.86-1.82 1.45-2.62.4-.56 1.05-.95 1.6-1.39.25-.2.69-.29.79-.54.68-1.65 2.22-2.12 3.69-2.48 2.98-.74 5.99-1.45 9.04-1.88 1.61-.22 3.34.06 4.97.33 1.36.22 1.62 1.32.74 2.39-1.03 1.26-2.01 2.58-3.08 3.81a52.067 52.067 0 01-3.32 3.49c-3.67 3.51-7.35 7.01-11.1 10.45-1 .92-2.06 1.96-3.71 1.66-.28-.05-.7.32-.96.58-.46.48-.95.98-1.25 1.56-1.05 1.97-2.77 3.37-4.12 5.08-.47.6-.75 1.36-1.14 2.02-.44.74-.81 1.56-1.38 2.18-1.86 2.01-3.74 4.01-5.71 5.91-2.25 2.18-4.67 4.2-6.89 6.41-1.17 1.17-2.07 2.61-3.08 3.94-1.02 1.34-1.02 1.34-2.54.73-1.06 1.2-2.05 2.44-3.19 3.53-.55.52-1.36.85-2.1 1.09-1.54.5-2.44-.11-2.73-1.66-.4-2.15-.81-4.29-1.24-6.43-.06-.3-.19-.68-.42-.84-1.18-.83-1.23-1.96-.99-3.21.13-.71.18-1.43.26-2.12-1.96-.86-2.21-1.49-1.47-3.4.23-.59.36-1.22.54-1.83l-.01.1c1.45-1.54 2.93-3.06 4.35-4.63.29-.31.39-.8.57-1.2 0-.1.04-.15.15-.15 1.44-1.06 2.87-1.18 4.38.25.82-1.14 1.67-2.09 2.26-3.17 1.7-3.1 4.63-5 7.04-7.41.46-.46 1.08-.49 1.65-.07l-1.95 7.23c-.59 1.51-1.23 3.01-1.75 4.55-.11.34.2.81.32 1.23l-.36 6.4-.18 2.4c.14.05.28.11.42.16.57-.67 1.13-1.35 1.7-2.02l-.04.04c.56-.52 1.12-1.03 1.68-1.55.27-.27.54-.54.82-.81l.37-.46-.04.03c.14-.15.29-.29.43-.44l-.04.04c.36-.36.72-.71 1.07-1.07.75-.51 1.57-.94 2.22-1.55.87-.79 1.61-1.72 2.4-2.6.4-.41.8-.81 1.2-1.22l-.03.04c.14-.15.29-.3.43-.44v.05zM178.78 168c-.16.34-.32.69-.48 1.03l-.39 1.08.01-.05c-.46.8-1.02 1.56-1.37 2.4-1.33 3.2-2.59 6.43-3.86 9.61.49.95.94 1.81 1.36 2.62.62.06 1.25.01 1.79.19 2.02.66 2.55 3.02 1 4.45-.62.58-1.41.98-1.89 1.31-.92 4.33-2.62 8.04-5.96 10.76-1.43 1.16-3.28.74-4.95.12-.61-.23-1.23-.43-1.84-.65l.03.04c-.3-.78-1-.65-1.62-.69-.54-.33-1.07-.65-1.61-.98-.4-1.15-1.46-1.68-2.38-2.23-.77-.46-1.38-.91-1.9-1.66-.6-.85-1.48-1.52-2.24-2.25-.29-.28-.64-.5-.89-.8-.87-1.11-.57-2.18.73-2.69.42-.16.87-.24 1.81-.5-1.94-.34-3.07-.99-3.22-2.66-.77 0-1.44.06-2.09-.02-.85-.1-1.59-.49-1.68-1.44-.08-.87.55-1.3 1.27-1.6.18-.08.38-.11.58-.16 3.4-.85 6.27-2.61 8.78-5 3.96-3.78 7.99-7.5 11.87-11.36 1.21-1.2 2.08-2.75 3.05-4.17.18-.27.13-.71.12-1.08-.01-.65-.07-1.3-.11-1.96l-.04.03c.14-.15.29-.3.43-.44l-.03.03c.49-.2.96-.48 1.46-.59.56-.12 1.37-.33 1.7-.06 1.51 1.26 3.16.69 4.79.59.41-.03.82-.07 1.23-.1.85.03 1.5.43 1.4 1.29-.05.46-.58 1.14-1 1.23-2.09.46-2.91 2.34-4.52 3.45.9.95.93 1.91.66 2.91zm-15.82 21.77c-2.05-.71-2.05-.71-2.8.34.99-.13 1.89-.23 2.8-.34z" class="st0"/><path d="M246.51 214.73l.36-6.4c1.09-1.78 1.5-3.72 1.42-5.78l1.95-7.23c.48-1.25 1.43-2.39.89-3.86.12.04.23.08.35.12-.11-.04-.23-.07-.34-.11-.11.16-.19.38-.35.47-2.8 1.61-4.32 4.81-7.51 5.94-.11.04-.19.19-.26.3-1.39 2.24-3.65 3.21-6.07 4.02.04 1.59-1.23 2.42-2.04 3.51-.1 0-.15.04-.15.15-1.59 1.58-3.19 3.14-4.74 4.75-.24.25-.86.61-.18 1.08l.01-.1c-.3.11-.72.13-.89.35-.95 1.21-1.83 2.46-2.75 3.69-.32.43-.68.83-1.04 1.21-1.24 1.31-1.48 1.32-2.79.22-2.51.53-4.92 1.05-7.34 1.53-.51.1-1.07.08-1.59.04-.81-.06-1.4-.38-1.45-1.32-.04-.91-.31-1.83-.19-2.71.14-1.04.66-1.3 1.71-1 .97.28 1.91.27 2.92.21 1.77-.1 3.63-.36 5.13.82 1.42-.49 2.35-1.33 3.06-2.56.65-1.14 1.58-2.13 2.39-3.18 1.88-1.72 3.76-3.43 5.64-5.15.5-.46 1-.91 1.81-1.66l-4.53-.81.01.01c-.14-.14-.29-.28-.43-.42l.02.02c-1.28-2.42-1-4.77.42-7 2.02-3.17 6.13-4.26 9.55-2.58 1.06.52 2.11 1.08 3.15 1.62 1.37-2.04 1.65-2.39 3.85-1.43.11-.16.4-.38.39-.6-.03-1.75 1-3.01 2.03-4.21.63-.73 1.45-1.38 2.31-1.82 1.27-.64 2.2.06 2.49 1.47.28 1.36.19 2.61-.81 4.17.92-.31 1.44-.49 1.92-.65 1.45 1.3 1.46 1.3.8 2.86-.57 1.32-1.16 2.64-1.95 4.42.77-.38 1.22-.46 1.36-.7.88-1.56 1.79-3.12 2.52-4.75 1.26-2.83 2.69-5.52 5.31-7.38.43-.31.88-.65 1.37-.81.96-.32 1.82.52 1.46 1.46-.48 1.22-.95 2.5-1.71 3.55-1.53 2.11-2.42 4.44-2.9 6.95-.26 1.36-.18 2.78-.48 4.12-.45 1.94-1.11 3.83-1.68 5.74l.02-.03c-.14.15-.29.3-.43.44l.03-.04c-.4.41-.8.81-1.2 1.22-.79.87-1.53 1.8-2.4 2.6-.66.6-1.48 1.04-2.22 1.55-.36.36-.72.71-1.07 1.07l.04-.04c-.14.15-.29.29-.43.44l.04-.03-.37.46c-.27.27-.54.54-.82.81-1.43-.04-1.43-.04-1.68 1.55l.04-.04c-.72-.04-1.49.18-1.98-.54zm4.37-9.4c.12-.29.24-.59.36-.88-.11-.02-.23-.05-.34-.07l-.06.9c-.05.07-.1.13-.15.2.06-.05.12-.1.19-.15zm.49-1.72c2.12-3.85 2.51-4.88 2.07-5.9-.74 1.79-1.41 3.4-2.07 5.02v.88z" class="st2"/><path d="M159 199.24c.54.33 1.07.65 1.61.98l1.62.69-.03-.04c1.14 1.4 1.13 1.4.07 2.61-.26.3-.47.64-.71.95-1.15 1.54-2.21 3.16-3.49 4.59-1.54 1.75-3.26 3.34-4.91 4.99-.84.84-1.67 1.6-2.93 1.98-.96.29-1.72 1.22-2.58 1.84-.8.57-1.62.96-2.52.1-.17-.16-.59-.22-.84-.14-1.93.59-3.35-.54-4.89-1.33-.48-.24-1.07-.53-1.56-.45-1.94.28-3.15-.83-4.34-2.04-.4-.41-.75-1.12-1.21-1.21-2.23-.41-2.84-2.09-3.39-3.88-.09-.31-.19-.66-.4-.87-1.38-1.33-1.63-2.95-1.35-4.74l-.01.05c.14-.28.29-.56.43-.85l-.04.03c.7-.57 1.45-1.08 2.1-1.71 1.62-1.56 3.54-1.36 5.37-.77 1.49.48 2.96.23 4.42.44.39.05.87-.13 1.16.04 1.6.95 3.16 1.97 4.9 3.07.27-.38.66-.9 1-1.44 1.08-1.69 2.12-3.4 3.21-5.08.32-.5.71-.98 1.14-1.38 1.54-1.41 2.46-1.13 2.99.62 1.86 1.07 3.52 2.01 5.18 2.95z" class="st1"/><path d="M102.21 205.77c.12-.77.26-1.53.35-2.31.1-.9.25-1.66 1.39-1.9.49-.1 1-.58 1.32-1.01 1.86-2.55 3.15-5.39 4.32-8.3.43-1.08.57-2.46 1.85-2.95 1.69-.64 3.44-1.09 5.29-.76.77.14 1.55.24 2.33.37.72.11 1.47.16 2.16.36 1.85.54 2.43 1.96 1.59 3.71-.31.64-.61 1.28-.91 1.92l.03-.02c-.14.14-.29.28-.43.42l.02-.03c-.43.13-.8.3-.41.84l.02-.03-.43.43.03-.03c-.14.14-.29.28-.43.43l.02-.03c-.31.16-.69.26-.92.5-1 1.04-1.9 2.19-2.96 3.16-1.1 1-1.64 2.11-1.36 3.58-.54-.81-1.03-1.66-1.63-2.42-1.31-1.64-3.92-2.06-5.64-.96-1.56.99-2.47 3.94-1.45 5.53.66 1.02 1.7 1.88 2.73 2.57.92.61 1.94.01 2.88-.33.18-.06.38-.05.49-.07 1.19.74 1.81 1.68 2.09 3.01.22 1.07.93 2.03 1.42 3.04h-2.7c-2.94 2.83-5.82 5.61-8.72 8.38-.81.78-1.56 1.62-2.81 1.81-.44.07-.82.63-1.18 1.01-1.57 1.65-3.11 3.32-4.68 4.96-.51.53-1.1.97-1.62 1.5-2.14 2.18-5.38.95-7.01-.5-.62-.55-.99-1.64-1.05-2.51-.13-1.78-.25-3.64.13-5.36.55-2.52 1.42-5 2.37-7.41.52-1.33 1.42-2.53 2.26-3.71.19-.26.81-.22 1.24-.32-.14 2.31-.29 4.62-.43 6.93-.46 1.3-.91 2.59-1.36 3.88 1.77.71 5.11-.91 8.16-3.79 1.27-.69 1.79-1.87 2.13-3.18.68-.71 1.35-1.41 1.88-1.97-.28-1.68-.52-3.1-.76-4.52.1-1.3.25-2.61.39-3.92zm10.61-6.15c-1.13-1.13-1.13-1.13-1.87 0h1.87zM42.16 212.86c-.52-2.3-.69-4.44-.02-6.51.39-1.18.91-2.39 1.66-3.37 1.69-2.2 4.34-2.24 6.25-.21 1.52 1.62 2.18 3.64 2.49 5.79.08.59.13 1.18.22 1.99.42-.26.77-.39.99-.63.73-.85 1.3-1.9 2.15-2.6 1.99-1.63 3.86-1.07 5.49.88 1.86 2.24 1.7 4.41.36 6.61-.77 1.28-.63 2.29-.02 3.51 1.13 2.26.77 3.9-1.05 5.55-.78.7-1.64 1.13-2.73 1.01-.52-.06-1.07-.03-1.59.03-.98.12-1.87.01-2.61-.72a2.41 2.41 0 00-.48-.36c-2.26-1.31-2.31-1.35-4.05.64-1.3 1.48-3.1 2.07-4.78 2.81-1.41.62-2.4-.36-3.22-1.49-.24-.02-.5-.05-.76-.05-2.56-.04-3.66-1.24-3.05-3.66.25-1-.07-1.31-.81-1.63-.3-.13-.56-.4-.87-.48-.9-.22-1.66-.51-1.81-1.58-.16-1.15.1-2.25 1.05-2.85 1.46-.9 3.04-1.63 4.62-2.3.72-.26 1.57-.23 2.57-.38z" class="st0"/><path d="M79.81 198.52c-.57.07-1.13-.02-1.44.21-1.16.85-2.3.5-3.45.1-2.14-.75-3.85-2.12-5.4-3.73-1.81-1.87-3.63-3.75-5.56-5.49-2.06-1.86-4.72-2.06-7.34-2.23-.6-.04-1.2.07-1.81.09-1.03.02-2.01-.08-2.3-.95-.94.78-1.94 1.54-2.87 2.37-1.31 1.18-2.39 1.01-3.12-.54-.12-.26-.28-.56-.51-.73-1.16-.87-2.34-1.7-3.63-2.63-.84.73-1.98 1.1-3.12.38-.99-.63-1.85-1.47-2.63-2.1-2.92-.79-5.75-1.54-8.58-2.32-.87-.24-1.35-.75-1.17-1.77.32-1.79.68-2.37 1.86-2.4.72-.01 1.47.14 2.17.34 2.27.65 4.4 1.61 6.21 3.17.2.17.38.4.62.5 1.37.63 2.76 1.23 4.21 1.87.63-.69 1.34-1.57 2.17-2.32.97-.89 1.29-.78 2.42 0s2.31 1.52 3.54 2.12c2 .98 2.02.93 2.19 2.97 3.9-2.12 7.77-1.69 11.62.14.53.25 1.12.58 1.46 1.04 1.88 2.53 4.79 3.83 7.02 5.95.33.31.75.63 1.17.73 3.33.73 6.58 1.91 10.08 1.59 3.11-.28 6.28.03 9.32-1 .97-.33 2.2-.02 3.06-.47 3.3-1.75 6.88-3.05 9.66-5.66.92-.86 1.72-1.86 2.57-2.8.52-.58 1.09-1.05 1.91-.58.86.5.85 1.24.53 2.08-1.48 3.98-3.95 7.06-7.95 8.79-.54.23-1.2.57-1.7.45-1.11-.26-1.9.25-2.83.65-3.2 1.36-6.39 2.76-9.68 3.89-1.61.56-3.41.68-5.14.77-1.65.09-3.23-.33-3.56-2.48zM196.59 183.27c.9-.27 1.8-.53 2.69-.8 2.12 1.99 2.55 4.09.03 6.22-1.37 1.15-2.43 2.69-3.87 3.73-2.97 2.14-6.05 4.16-9.2 6.04-1.03.61-2.42.77-3.67.86-1.53.11-3.05.03-4.5.68-.22.1-.53.04-.8 0-1.66-.23-1.87-1.94-2.83-2.87-.3-.29-.02-1.4.26-2.03.45-1.03 1.12-1.97 1.69-2.94.8-1.37 1.64-2.73 2.4-4.13.44-.82 1.05-1.32 1.91-1.64 1.87-.69 3.79-.76 5.75-.76.91 0 1.84-.12 2.72-.35 1.03-.27 2.01-.75 3.02-1.1 1-.35 1.96-.82 3.11-.51.35.08.85-.26 1.29-.4z" class="st2"/><path d="M133.97 35.23c-.82-.4-1.64-.79-2.32-1.12-.96 1.26-1.82 2.4-2.68 3.54-1.32-.67-.16-1.78-.4-2.61-.17-.07-.32-.2-.4-.16-2.13.86-3.38 2.4-3.86 4.66-.27 1.26-.78 2.47-1.19 3.7l-2.43 2.79.04-.03c-.93.64-1.86 1.29-2.8 1.93-1.26.63-2.51 1.36-4 .67-1.04-.56-1.16-1.46-.65-2.34.58-1.01 1.33-1.94 2.07-2.86.49-.61 1.1-1.13 1.66-1.68.09-.07.18-.14.28-.22 1.61-.31 3.31-.43 4.3-2.23-.48-.05-.86-.06-1.23-.12-1.1-.2-2.08-.59-2.41-1.79-.25-.92.43-1.9 1.76-2.6.35-.18.75-.28 1.12-.41.82-.27 1.64-.54 2.46-.8.99.09 1.97.12 3.24-.67-1.38-.14-2.32-.24-3.26-.34-.93-1.12-1.39-2.42-1.46-3.86-.2-2.07.46-3.95 1.34-5.77.68-.04 1.36-.09 2.05-.13 1.66.64 2.62 1.99 3.52 3.39.57.89 1.1 1.8 1.66 2.7.34 1.46.69 2.91 1.03 4.38.14-.1.31-.31.46-.3 2.12.23 2.83-1.24 3.48-2.79.3-.72.59-1.44.89-2.16l1.83-3.27c-.35-.37-.77-.62-.86-.95-.18-.67-.41-1.45-.22-2.06.39-1.25 3.05-2.08 4.35-1.51 1.51.66 2.31 2.45 1.69 3.94-.38.9-.91 1.73-1.37 2.6-1.04 1.26-2.09 2.52-3.13 3.78l-.03-.07-.49.37c-.27.35-.54.7-.82 1.05-.6.81-1.21 1.62-1.81 2.43-.48.31-.94.61-1.41.92z" class="st1"/><path d="M268.6 83.28c.69-.05 1.37-.1 2.06-.16.56-.17 1.13-.29 1.66-.51 1.28-.55 1.98-.29 2.59.91.47.92.97 1.85 1.6 2.67 1.81 2.36 1.58 5.06-.51 7.18-1.9 1.93-4.01 2.92-6.76 2.41-.42-.08-.9.21-1.36.27-.57.07-1.15.09-1.73.13-.45.03-.96-.08-1.33.1-1.08.53-1.84.26-2.68-.54-1.26-1.21-2.52-2.28-2.37-4.33.05-.71-.58-1.58-1.1-2.21-.96-1.16-1.18-1.84-.55-3.22.33-.73.74-1.42 1.11-2.12 1.48-1.95 3.46-1.22 5.34-.98.95 1.13 2.42.44 3.55.97.07.02.32-.37.48-.57zM80.81 133.13c-1.03-.48-2.06-.97-3.09-1.45-.19-.13-.38-.27-.57-.4l.01.02c.06-.17.23-.39.17-.49-1.2-2.04-3.23-3.06-5.28-3.98-.45-.2-1.26.15-1.81.43-.52.26-.85.9-1.37 1.13-.48.22-1.25.34-1.61.09-.37-.25-.53-1.01-.51-1.54.02-.49.34-1 .64-1.43 1.53-2.13 3.3-4.06 5.72-5.17 1.61-.73 3.31-1.36 5.2-.6.61.25 1.4.06 2.11.05.53-.01 1.06-.07 1.59-.11l-.04-.03c.64.92 1.31 1.68 2.51 2.03 1.06.31 2.14 2.68 1.84 3.87-.48 1.92-1.01 3.84-1.75 5.67-.78 1.97-1.53 2.24-3.76 1.91zM232.65 203.75c-1.88 1.72-3.76 3.43-5.64 5.15l-2.13 1.08c-1.55.76-2.3.58-3.53-.68-.65-.67-1.07-1.71-2.35-1.56-.24.03-.7-.43-.79-.74-.71-2.41-.86-4.65.79-6.96 2.01-2.8 4.59-4.79 7.44-6.56.68-.42 1.42-.59 1.99.11s.24 1.35-.32 1.95c-1.61 1.71-1.6 1.71-.43 3.66.2.34.25.76.43 1.1.29.55.69.96 1.4.6l-.02-.02c.14.14.29.28.43.42l-.01-.01c.04.38-.05.98.16 1.12.82.52 1.72.9 2.58 1.34zM127.16 203.28c-.58 1.18-1.18 2.35-1.73 3.55-.89 1.96-1.7 2.13-3.25.61-.42-.42-.95-.84-1.14-1.36-.49-1.37-1.51-1.9-3.11-2.03.07-.77 0-1.49.22-2.12.45-1.24 1.08-2.42 1.61-3.64.2-.46.36-.94.54-1.42l-.02.03c.14-.14.29-.28.43-.43l-.03.03.43-.43-.02.03c.14-.28.28-.56.41-.84l-.02.03c.14-.14.29-.28.43-.42l-.03.02c1.28-.41 2.67-.63 3.82-1.26 2.07-1.14 3.72-.36 5.36.77.38.26.68.63.99.98 1.31 1.46 1.06 2.74-.79 3.33-1.97.63-3.14 1.9-3.75 3.79l.04-.03c-.14.28-.29.56-.43.85l.04-.04z" class="st0"/><path d="M100.66 216.19c-.34 1.31-.86 2.49-2.13 3.18h-1.77c-.79.47-1.3.77-1.8 1.07-.31.19-.63.37-.93.58-.94.66-1.55.49-1.97-.61-.14-.37-.23-.75-.34-1.13.14-2.31.29-4.62.43-6.93.24-1.1.57-2.18.71-3.29.19-1.56 1.12-2.65 2.1-3.74.52-.57 1.23-.8 1.76-.3.33.31.45 1.09.33 1.58-.38 1.61-.82 3.22-1.42 4.76-.57 1.47-.14 2.68.89 3.98.22-.83.53-1.64.64-2.49.25-1.91.43-3.83.6-5.74.11-1.3.66-2.4 1.48-3.39.99-1.18 2.19-.99 2.71.48.17.49.18 1.04.26 1.56-.15 1.31-.29 2.62-.44 3.93-.37 2.18-.74 4.34-1.11 6.5zM115.94 214.49c-.49-1.01-1.19-1.98-1.42-3.04-.28-1.33-.9-2.27-2.09-3.01-.11.01-.31.01-.49.07-.94.34-1.96.94-2.88.33-1.03-.69-2.07-1.55-2.73-2.57-1.02-1.59-.11-4.54 1.45-5.53 1.73-1.1 4.33-.68 5.64.96.6.76 1.09 1.61 1.63 2.42l-.01-.03v2.01h2.34c.18.08.35.21.54.24 1.91.31 2.61 1.56 2.72 3.34.12 1.97-.33 3.66-2.08 4.84-.89.6-1.74.39-2.62-.03z" class="st2"/><path d="M18.35 200.47c-1.97 2.21-2.72 1.85-3.99.05-.21.56-.31 1.1-.6 1.51-.23.33-.69.64-1.07.66-.25.02-.78-.48-.78-.74.03-2.56-.44-5.24 1.19-7.51 1.07-1.5 2.75-2.07 4.53-2.31.52-.07 1.06-.01 1.5-.01 1.7-2.26 2.38-2.47 3.91-1.47-.23 1.36-.28 2.71-.71 3.91-.56 1.56-.99 3.03-.65 4.73.16.8-.7 1.45-1.6 1.43-.59-.01-1.18-.17-1.73-.25z" class="st0"/><path d="M117.28 41.51c-.09.07-.18.15-.28.22-1.48.55-2.94 1.26-4.47 1.6-.68.15-1.52-.41-2.38-.67-.12.56-.28 1.32-.49 2.32-1.97-.55-3.95-.78-5.46-2.2-.92-.87-.62-2.13.57-2.55.66-.23 1.42-.21 2.12-.3-1.9-1.6-2.03-2.26-.81-4.08.5-.07 1.01-.15 1.51-.23.9.74 1.98.83 3.08.81.39.23 1 .28.76.98-.35.2-.89.31-1 .6-.55 1.4-1.61 2-3.21 2.27 1.77-.47 2.13.92 2.94 1.99.47-1.72.5-3.58 2.67-3.82l2.69.36c.89.51 1.79 1.02 2.84 1.61-.37.4-.73.75-1.08 1.09z" class="st2"/><path d="M123.28 33.56c-.82.27-1.64.54-2.46.8-.33-.42-.66-.83-1-1.25.58-1.09.57-2.19-.11-3.21-1.14-1.69-2.36-3.34-3.54-5-.38-.77-.75-1.54-1.13-2.31-.65-1.32-.63-2.21.13-2.93.91-.86 2.06-1.14 3.13-.52 1.18.69 2.2 1.65 3.37 2.55-.36.92-.64 1.71-.98 2.48-.75 1.71-.41 3.16 1.11 4.52.07 1.44.52 2.74 1.45 3.86l.03 1.01z" class="st0"/><path d="M116.17 24.9c1.18 1.67 2.4 3.31 3.54 5 .68 1.01.69 2.11.11 3.21-.19.06-.38.11-.57.18-.6.24-1.19.66-1.8.68-.87.03-.78-.9-1.08-1.44-.15-.26-.52-.4-.79-.58-1.61-1.05-2.57-2.82-4.28-3.78-.35-.2-.42-1.03-.45-1.58-.02-.36.24-.74.39-1.11.89-2.12 1.48-2.35 3.55-1.36.47.23.92.52 1.38.78zM113.92 48.61c1.49.68 2.74-.04 4-.67.39.32.79.64 1.18.95-.38.95-.76 1.9-1.14 2.86-.71 1.28-1.36 2.6-2.15 3.83-1.07 1.66-2.18 1.86-4.15.91-1.18-.57-1.68-1.92-1.19-3.43.25-.75.63-1.46.96-2.19l.57-.78c.64-.49 1.28-.98 1.92-1.48z" class="st2"/><path d="M115.56 38.81l-2.69-.36-1.4-1.04c.23-.7-.38-.76-.76-.98-1.03-.27-2.06-.54-3.08-.81-.51.08-1.01.15-1.51.23-.18-.19-.34-.41-.55-.57-.7-.53-1.11-1.15-.78-2.05.35-.94.95-1.5 2.01-1.7 3.43-.64 7.59 1.35 9.12 4.41.49 1.05.65 2.02-.36 2.87z" class="st0"/><path d="M135.37 34.31c.6-.81 1.21-1.62 1.81-2.42.98-.74 2.05-1.11 3.27-.64l-.03-.04c.19.13.37.26.56.39 1.04.16 2.08.32 3.13.49 1.71 1.11 1.96 1.96.66 3.46-.79.91-1.91 1.64-3.02 2.14-.6.28-1.53.02-2.26-.18-.88-.25-1.69-.73-2.55-1.04-1.04-.38-1.8-.9-1.57-2.16z" class="st2"/><path d="M112 50.09l-.57.78c-.54.26-1.1.5-1.63.77-2.41 1.25-4.58.25-6.69-.78-.96-.47-1.04-1.59-.26-2.38.5-.5 1.19-.84 1.83-1.17.71-.36 1.5-.58 2.2-.95 1.43-.76 2.8-.88 4.14.14 1.25.95 1.39 2.2.98 3.59zM128.76 21c.63-.93 1.33-1.82 1.86-2.81.61-1.12 1.69-1.44 2.74-1.8.69-.23 1.32-.02 1.71.66.92 1.62.52 4.11-.82 5.52-.8.85-1.52 1.78-2.28 2.67l.03-.03c-.2.01-.39.03-.59.04-2.37.19-3-.37-3.05-2.66-.01-.26.01-.52.01-.79.15-.26.27-.53.39-.8z" class="st0"/><path d="M90.09 161.78c-.27 3.39-2.04 6.3-3.96 9.11-2.39 3.49-8.65 4.58-12.14 2.24-1.4-.94-2.15-2.36-2.8-3.83-.27-.6-.43-1.24-.62-1.78-1.14-.06-2.18-.15-3.23-.17-2.4-.06-3.77-1.52-4.79-3.44-.34-.64-.58-1.35-.81-2.04-.31-.91-.87-1.32-1.88-1.51-3.18-.58-4.19-1.91-4.2-5.07-.01-2.42.37-4.75 1.22-7.04 1.48-4.01 2.91-8.03 5.07-11.73 1.28-2.18 2.63-4.32 4.09-6.72-.05-.13-.23-.54-.39-.96-.5-1.34-.49-2.7.42-3.81 1.9-2.32 3.88-4.58 5.92-6.78.56-.6 1.44-1.16 2.23-1.24 1.19-.12 1.75-.82 2.4-1.59 1.95-2.36 3.42-5.1 5.84-7.11.61-.51 1.15-1.45.83-2.51-.13-.43-.08-.93-.06-1.39.17-3.22 2.85-4.77 5.67-3.15 1.12.64 1.98 1.72 2.91 2.56 4.21.52 8.44 1.05 12.83 1.59-.1-.47-.23-.96-.3-1.45-.55-3.68-1.38-7.36-1.53-11.06-.11-2.75.57-5.56 1.07-8.31.9-5 2.21-9.9 4.29-14.54 1.25-2.79 2.86-5.41 4.32-8.11.25-.46.53-.91.87-1.5-1.81-.19-3.41-.57-4.45-2.06-1.01-1.44-.72-3.02-.22-4.75-1.12.2-1.94.4-2.78.5-3.42.43-5.75-1.93-5.22-5.31.24-1.54.77-2.97 2.19-4.01-1-1.26-1.61-2.56-1.24-4.19.4-1.78 1.58-2.33 3.55-2.31-.29-.57-.4-.98-.66-1.25-1.9-1.97-1.6-5.98.78-7.3 1.07-.6 2.5-.55 3.88-.82-.56-1.06-1-2.46.08-3.64.91-1 2.06-1.78 3.29-2.81-.7-1.75-.07-3.5 1.66-4.73 2.25-1.6 4.54-1.22 6.69.4.96-4.13 4.16-4.86 8.05-1.88 2.04-2.2 4.51-2.73 7.23-1.42 1.52.73 1.81 1.86 1.47 4.79.47-.24.83-.45 1.22-.6 1.77-.67 4.27-.01 5.18 1.59.45.79.42 1.86.62 2.86-.08-.02-.01.02.04.01 2.57-.76 3.69-.33 4.98 2.29 1.03 2.09.24 4.54-1.72 5.79-.38.25-.81.42-1.24.64.19.81.37 1.58.58 2.5 1.93-.37 3.8-.85 5.7-1.05 3.4-.37 6.8-.68 10.22-.82 10.02-.41 19.77 1.04 29.24 4.32 2.02.7 4.06 1.35 6.11 1.97 3.43 1.05 6.51 2.79 9.48 4.74 3.35 2.21 6.9 4.17 10.03 6.66 7.67 6.1 14.93 12.64 20.26 20.98.29.45.63.87.95 1.29.08.1.21.15.49.35.4-2.95.98-5.78 2.9-8.07-.91-2.41-1.43-4.79-1.23-7.31.32-3.94 2.07-7.1 5.09-9.64 1.44-1.21 3.02-1.5 4.66-.63 1.87.99 3.66 2.15 5.56 3.29 4.22-3.09 7.91-1.07 10.4 2.51.17-.05.4-.04.53-.15 4.26-3.89 12.3 0 13.35 5.85 1.15 6.43.6 12.61-2.14 18.56-.53 1.14-1.26 2.19-1.93 3.33.26.92.43 1.98.85 2.92.51 1.14 1.17 2.24 1.9 3.27.68.96 1.14 2.06.35 2.93-1.35 1.49-1.43 3.56-2.77 5.12 5.34 6.87 5.99 14.58 4.25 22.6.45 1.45 1.05 2.81 1.27 4.23.65 4.12-2.9 6.9-6.41 5.67-1.32-.47-2.71-1.33-3.98-1.2-1.27.13-2.41 1.34-3.66 1.95-5.24 2.57-10.56 4.94-16.46 5.62-.46.05-.91.22-1.38.27-1.27.14-2.13.58-2.09 2.08.03.94-.56 1.42-1.58 1.36-1-.06-2-.01-3.13-.01-.29 1.35-.56 2.63-.84 3.92-1.37 6.32-4.32 11.87-8.32 16.91-.45.57-.9 1.16-1.26 1.79-.18.31-.31.82-.18 1.11.89 1.98.12 3.79-.93 5.28-1.37 1.94-3.06 3.69-4.8 5.32-1.3 1.22-2.91 2.11-4.4 3.16.79 5.21 3.44 9.65 5.85 14.46.33-.02.95.1 1.45-.1 5.04-1.92 7.52-1.68 11.68 1.13 1.14-.25 2.15-.48 3.29-.73.29-1.07.53-2.31.97-3.48.93-2.49 2.6-3.59 5.21-3.6 2.17 0 3.16.7 3.85 2.77l.3.9c1.58-1.03 3.03-2.07 4.57-2.94 3.39-1.9 6.83-3.71 10.24-5.56 3.33-1.81 6.96-2.73 10.65-3.48.98-.2 1.96-.43 2.94-.66 2.34-.56 4.54-.01 6.66.88 1.47.62 2.07 1.96 1.52 3.48-.35.97-.92 1.98-1.68 2.67-4.52 4.1-8.29 8.95-12.83 12.97-8.06 7.12-15.1 15.16-22.23 23.13-2.9 3.24-5.98 6.31-8.93 9.51-1.45 1.57-2.79 3.24-4.16 4.89-.64.77-1.21 1.64-2.4 1.57-.13-.01-.29.02-.38.1-.9.8-1.98 1.38-3.12.89-1.51-.65-3.03-1.43-4.31-2.44-1.27-1-1.96-2.5-2.39-4.09-.95-3.54-1.85-7.09-1.94-10.77-.18-.03-.36-.12-.41-.07-1.98 1.96-4.53 2.46-7.17 2.71-1.53.14-3.07.3-4.61.31-2.63.01-4.69-.98-5.64-3.79-2.07.7-4.16 1.08-6.3.7-.72-.13-1.46-.27-2.13-.55-2.23-.91-2.85-2.42-1.99-4.68.58-1.54 1.26-1.8 2.77-1.23 2.75 1.04 5.52 2.01 8.34 3.03 1.14-1.86 2.74-1.56 4.36-1.3 2.05.33 4.11.58 6.16.89.75.11 1.33 0 1.54-.94-.65-.16-1.3-.3-1.93-.49-2.5-.72-4.37-2.29-5.79-4.41-.96-1.43-1.15-2.98-.37-4.56.7-1.42 1.45-2.83 2.23-4.33-4.62-3.15-10.3-4.49-14.71-8.39-.81.7-1.59 1.4-2.39 2.07-1.13.94-2.26 1.89-3.43 2.78-1.6 1.22-3.26 2.35-4.84 3.59-2.17 1.71-4.63 2.63-7.37 2.89-1.13.11-2.25.33-3.38.51-2.97.47-5.75.08-8.6-1.27-1.47 1.89-3.1 3.78-5.74 2.35-1.42 1.5-2.68 2.86-3.96 4.19-1.57 1.64-3.2 3.24-4.75 4.9-2.76 2.96-6.01 5.32-9.35 7.56-.74.5-1.74.8-2.64.86-5.03.32-9.38-1.38-12.95-4.84-1.82-1.76-3.36-3.8-5.04-5.7-.52-.59-1.09-1.15-1.83-1.93-.68 2.12-2.16 2.54-4.05 2.18-.45 1.74-.69 3.51-2.13 4.69-1.47 1.2-3.09 1.5-4.7.71-3.59 4.71-7.91 8.28-13.19 10.69-.44.2-.92.55-1.16.95-1.62 2.73-3.71 5.06-6.09 7.14-.79.69-1.73 1.28-2.7 1.71-3.89 1.71-7.91-.56-8.18-4.8-.16-2.43.15-4.93.5-7.35.66-4.53 2.54-8.68 4.38-12.82.7-1.57 1.57-3.09 2.53-4.51 1.77-2.61 4.29-4.01 7.45-4.48 3.79-.56 6.17-2.97 7.8-6.68-.59.34-.96.53-1.3.74-5.21 3.29-10.84 5.6-16.91 6.64-4.42.76-8.71-.17-12.72-2.07-5.23-2.49-10.16-5.45-13.98-9.93-1.12-1.31-2.56-1.89-4.25-1.92-.87-.01-1.77-.12-2.61.04-1.15.22-2.28.63-3.39 1.01-1 .34-1.96.96-2.98 1.09-.77.1-1.87-.12-2.36-.63-1.42-1.47-3.03-2.23-5.06-2.34-.69-.04-1.58-.32-1.99-.81-1.21-1.46-2.9-1.84-4.55-2.3-2.19-.61-4.42-1.1-6.62-1.66-3.01-.76-3.84-2.67-2.3-5.39.84-1.49 1.9-2.8 3.85-2.75.71.02 1.46.09 2.1.37 2.66 1.16 5.14 2.6 7.26 4.6.53.5 1.13.94 1.79 1.5.4-.32.83-.6 1.19-.96.92-.94 2.02-1.51 3.28-1.84 1.88-.5 3.47.06 4.48 1.71.31.5.48 1.09.75 1.74 1.72-.14 2.74.9 3.33 2.39 1.82-.18 3.55-.42 5.28-.5 3.8-.16 7.18.87 9.73 3.85 3.63 4.24 8.4 5.66 13.8 5.76 5.14.09 10.16-.51 15.09-1.97 3.55-1.05 6.61-3.11 8.51-5.98-.55.03-1.05-.1-1.34.09-2.87 1.86-6.04 2-9.28 1.64-3.56 4.62-8.99 3.94-11.71-1.58-.78.13-1.63.24-2.47.4-2.41.48-4.81.41-7.18-.24-2.22-.61-2.78-1.91-1.75-3.9.06-.12.13-.23.21-.34 2.25-3.33 2.21-2.93 5.13-2.1 2.12.6 4.23 1.28 6.3 2.04 1.06.39 1.78.35 2.7-.46 2.91-2.6 5.16-2.31 7.7.96.61-.26 1.27-.55 1.93-.81.67-.27 1.35-.51 2.08-.79-1.06-1.73-2.1-3.41-3.13-5.11-.28-.46-.52-.93-.77-1.4-2.11-3.84-1.41-7.47.97-10.89 1.56-2.25 3.31-4.36 4.88-6.6 2.14-3.06 4.51-6.02 6.19-9.33 2.73-5.38 3.95-11.16 2.89-17.25-.36-2.08-.68-4.17-1.03-6.27-8.33-4.66-15.16-7.67-18.61-8.2-1.2 2.04-1.5 4.55-3.33 6.34 2.41 2.47.97 5.17.12 7.77-.75 2.29-2.06 3.5-3.68 3.82-.61-.88-.23-1.75.06-2.63.57-1.71 1.18-3.4 1.66-5.13.61-2.19.14-3.13-2.09-3.66-2.8-.67-5.64-1.15-8.48-1.62-.42-.07-1.07.2-1.37.53-1.56 1.74-3.08 3.51-4.51 5.36-.39.5-.41 1.28-.43 2.07 1.47-2 3.37-1.81 5.3-1.34 3.25.8 5.77 2.73 7.94 5.19.74.84 1.36 1.9 2.28 2.47 1.04.64 2.32.96 3.55 1.22 1.37.29 2.79.33 4.19.5 1.85.22 3.46.95 4.9 2.12 1.21.98 1.75 2.2 1.55 3.69-.19 1.45-.48 2.89-.82 4.32-.64 2.68-.51 5.26.55 7.83 1.12 2.72.29 4.86-2.4 6.08-1.49.63-3.12 1.03-4.8 1.6zM135.02 32.2c.24-.06.56-.03.7-.18 2.2-2.39 5.02-2.17 7.84-1.82.76.09 1.53.76 2.25.08.61-.58 1.14-1.27 1.61-1.98.45-.69.33-1.4-.29-1.98-.68-.63-1.43-.71-2.18-.17-.71.5-1.39 1.04-2.06 1.59-1.51 1.24-3.23 1.92-5.59 2.19.49-.58.68-.89.94-1.12.39-.35.93-.57 1.23-.98 1.09-1.51 2.13-3.06 3.15-4.61.75-1.14.57-1.76-.61-2.43-1.92-1.1-3.47-.43-4.79 2.14 1.57 1.44 1.36 3.16.47 4.86-.8 1.53-1.73 2.99-2.59 4.5-.41.72-.68 1.59-1.78 1.49.07-.31.2-.62.2-.93.02-2.31.44-4.5 1.8-6.44.24-.34.27-.83.4-1.27-3.26-.48-4.87.84-4.71 3.78.06 1.13.3 2.25.36 3.38.02.43-.24.88-.43 1.51-1.7-1.22-2.25-2.77-2.49-4.29-.27-1.71-.99-3.12-1.91-4.51-.77-1.17-1.26-1.39-2.68-1-1.23.33-1.55.82-1.49 2.21.11 2.89 1.79 4.76 4.05 6.27.28.19.48.48 1.06 1.08-2.45.31-4.46.62-6.48.82-1.29.13-1.7.35-1.9 1.58-.08.49.04 1.01.07 1.55 2.69.84 4.75-.73 6.91-1.49.73 1.19-.26 1.9-.74 2.8.5.18.84.3 1.08.39.57-1.15 1.01-2.2 1.62-3.15.23-.36.89-.73 1.27-.65.71.14.78.85.6 1.47-.2.7-.56 1.37-.71 2.08-.23 1.08-.76 2.31.3 3.18 1.12.92 2.13.02 3.11-.52.06-.03.12-.07.17-.1 2.06-1.25 2.36-4.53.48-5.97-.55-.42-1.36-.52-2.2-.81.49-1.05 1.23-1.3 2.26-.92.47.14.94.28 1.7.51V32.2zm-23.62 92.49c-.1.12-.2.23-.31.35 1.45 4.88 1.53 9.86.98 14.84-.67 6.11-3.74 11.19-7.39 15.96-1.86 2.44-3.93 4.73-5.74 7.2-3.05 4.16-2.41 11.03 1.49 14.44 1.31 1.15 2.53 2.55 4.37 3.1 7.03 2.11 14.18 3.48 21.54 3.62 6.79.14 13.34-.88 19.57-3.73 4.36-2 8.35-4.58 12.13-7.45 2.87-2.18 5.55-4.63 8.15-7.14 1.62-1.57 2.95-3.45 4.38-5.21.42-.52.67-1.18 1.13-1.65 2.76-2.87 3.85-6.52 4.81-10.2.33-1.27.55-2.66.42-3.95-.45-4.42-.31-8.69 1.24-12.99 1.09-3.05 2.74-5.49 5.27-7.33 5.57-4.05 11.79-6.76 18.4-8.76 7.01-2.12 14.12-3.76 21.37-4.63 4.98-.6 10.03-.87 15.05-.94 2.71-.04 5.44.62 8.15 1.05.89.14 1.82.46 2.15 1.58-.49.34-.95.65-1.42.97.3.9.56 1.68.88 2.65 2.77-2.38 3.91-5.14 3.47-8.49-.43-3.33-1.6-6.43-2.9-9.52-3.76-8.94-8.12-17.51-14-25.31-3.36-4.45-6.95-8.68-11-12.47-3.85-3.6-8.04-6.86-12.15-10.17-1.18-.95-2.61-1.6-3.94-2.37-1.15-.68-2.32-1.33-3.48-2-2.54-1.48-4.98-3.18-7.65-4.38-2.97-1.35-6.07-2.72-9.25-3.24-6.14-1.02-12.36-1.63-18.58-2.07-4.67-.33-9.39-.01-14.08-.16-4.35-.13-8.28 1.36-12.26 2.71-1.95.66-3.7 1.89-5.82 2.03-1.42.09-2.62.69-3.61 1.58-2.65 2.34-5.43 4.59-7.74 7.23-3.12 3.56-5.99 7.35-8.2 11.58-2.07 3.96-4.39 7.79-5.76 12.08-1.48 4.64-2.7 9.33-3.56 14.13-1.06 5.9-.62 11.67.66 17.45.26 1.17.75 1.78 1.92 1.9.33.04.64.19.96.29 5.92 1.72 11.8 3.55 17.25 6.51 1.46.79 2.89 1.64 4.16 2.36 1.17-.51 2.11-1.07 3.13-1.35 4.8-1.3 8.76.37 10.14 5.14.28.96.47 1.95.61 2.93.55 3.85.27 7.64-1.56 11.11-2.38 4.5-6.32 7.39-10.89 9.41-2.47 1.09-5.09.96-7.23-.76-1.83-1.47-3.13-3.51-3.82-5.78-.57-1.88-.35-3.79.65-5.63-4.11-2.21-8.1-4.36-12.09-6.52zm84.79 32.13c-1.83-2.98-3.59-5.81-5.29-8.66-.47-.8-.81-1.68-1.15-2.55-.51-1.3-.99-2.61-1.43-3.94-.63-1.89-1.25-3.79-1.78-5.72-.2-.75-.25-1.6-.13-2.37.06-.4.59-.98.97-1.03 3.44-.48 6.89-1.08 10.35-1.21 7.71-.3 15.41.15 23.12.66 6.77.46 13.46 1.33 20.07 2.8l5.68 1.27c-1.08-7.69-.04-15.25-1.65-22.82-1.46-.13-2.85-.37-4.24-.35-2.07.02-4.15.19-6.22.36-3.53.3-7.09.49-10.59 1.05-4.03.63-7.99 1.66-12 2.42-5.54 1.06-10.98 2.46-16.13 4.76-3.54 1.57-7.03 3.31-10.37 5.25-1.57.91-2.76 2.48-4.09 3.79-.26.26-.47.71-.47 1.07.02 2.59-.73 5.12-.27 7.76.5 2.89.58 5.87-.3 8.72-.67 2.15-1.64 4.21-2.48 6.31-.28.71-.57 1.41-.82 2.03 2.68.15 5.14.29 7.59.43 1.54.09 2.88.57 3.68 2.02 2.66-.67 5.24-1.34 7.95-2.05zm22.92 39c2.64-1.8 5.1-3.48 7.58-5.17-2.58-3.34-4.4-6.93-5.46-10.91-1.07-3.98-2.2-7.95-3.29-11.88-.41-.05-.7-.08-1.11-.12.29-.84.63-1.57.79-2.34.23-1.03.49-2.1.43-3.13-.1-1.73-1.09-2.52-2.83-2.34-.92.09-1.82.42-2.7.74-1.13.41-2.21.99-3.35 1.34-1.28.39-1.84-.23-1.57-1.56.04-.21.1-.42.17-.69-2.33.15-4.49.16-6.6.46-3.58.51-7.13 1.19-10.68 1.83-1.91.35-3.79.92-5.71 1.13-1.6.17-2.5.95-3.27 2.25-2.69 4.53-4.32 9.44-5.58 14.5-.22.88-.28 1.8-.43 2.75 5.85 1.08 11.49.53 17.09-.66 2.15-.46 4.26-1 6.53-.63.32-1.96.5-3.82.94-5.62.42-1.72.61-3.6 2.17-4.87.16.48.18.91.07 1.31-.29 1.09-.56 2.2-.97 3.25-1.45 3.66.75 9.42 4.25 11.27 3.07 1.63 6.02 3.5 9.04 5.22 1.78 1.01 3.46 2.09 4.49 3.87zM94.99 156.26c-2.31-3.79-2.38-7.46-.99-11.23.25-.69.47-1.39.68-2.09.66-2.19.16-3.07-2.11-3.56-.58-.13-1.2-.09-1.8-.13-1.67-.11-3.36-.14-5.02-.35-3.95-.51-5.06-1.62-5.66-5.53-3.39-1.48-6.8-3-10.62-3.14-.43.61-.8 1.16-1.19 1.7-4.15 5.9-7.14 12.35-9.14 19.25-.36 1.26-.47 2.62-.49 3.94-.02 1.2.38 1.5 1.55 1.63 3.72.41 4.33.93 5.38 4.53.08.26.16.51.25.76.86 2.27 2.68 3.47 5.42 3.13 1.26-.16 1.9.2 2.48 1.11.61.96 1.13 1.98 1.82 2.87 2.21 2.81 6.97 2.76 9.16-.04.74-.95 1.42-1.96 2.29-2.78 1.19-1.12 1.1-2.23.42-3.48-.92.84-1.78 1.67-2.68 2.43-.89.75-1.62 1.81-3 1.84 1.15-1.93 2.31-3.72 3.31-5.59 1.97-3.68 3.13-7.63 3.79-11.74.13-.78.17-1.62 1.15-1.97 1.21.36 1.07 1.44 1.08 2.3.02 3.01-.26 6-1.58 8.78-.36.76-.55 1.37.27 1.68 1.76-1.46 3.45-2.85 5.23-4.32zM138 120.98c-1.48-.09-2.58-.72-3.65-1.31-5.71-3.12-11.72-5.56-17.85-7.72-6.89-2.43-13.86-4.56-21.11-5.65-1.99-.3-3.78-.83-5.51-2.04-2.66-1.86-3.59-1.32-3.85 1.85-.1 1.18-.54 1.86-2.01 1.77.83 1.18.4 2.01-.31 2.84-1 1.17-1.95 2.37-2.92 3.57-.69.86-1.38 1.72-2.16 2.68 2.59.79 4.99 1.25 6.83 3.07.89-2.11 1.76-4.12 2.57-6.15.58-1.43.66-1.51 2.17-1.11 5.7 1.51 11.31 3.28 16.49 6.19.93.52 1.91.98 2.88 1.42a144.97 144.97 0 0118.41 10.22c2.07 1.35 3.74 3.11 5.78 5.16-3.02-.37-5.05-2.05-7.5-2.98-.69 3.44.87 5.84 2.95 8.01.32.34.97.45 1.48.51 1.31.17 2.53-.18 3.64-.88 1.02-.65 2.03-1.3 3-2.01 5.95-4.34 8.05-11.24 5.54-18.09-.87-2.38-2.29-3.43-4.84-3.41-1.09.01-2.18.27-3.33.43 1.14 1.24 2.15 2.35 3.3 3.63zm128.24-48.67c1.12-.31 2.1-.52 3.03-.86 2.6-.94 3.58-2.87 2.88-5.54-.26-1.01-.56-2-.86-3.08 2.79.34 4.27 2.53 3.57 5.22-.96 3.7-3.13 5.72-7 6.27-2.09.3-3.82.98-5.68 1.81-4.96 2.22-9.69 1.12-14.13-1.64-.53-.33-.97-.95-1.22-1.53-.16-.38-.02-1.03.23-1.39.12-.17.91-.11 1.22.11 2.21 1.54 4.78 2.08 7.33 2.61 2.05.42 4.14.41 6.11-.53 2.14-1.01 2.5-2.48 1.07-4.31-.36-.46-.78-.87-.92-1.02-2.22.04-4.08.13-5.95.09-2.86-.06-5.5-1.08-8.16-2.02-1.76-.62-3.04-.09-3.74 1.55-1.13 2.67-1.1 5.36.33 7.9.43.76 1.19 1.59 1.98 1.86 4.03 1.39 7.9 3.25 12.08 4.23.97.23 1.99.38 2.48 1.71-.65.57-1.32 1.17-2.21 1.95 1.89 2.52 3.76 5.17 3.06 8.55 5.8 2.49 14.04-.05 16.14-4.81-.79-1.02-1.69-1.94-2.3-3.03-.6-1.07-.9-2.3-1.36-3.56-.66.26-1.28.49-1.89.73-2.03.82-4.15 1.07-6.32.88-1.5-.13-2.9-.59-3.99-1.69-.76-.76-.86-1.75-.32-2.34.69-.75 1.32-.28 1.94.15.05.04.11.08.17.11 4.76 2.22 11.34.64 13.12-5.23 1.17-3.86 2.3-7.68 1.72-11.75-.21-1.51-.34-3.08-.84-4.5-1.13-3.19-4.92-4.93-7.65-3.6-3.15 1.54-5.51 3.85-6.19 7.41-.3 1.55-.22 3.17-.31 4.66 2.26 1.56 2.35 1.72 2.58 4.63zm1.81 27.19c.1.39.22.83.34 1.27 1.03 3.72 1.35 7.47.56 11.27-.16.76-.34 1.82-.88 2.13-1.63.95-3.42 1.65-5.19 2.35-3.39 1.34-7.03 1.63-10.55 2.41-1.13.25-2.08.15-2.87-.52-.99.47-1.24 1.11-1.19 2.03.17 2.79.24 5.6.38 8.39.03.69.16 1.37.25 2.04 3.08-.59 5.96-.92 8.72-1.71 4.56-1.3 9.03-2.88 13.54-4.36.18-.06.36-.19.47-.34.65-.87 1.48-.77 2.36-.46 1.14.39 2.26.83 3.41 1.18 1.8.55 2.9-.26 2.95-2.11.01-.33 0-.67-.08-.99-.49-1.99-.72-3.97-.75-6.06-.05-3.31-.65-6.63-1.22-9.91-.55-3.15-1.57-6.16-3.54-8.61-2.32.69-4.48 1.34-6.71 2zM127.6 205.42c2 .6 3.05 2.03 4.07 3.56 3.13 4.7 7.4 7.64 13.18 8.01.95.06 2.11-.06 2.86-.57 2.32-1.57 4.66-3.18 6.65-5.11 2.83-2.73 5.36-5.77 8.01-8.68.17-.19.27-.44.48-.77-4.18-1.39-7.96-3.29-10.81-6.82-.42.59-.73 1-1.02 1.44-2.04 3.13-4.06 6.27-6.11 9.39-.36.55-.68 1.26-1.81 1.29.34-1.43.64-2.7.96-4.04-1.34-1.06-2.92-1.28-4.52-1.45-2.52-.27-5.05-.45-7.31-1.66-2.08 1.33-3.46 2.93-4.63 5.41zm21.38-20.89c2.95 1 5.79 1.96 8.63 2.9 4.13 1.38 8.25 2.79 12.61 3.31 1.22.15 2.47.45 3.74-.3-1.82-3.2-1.94-6.54-1.32-9.98.87-4.82 2.68-9.33 4.7-13.77 1.21-2.65 2.78-5.02 5.35-6.59.05-.03.01-.22.01-.39h-7.38c-6.18 10.92-15.8 18.16-26.34 24.82zm64.31-28.05c1.83.48 3.59.7 5.11 1.41 1.79.84 2.07 2.78 2.3 4.58 1.19.11 2.24.21 3.36.32 4.25-8.33 7.1-17.05 8.88-26.31-4.24-1.05-8.37-1.69-12.76-2.06-1.32 7.81-3.92 15.1-6.89 22.06zm54.1-43.77c.09-4.06-.25-8.07-1.73-11.93-.43-1.12-.96-1.95-2.33-2.13-.83-.11-1.64-.57-2.42-.94-1.39-.66-2.2-1.72-2.04-3.34.18-1.87-.5-3.52-1.26-5.17-.62-1.36-1.13-2.77-1.81-4.47-3.45-.52-6.66-2.91-10.79-3.59.8 1.52 1.49 2.65 2.01 3.86 2.22 5.13 4.48 10.25 6.52 15.45.82 2.09 1.26 4.35 1.64 6.57.41 2.4.14 4.78-.9 7.03-.16.34-.27.71-.44 1.19 4.74-.02 9.07-1.45 13.55-2.53zm-70.13 40.28c.56.74 1.05 1.36 1.52 2 .85 1.14 1.9 1.62 3.41 1.65 2.26.05 4.53.39 6.64 1.38 1.18.55 2.22.07 2.62-1.18 1.65-5.2 3.32-10.41 4.88-15.64.68-2.28 1.13-4.62 1.71-7.04-4.13-.27-8.13-.53-12.29-.8-1.67 7.09-4.31 13.68-8.49 19.63zm40.29 52.9c-2.55 1.87-4.7 4.02-6.5 6.49-.18.24-.27.62-.25.92.3 4.81 1.27 9.49 2.98 14 .61 1.59 1.78 2.74 3.29 3.18 1.33-2.26 2.51-4.42 3.83-6.48 1.15-1.79 2.44-3.51 3.73-5.21.64-.84.88-1.67.89-2.74.02-2.25.02-4.56.49-6.75.85-3.96 2.03-7.85 3.07-11.77.12-.45.21-.92.38-1.66-5.84 4.61-10.12 9.95-12.7 16.57-.19.49-.36 1.02-.66 1.45-.14.21-.61.38-.84.3s-.44-.48-.46-.76c-.03-.38.07-.8.21-1.16.57-1.56 1.17-3.11 1.78-4.65.23-.58.5-1.15.76-1.73zm52.9-28.48c-.06-.18-.13-.37-.19-.55-1.75-.6-3.49-1.08-5.41-.55-1.93.53-3.89.97-5.83 1.45-3.72.93-7.12 2.58-10.39 4.6.6 1.11.06 1.98-.31 2.91-2.1 5.18-4.16 10.37-6.23 15.56-.14.35-.21.73-.44 1.57 2.35-1.96 4.34-3.61 6.31-5.28.92-.78 1.8-1.59 2.69-2.39 2.18-1.96 4.51-3.79 6.51-5.93 3.34-3.59 7-6.76 11.13-9.42.81-.53 1.45-1.31 2.16-1.97zM86.94 223.72c-.2 1.41-.39 2.39-.48 3.38-.07.79-.1 1.61-.03 2.4.28 2.9 2.76 4.26 5.37 2.97.48-.24.98-.48 1.37-.83 2.21-2.04 4.38-4.11 6.56-6.18.19-.18.4-.41.44-.65.25-1.33 1.32-1.92 2.25-2.69 2.88-2.39 5.72-4.83 8.57-7.26.75-.64 1.49-1.28 2.27-1.96-.08-.83-.16-1.75-.24-2.63-.55-.36-1.05-.68-1.55-1.01-2.2.97-4.1.44-5.72-1.15-1.97-1.93-1.39-4.1-.19-6.6l-2.77 1.96c.03 2.83-.84 5.59-.34 8.79.79-1.05 1.23-1.81 1.84-2.39.33-.31 1.13-.55 1.4-.36.41.28.75.97.73 1.47-.03.62-.34 1.32-.74 1.82-2.96 3.72-5.93 7.43-10.41 9.52-1.21.56-2.42 1.15-3.61 1.76-1.5.77-3 1.2-4.72-.36zm112.27-40.39c-5.87 2.35-11.91 2.97-18.05 3.37-.53.77-1.1 1.51-1.58 2.3-.72 1.19-1.36 2.42-2.06 3.62-.95 1.64-1.92 3.26-3.01 5.12 2.58.13 4.79.35 7 .34 3.37-.02 6.47-.82 8.99-3.32 1.13-1.12 2.49-2.03 3.82-2.92 2.23-1.49 4.29-3.15 5.89-5.37-.33-1.05-.67-2.13-1-3.14zm-2.76-32.1c3.33-5.66 5.56-11.61 7.22-17.94-5.09-.13-9.96-.17-15.03.55 1.47 6.33 3.54 12.26 7.81 17.39zm30.2 11.32c2.41.34 2.41.34 3.62-1.34 2.69-3.73 5.28-7.51 7.3-11.67 1.83-3.78 2.83-7.8 4.19-11.96-2.39-.28-4.55-.52-6.77-.78-1.96 8.94-4.87 17.33-8.34 25.75zm-101.18 27.91c2.71.01 4.73.46 6.46 1.72 1.06.77 2.11 1.72 2.77 2.82.38.63-.03 1.72-.09 2.67 3.74 1.09 8.12.03 11.31 3.19.98-2 1.9-3.88 2.84-5.78-3.78-1.53-6.59-3.99-8.62-7.51-4.97 1.58-10.06 1.56-15.26 1.47.21.5.38.91.59 1.42zm-71.26-3.98c.5-.09 1-.19 1.5-.26 3.42-.53 6.57-.2 8.93 2.72.46.57.99 1.09 1.52 1.59 7.18 6.63 15.18 10.7 25.35 7.99 5.54-1.48 10.8-3.56 15.28-7.24 1.5-1.23 2.66-2.68 3.43-4.59-.88-.22-1.51-.37-2.18-.54-1.2 3.07-3.6 4.84-6.35 6.19-7.31 3.58-15.01 4.13-22.93 2.73-4.89-.86-9.09-3.09-12.62-6.57-3.48-3.46-7.67-3.09-11.93-2.02zm173.1 6.93c-2.5 1.75-5.01 3.18-6.74 5.51-.9 1.21-1.57 2.6-2.23 3.96-.41.83-.18 1.67.41 2.42 1.27 1.62 2.84 2.82 4.81 3.44 1.15.36 2.09.17 3.06-.77 1.38-1.33 3.01-2.4 4.55-3.58.36-.27.75-.5 1.21-.8-4.95-1.48-6.07-3.26-5.07-10.18zm37.93-138.22c-.45-.53-.72-.92-1.05-1.23-2.15-2.04-4.14-2.08-6.32-.04-.82.77-1.56 1.65-2.24 2.54-2.16 2.83-2.71 5.84-.9 9.14 2.3.49 4.62 1.02 7.2.8-.86-4.32.16-8.01 3.31-11.21zm-113.3 134.93l-.24.36c1.92 1.83 3.44 4.09 5.8 5.43 2.67 1.51 5.45 2.84 8.2 4.21.88.44 1.82.78 2.76 1.17 2.1-2.48 4.09-4.87 5.27-7.64-1.89.04-3.77.28-5.6.07-2.72-.31-5.41-.85-8.08-1.45-2.73-.61-5.41-1.43-8.11-2.15zm-19.3 6.93c-.24-.33-.39-.74-.67-.89-1.05-.56-2.16-1.03-3.23-1.56-1.28-.64-2.57-.62-3.88-.1-3.18 1.26-5.2 3.69-6.41 6.74-.29.73-.06 2 .44 2.63 1.5 1.88 3.48 3.13 6.01 3.37.48-4.93 3.32-8.97 7.74-10.19zm-26.31 3.49c1.26-.65 2.79-1.61 4.44-2.24 1.96-.75 3.41.55 4.83 1.85 1.65-3.67 3.96-6.62 7.3-8.66-.97-1.62-1.27-1.86-2.67-2.31-2.18-.69-4.23-.2-6.26.62-.64.26-1.16.89-2.03.41a.57.57 0 00-.82.7c.41.92-.11 1.54-.49 2.2-1.48 2.6-3 5.19-4.3 7.43zm154.63-14.02c-.45 1.26-.7 2.23-1.13 3.1-2.41 4.85-4.33 9.89-5.99 15.03-.54 1.67-.89 3.41-1.33 5.11 1.65-.94 2.92-2.12 4.26-3.2 1.28-1.02 2-2.11 2.33-3.88 1.08-5.69 2.82-11.23 5.29-16.51.24-.5.41-1.03.62-1.55-.09-.08-.18-.16-.28-.23-1.29.74-2.61 1.48-3.77 2.13zm-6.27-133.47c-1.13-1.35-2.52-1.71-3.79-2.26-1.5-.65-1.95-.56-3.01.62-3.14 3.48-3.73 7.5-2.64 11.73 2.24.56 4.28 1.06 6.62 1.64-2.16-4.77-.19-8.35 2.82-11.73zm-12.36 141.69c-.04-.3-.04-.43-.08-.55-.04-.12-.11-.26-.21-.33-2.15-1.54-4.27-2.67-7.2-2.31-3.39.42-5.62 2.99-4.83 7.25.09.47.47.98.87 1.28 2.08 1.55 6.16 1.66 8.39.34 1.09-.65 2.23-1.21 3.34-1.83.38-.22.71-.51 1.12-.81-.46-.76-.84-1.4-1.2-2-.95.68-1.74 1.28-2.58 1.83-1.01.66-2.15.68-3.3.5-.88-.14-1.49-.61-1.53-1.57-.04-.94.47-1.58 1.35-1.72 1.05-.17 2.12-.18 3.19-.19.87-.03 1.76.06 2.67.11zm-30.2 21.34c1.2 1.19 1.2 1.26 2.32 1.27 1.94.02 3.88-.02 5.82-.11 3.84-.19 6.39-2.29 8.32-5.45.93-1.52 2.16-2.86 3.3-4.25.55-.67 1.24-1.22 1.81-1.87.57-.65 1.08-1.35 1.53-1.92-.19.1-.54.26-.86.46-3.61 2.27-6.7 5.11-9.14 8.58-1.05 1.5-2.38 2.03-4.1 1.94-.47-.02-.94-.04-1.4-.09-2.17-.26-4.34-.53-6.64-.81-.31.72-.61 1.44-.96 2.25zm10.21-43.55c2.4-1.85 4.65-3.53 6.84-5.28 1.03-.82 1.84-1.84 1.92-3.66-3.68 2.27-7.44 2.36-11.41 1.86.91 2.46 1.73 4.62 2.65 7.08zm29.1 38.32c-1.37-2.18-1-4.8-.35-7.28.9-3.46 2.15-6.83 3.25-10.24.19-.58.42-1.15.71-1.94-1.93.83-2.32 2.3-2.62 3.82-.1.51-.05 1.08-.27 1.53-1.93 3.84-2.93 7.97-3.92 12.1-.48 2.03-.77 4.11-1.13 6.06 1.44-1.34 2.82-2.64 4.33-4.05zM144.74 35.64c-.59-3.33-1.1-3.75-4.12-3.71-.6.01-1.21.03-1.8.11-1.43.2-2.46.83-2.84 2.37-.29 1.17-.27 1.34.81 1.62 1.03.26 2.03.61 3.04.91.25.07.54.23.74.16 1.38-.44 2.74-.95 4.17-1.46zm-37.77-4.36c-1.01.87-1.34 1.84-1.03 2.83.3.97 1.35.6 2.1.73 1.92.34 3.75.82 5.16 2.33.66.71 1.6.99 2.78.66-.12-.95.05-2-.4-2.55-.81-1-1.88-1.97-3.05-2.46-1.74-.74-3.66-1.04-5.56-1.54zm12.64.49c-1.03-3.2-2.99-5.43-5.78-6.98-.71-.39-1.34-.41-1.99.21-1.16 1.12-1.23 1.82.05 2.95.94.83 2.07 1.45 3.04 2.26.96.8 1.82 1.72 2.73 2.59.59-.3 1.16-.61 1.95-1.03zm-18.97 172.82c-1.83 0-1.81 0-2.21 1.36-1.18 3.96-1.12 8.06-1.44 12.53.82-.8 1.37-1.35 1.93-1.88.97-.91 1.44-1.89 1.29-3.33-.2-1.9-.08-3.85 0-5.77.04-.97.28-1.92.43-2.91zm23.35-164.53c-.09-.12-.18-.24-.28-.36-1.17.62-2.47.68-3.6 1.71-1.02.94-2.55 1.35-3.87 1.95-1.34.62-2.1 1.85-1.89 3.15.22 1.32 1.11 1.85 2.3 1.25.76-.39 1.5-.91 2.06-1.53 1.81-2.02 3.53-4.11 5.28-6.17zm-12.51 6.78c-1.83 0-3.5.11-5.15-.03-1.47-.13-2.21 1-2.2 2.65.01 1.39.61 1.92 2.17 1.93 2.31.02 4.15-1.11 5.99-2.28-.3-.84-.54-1.52-.81-2.27zM95.92 205.62c-1.15.4-1.55 1.11-1.74 1.99-.41 1.81-.88 3.61-1.19 5.44-.46 2.66-.55 5.35-.41 8.34 1.16-.72 2.09-1.3 2.98-1.86-.96-4.74-.89-7.17.36-13.91zm38.43-183.43c.16-1.58.96-3.13.45-4.83-2.17-.79-3.56.38-4.7 1.83-1.28 1.63-1.51 3.45-.4 5.36 1.61-1.66 1.82-1.76 4.65-2.36zm-22.19 184.56c-.54-.11-.87-.13-1.16-.25-.36-.15-.74-.32-1.03-.58-.9-.8-1-1.98-.26-2.63.69-.61 1.69-.45 2.45.48.44.54.72 1.19 1.19 1.99.38-.56.94-1.03.87-1.37-.21-1.02-.53-2.07-1.07-2.96-.28-.46-1.19-.92-1.66-.8-1.93.5-3.58 1.52-4.41 3.45-.34.79-.24 1.56.39 2.22 1.05 1.09 2.36 1.51 3.83 1.35.26-.04.48-.5.86-.9zm7.3-178.62c.1-2.27.19-4.35 2.22-6.02-.92-.83-1.68-1.66-2.59-2.3-1.76-1.26-3.15-.68-3.72 1.2.84 1.33 1.6 2.47 2.28 3.66.65 1.13 1.21 2.31 1.81 3.46zm133.42 157.66c-1.44-.25-2.59-.25-3.31.87-1.16 1.82-1.6 3.89-1.91 5.98-.03.22.11.47.25.99 1.93-1.67 3.7-3.15 5.41-4.7.23-.21.33-.73.26-1.06-.16-.7-.46-1.37-.7-2.08zM113.6 50.28c-.66 1.27-1.4 2.6-2.03 3.98-.32.7-.3 1.41.59 1.84 1.27.62 2.57.22 3.11-1.06.73-1.74 1.43-3.49 2.1-5.16-1.12.12-2.28.25-3.77.4zm-86.03 130c4.03.91 7.86 1.32 11.1 3.71.21-.33.37-.6.7-1.12-3.52-1.87-6.95-3.69-10.55-5.6-.44 1.05-.8 1.94-1.25 3.01zm46.52 3.4c3.27.3 6.1.59 8.93.77.4.02.83-.51 1.46-.93-3.16-.92-5.95-1.72-8.84-2.56-.44.77-.85 1.5-1.55 2.72zm16.86 29.11l-.15-.21c-1.12 3.23-2.24 6.45-3.36 9.67 1.91.77 1.91.77 3.5-.29.01-3.12.01-6.15.01-9.17zm36.21-191.72c.12-.5.27-.94.34-1.4.21-1.36-.73-2.55-2.19-2.79-1.49-.24-2.3.41-2.48 2.11-.07.7-.01 1.41-.01 2.07 1.5.01 2.81.01 4.34.01zm-10.31 185.49c-.38 1.88 2.23 1.59 1.64 3.46-.35.1-.9.38-1.43.36-.61-.02-1.21-.32-1.98-.55.13.81.2 1.46.35 2.1.23.99.96 1.39 1.92 1.44 1.27.07 2.42-.91 2.6-2.27.09-.71.02-1.45.02-2.23-.95-.71-1.9-1.42-3.12-2.31zm-70.02-25.32c-2.07.06-3.51.81-4.69 2.37 1.51.62 2.23 2.37 4.08 2.46.88-1.52.91-3.05.61-4.83zm70.91-140.81c-.41-.33-.69-.73-1.03-.79-1.48-.24-2.98-.37-4.42-.53-1.53 2.11-1.52 2.6.06 3.99 1.78-1.63 1.78-1.63 5.39-2.67zm25.37 146.55c1.56 2.44 3.83 4.31 5.65 4.55-1.52-1.72-1.82-4.12-4.13-5.2-.45.2-.98.42-1.52.65zM128.43 44.29c-1.66-.74-1.99-2.1-2.27-3.91-.96 2.21-2.15 3.89-.94 6.11l3.21-2.2zM86.16 184.66c2.12.44 4.8-.18 5.83-1.16-.91-1.74-1.51-1.94-3.02-.93-.87.59-1.68 1.25-2.81 2.09zm35.73-138.62c-2.34 4.07-2.44 4.34-2.18 6.01 1.32-1.44 2.55-2.79 3.76-4.12-.55-.65-1.01-1.2-1.58-1.89zm-19.84 137.54c-1.45-1.31-1.45-1.3-2.21-1.05-1.64.53-3.3 1.03-4.92 1.6-.23.08-.35.49-.52.75.08.12.15.24.23.35 2.33-.52 4.68-1.04 7.42-1.65zm2.17-142.12c.75 1.99 2.67 1.61 4.25 2.29-.17-1.08-.3-1.95-.46-2.97-1.29.23-2.58-.37-3.79.68zm140.99 180.01c.11.09.21.18.32.27.94-1.14 1.87-2.28 2.82-3.42.98-1.17 1.98-2.32 2.94-3.51.91-1.13 2.1-2.04 2.65-3.44-3.38 2.98-6.34 6.3-8.73 10.1zm-.08-25.23c.72-.65 1.24-1.13 1.8-1.64-.56-1.2-.8-2.49-2.49-2.59-.44 1.47.03 2.69.69 4.23zm-196.37-8.25c2.81-.54 3.34-1.98 1.61-4.24-.52 1.36-1.05 2.76-1.61 4.24zm129.67-1.42c-1.33-.23-2.19-.38-3.33-.57.34 1.04.57 1.73.85 2.6.89-.73 1.54-1.26 2.48-2.03zm-65.44 21.95c1.82.09 2.28-1.07 2.81-2.24-1.79-.1-2.27.26-2.81 2.24zm-6.35-170.83c-.04.15-.07.31-.11.46.77.28 1.53.57 2.36.87.33-.43.62-.82 1-1.33h-3.25zm15.66-5.24c.09-.13.18-.26.28-.39-.74-.51-1.16-1.38-2.21-1.75v1.67c.69.17 1.31.32 1.93.47zM92.51 186.33h-3.77c1.93 1.26 2.14 1.27 3.77 0z" class="st4"/><path d="M144.1 32.09c-1.04-.16-2.08-.32-3.13-.49-.19-.13-.37-.26-.56-.39l.03.04c-.22-1.36-1.28-.51-1.94-.72 1.04-1.26 2.09-2.52 3.13-3.78 1.22-.26 2.45-.28 3.62-.94 1.32-.74 2.84.56 2.86 2.26.06 2.13-1.62 3.8-4.01 4.02z" class="st0"/><path d="M144.78 184.74c.44.39 1.07.72 1.35 1.23.65 1.19 1.43 2.2 2.5 3.05.99.79 1.13 1.7.62 2.43-.59.85-1.59 1.15-2.64.73-1.76-.71-3.34-1.66-4.39-3.31-1.14-1.79-.87-2.66 1.1-3.46.42-.16.83-.37 1.46-.67zM136.22 28c-.3.72-.59 1.45-.89 2.16-.65 1.55-1.36 3.03-3.48 2.79-.15-.02-.32.2-.46.3-.35-1.46-.69-2.92-1.03-4.38.55-1.22 1.1-2.44 1.66-3.66l-.03.03c.48-.17 1.01-.25 1.42-.52 1.45-.95 2.33-.62 2.6 1.1.11.72.15 1.45.21 2.18zM128.76 21c-.12.27-.25.54-.37.81-.55.14-1.2.53-1.61.35-.87-.37-1.23-.01-1.59.63-.68.04-1.36.09-2.05.13-1.76-1.69-1.46-4.71.59-5.9 1.49-.86 4.21.18 4.68 1.84.2.69.24 1.42.35 2.14z" class="st2"/><path d="M117.96 51.75c.38-.95.76-1.9 1.14-2.86.54-.96 1.08-1.92 1.62-2.89l-.04.03c1.93.07 2.44.44 2.37 2.25-.06 1.4-.48 2.78-.74 4.17l.03-.03c-.69.15-1.45.17-2.06.48-1.62.81-1.74.79-2.32-1.15z" class="st0"/><path d="M204.28 212.03c1.04.39 2.49.87 3.87 1.51.38.18.81.84.76 1.22-.05.39-.6.85-1.04 1.02-1.27.51-4.94-.59-5.78-1.64-.58-.73-.36-1.62.52-1.93.37-.13.79-.09 1.67-.18z" class="st2"/><path d="M117.39 206.1h-2.34v-2.01c.34.26.87.46.97.79.24.73.81.93 1.37 1.22z" class="st0"/><path d="M123.11 43.23c.4-1.23.92-2.44 1.19-3.7.48-2.25 1.73-3.8 3.86-4.66.08-.03.23.09.4.16.24.83-.91 1.93.4 2.61-.27.84-.53 1.68-.8 2.51-.91 1.11-.55 2.37-.41 3.6-.2.88-.41 1.76-.61 2.64-.43.43-.86.87-1.29 1.3-1.69-.11-2.2-.42-2.54-1.91-.19-.81-.14-1.69-.2-2.55z" class="st2"/><path d="M127.76 43.76l1.52.36c.32 1.61-.01 1.96-2.13 2.28.2-.88.4-1.76.61-2.64zM140.93 137.66l.09-.49c-.04.16-.07.33-.09.49zM250.83 205.28l.06-.9c.11.02.23.05.34.07-.12.29-.24.59-.36.88l-.04-.05zM251.37 202.73c.01.29.01.59.01.88-.01-.29-.01-.59-.01-.88z" class="st1"/><path d="M250.88 205.33c-.07.05-.13.1-.2.15.05-.07.1-.13.15-.2l.05.05z" class="st1"/><path d="M138.49 30.46l-.49.37.49-.37z" class="st0"/><path d="M38.06 207.11c0-.59-.01-1.05 0-1.51.07-3.56 1.9-6.07 5.33-7.14 1.8-.57 3.65-.85 5.52-.29 2.41.72 4.55 1.73 4.91 4.81 4.69-2.2 8.71-1.66 12.02 2.29 2.77 3.31 1.58 6.58-.02 9.86.03.13.05.26.1.39.6 1.46 1.61 2.84.96 4.55-.82 2.16-1.97 4.08-4.01 5.34-3.35 2.06-6.82 2.66-10.48.8-.17-.09-.38-.09-.66-.15-2.63 3.57-6.25 4.36-10.33 3.21-4.23-1.19-6.29-4.28-6.69-8.45-3.79-2.32-5.07-4.71-4.31-7.97.76-3.24 3.6-5.42 7.66-5.74zm24.76 6.86c.57-.26 1.28-.35 1.56-.74 1.05-1.46.95-4.63-.19-6.06-.74-.93-1.63-1.76-2.53-2.55-.89-.79-1.99-1.17-3.17-.92-1.67.36-3.32.82-5.2 1.29-.69-.35-.92-1.28-1.16-2.17-.37-1.36-1.25-2.08-2.62-2.44-2.1-.55-4.12-.45-6.07.45-1.72.79-2.91 2.08-3.4 3.96-.41 1.56-.52 2.98 1 4.12.28.21.34 1.06.14 1.41-.15.25-.91.26-1.37.19-.91-.13-1.81-.6-2.68-.55-1.9.12-3.78 1.99-4.15 3.84-.32 1.64.57 3.56 2.36 4.46 1.36.68 1.91 1.61 2.18 3.05.55 3.01 2.61 4.83 5.48 5.47 2.61.58 5.53.42 7.21-2.84.63-1.23 1.19-1.28 2.43-.51 3.71 2.3 8.17 1.51 10.69-1.86.9-1.21 1.31-2.35.43-3.84-.69-1.13-1.34-2.37-.94-3.76zM16.61 187.57c2.97-2.78 6.09-3.13 8.87-.96 2.4 1.88 2.39 4.18-.08 8.22.93 1.7.93 3.36-.53 4.89-1.64 1.7-3.56 2.57-5.95 2.16-.65-.11-1.28-.33-1.98-.52-.23.24-.45.49-.69.71-2.4 2.16-5.42 1.75-7.15-.99-1.29-2.03-1.46-4.14-.19-6.23.64-1.04.97-1.94.68-3.28-.49-2.31 1.43-4.3 3.82-4.3.98.01 1.98.19 3.2.3zm.39 2.77l-.03-.36c-1.21-.22-2.42-.6-3.63-.63-1.28-.03-2.2 1.4-1.47 2.35 1 1.29.57 2.09-.32 3.1-.47.52-.75 1.26-.97 1.94-.5 1.53.17 3.09 1.6 3.89 1.07.6 2.04.63 2.69-.32.99-1.46 2.08-1.23 3.47-.8 2.54.79 4.14.08 5.58-2.3-.14-.24-.28-.54-.46-.8-1.07-1.54-1.05-1.62-.02-3.14.41-.6.75-1.25 1.07-1.9.45-.92.08-1.7-.6-2.32-1.3-1.17-3.38-1.25-4.82-.23-.71.5-1.4 1.01-2.09 1.52zM31.32 198.33c-.04.45.02.97-.14 1.42-.21.62-.74.99-1.39.63-.62-.34-.63-.94-.28-1.52.38-.63.89-.93 1.81-.53zM77.09 219.56c-1 .95-1.59 1.09-2.03.4-.16-.25-.14-.79.03-1.04.46-.64.96-.46 2 .64zM29.2 205.44c-.31-.38-.71-.75-.66-.82.23-.33.58-.58.89-.86.18.24.55.52.51.71-.08.32-.41.57-.74.97z" class="st4"/><path d="M51.02 211.42c-.61.42-1.04.76-1.51.99-.07.04-.54-.4-.56-.64-.05-.74.46-1.08 1.13-1.08.22 0 .46.34.94.73zM48.6 215.41c.86-.79 1.32-.1 1.99.15-.75.63-1.33.63-1.99-.15zM57.13 211.76c-.36.13-.72.27-1.07.4-.05-.12-.1-.23-.14-.35.35-.16.69-.31 1.04-.47.05.14.11.28.17.42zM17.93 194.3c-.36 1-.98 1.34-1.83.89-.2-.11-.32-.92-.14-1.11.69-.76 1.35-.4 1.97.22z" class="st4"/></svg>